SplineFontDB: 3.2
FontName: DSETypewriter
FullName: DSE Typewriter
FamilyName: DSE Typewriter
Weight: Regular
Copyright: Copyright (c) 2020, Darren Embry\n\nSIL OFL 1.1\n
UComments: "2020-2-19: Created with FontForge (http://fontforge.org)"
Version: 001.000
StrokeWidth: 96
ItalicAngle: 0
UnderlinePosition: -192
UnderlineWidth: 96
Ascent: 1648
Descent: 400
InvalidEm: 0
LayerCount: 2
Layer: 0 0 "Back" 1
Layer: 1 0 "Fore" 0
XUID: [1021 633 -131660588 20145]
FSType: 0
OS2Version: 0
OS2_WeightWidthSlopeOnly: 0
OS2_UseTypoMetrics: 0
CreationTime: 1582156054
ModificationTime: 1584245036
PfmFamily: 17
TTFWeight: 400
TTFWidth: 5
LineGap: 0
VLineGap: 0
Panose: 2 7 5 9 0 2 5 2 4 3
OS2TypoAscent: 1648
OS2TypoAOffset: 0
OS2TypoDescent: -400
OS2TypoDOffset: 0
OS2TypoLinegap: 0
OS2WinAscent: 1648
OS2WinAOffset: 0
OS2WinDescent: 400
OS2WinDOffset: 0
HheadAscent: 1648
HheadAOffset: 0
HheadDescent: -400
HheadDOffset: 0
OS2CapHeight: 1248
OS2XHeight: 864
OS2Vendor: 'PfEd'
MarkAttachClasses: 1
DEI: 91125
LangName: 1033
Encoding: UnicodeBmp
UnicodeInterp: none
NameList: AGL For New Fonts
DisplaySize: -48
AntiAlias: 1
FitToEm: 0
WinInfo: 8192 8 9
BeginPrivate: 0
EndPrivate
Grid
-2048 1392.20019531 m 4
 4096 1392.20019531 l 1028
  Named: "accent bottom"
-1437.05950928 2672 m 0
 -1437.05950928 -1424 l 1024
4884 492 m 1049
-2048 624 m 0
 4096 624 l 1024
  Named: "half cap"
768 2672 m 0
 768 -1424 l 1024
  Named: "1/4 char"
256 2672 m 0
 256 -1424 l 1024
  Named: "3/4 char"
512 2672 m 0
 512 -1424 l 1024
  Named: "1/2 char"
-2048 1584 m 0
 4096 1584 l 1024
  Named: "accent"
-2048 1200 m 0
 4096 1200 l 1024
  Named: "cap"
-2048 816 m 0
 4096 816 l 1024
  Named: "ex"
-2048 432 m 0
 4096 432 l 1024
  Named: "half ex"
-2048 -336 m 0
 4096 -336 l 1024
  Named: "descender"
-2048 48 m 0
 4096 48 l 1024
  Named: "base"
0 -384 m 25
 0 1632 l 25
 1024 1632 l 25
 1024 -384 l 25
 0 -384 l 1049
16 -384 m 25
 16 1632 l 1049
32 -384 m 25
 32 1632 l 1049
48 -384 m 25
 48 1632 l 1049
64 -384 m 25

StartChar: H
Encoding: 72 72 1
Width: 1024
VWidth: 0
Flags: HW
AnchorPoint: "top" 512 1272 basechar 0
LayerCount: 2
Back
SplineSet
272 672 m 25
 752 672 l 1053
768 1184 m 25
 768 64 l 1049
256 1184 m 25
 256 64 l 1049
608 1200 m 25
 928 1200 l 1049
608 48 m 25
 928 48 l 1049
96 1200 m 25
 416 1200 l 1049
96 48 m 25
 416 48 l 1049
EndSplineSet
Fore
SplineSet
560 1200 m 0
 560 1226.14447171 581.853633925 1248 608 1248 c 2
 928 1248 l 2
 954.144471708 1248 976 1226.14636608 976 1200 c 0
 976 1173.85363392 954.144471708 1152 928 1152 c 2
 816 1152 l 1
 816 96 l 1
 928 96 l 2
 954.144471708 96 976 74.1463660754 976 48 c 0
 976 21.8536339246 954.144471708 0 928 0 c 2
 608 0 l 2
 581.853633925 0 560 21.8555282921 560 48 c 0
 560 74.1444717079 581.853633925 96 608 96 c 2
 720 96 l 1
 720 624 l 1
 304 624 l 1
 304 96 l 1
 416 96 l 2
 442.144471708 96 464 74.1463660754 464 48 c 0
 464 21.8536339246 442.144471708 0 416 0 c 2
 96 0 l 2
 69.8536339246 0 48 21.8555282921 48 48 c 0
 48 74.1444717079 69.8536339246 96 96 96 c 2
 208 96 l 1
 208 1152 l 1
 96 1152 l 2
 69.8536339246 1152 48 1173.85552829 48 1200 c 0
 48 1226.14447171 69.8536339246 1248 96 1248 c 2
 416 1248 l 2
 442.144471708 1248 464 1226.14636608 464 1200 c 0
 464 1173.85363392 442.144471708 1152 416 1152 c 2
 304 1152 l 1
 304 720 l 1
 720 720 l 1
 720 1152 l 1
 608 1152 l 2
 581.853633925 1152 560 1173.85552829 560 1200 c 0
EndSplineSet
EndChar

StartChar: O
Encoding: 79 79 2
Width: 1024
VWidth: 0
Flags: HW
AnchorPoint: "top" 512 1272 basechar 0
LayerCount: 2
Back
SplineSet
144 624 m 4
 144 951 288 1216 512 1216 c 4
 736 1216 880 951 880 624 c 4
 880 297 736 32 512 32 c 4
 288 32 144 297 144 624 c 4
EndSplineSet
Fore
SplineSet
96 624 m 0
 96 956.244395734 242.767910564 1264 512 1264 c 0
 781.225833903 1264 928 956.236269841 928 624 c 0
 928 291.755604266 781.232089436 -16 512 -16 c 0
 242.774166097 -16 96 291.763730159 96 624 c 0
192 624 m 0
 192 302.236269841 333.225833903 80 512 80 c 0
 690.767910564 80 832 302.244395734 832 624 c 0
 832 945.763730159 690.774166097 1168 512 1168 c 0
 333.232089436 1168 192 945.755604266 192 624 c 0
EndSplineSet
EndChar

StartChar: I
Encoding: 73 73 3
Width: 1024
VWidth: 0
Flags: HW
AnchorPoint: "top" 512 1272 basechar 0
LayerCount: 2
Back
SplineSet
208 48 m 25
 816 48 l 1049
512 1184 m 25
 512 64 l 1049
208 1200 m 25
 816 1200 l 1049
EndSplineSet
Fore
SplineSet
160 48 m 0
 160 74.1444717079 181.853633925 96 208 96 c 2
 464 96 l 1
 464 1152 l 1
 208 1152 l 2
 181.853633925 1152 160 1173.85552829 160 1200 c 0
 160 1226.14447171 181.853633925 1248 208 1248 c 2
 816 1248 l 2
 842.144471708 1248 864 1226.14636608 864 1200 c 0
 864 1173.85363392 842.144471708 1152 816 1152 c 2
 560 1152 l 1
 560 96 l 1
 816 96 l 2
 842.144471708 96 864 74.1463660754 864 48 c 0
 864 21.8536339246 842.144471708 0 816 0 c 2
 208 0 l 2
 181.853633925 0 160 21.8555282921 160 48 c 0
EndSplineSet
EndChar

StartChar: emdash
Encoding: 8212 8212 4
Width: 1024
VWidth: 0
Flags: HW
LayerCount: 2
Back
SplineSet
48 624 m 29
 976 624 l 1053
EndSplineSet
Fore
SplineSet
0 624 m 0
 0 650.14453125 21.853515625 672 48 672 c 2
 976 672 l 2
 1002.14453125 672 1024 650.146484375 1024 624 c 0
 1024 597.853515625 1002.14453125 576 976 576 c 2
 48 576 l 2
 21.853515625 576 0 597.85546875 0 624 c 0
EndSplineSet
EndChar

StartChar: endash
Encoding: 8211 8211 5
Width: 1024
VWidth: 0
Flags: HW
LayerCount: 2
Back
SplineSet
96 624 m 25
 928 624 l 1053
EndSplineSet
Fore
SplineSet
48 624 m 0
 48 650.14453125 69.853515625 672 96 672 c 2
 928 672 l 2
 954.14453125 672 976 650.146484375 976 624 c 0
 976 597.853515625 954.14453125 576 928 576 c 2
 96 576 l 2
 69.853515625 576 48 597.85546875 48 624 c 0
EndSplineSet
EndChar

StartChar: hyphen
Encoding: 45 45 6
Width: 1024
VWidth: 0
Flags: HW
LayerCount: 2
Back
SplineSet
144 624 m 25
 880 624 l 1053
EndSplineSet
Fore
SplineSet
96 624 m 0
 96 650.144471708 117.853633925 672 144 672 c 2
 880 672 l 2
 906.144471708 672 928 650.146366075 928 624 c 0
 928 597.853633925 906.144471708 576 880 576 c 2
 144 576 l 2
 117.853633925 576 96 597.855528292 96 624 c 0
EndSplineSet
EndChar

StartChar: period
Encoding: 46 46 7
Width: 1024
VWidth: 0
Flags: HW
LayerCount: 2
Back
SplineSet
416 128 m 4
 416 154 459 176 512 176 c 4
 565 176 608 154 608 128 c 4
 608 102 565 80 512 80 c 4
 459 80 416 102 416 128 c 4
368 128 m 4
 368 181 433 224 512 224 c 4
 591 224 656 181 656 128 c 4
 656 75 591 32 512 32 c 4
 433 32 368 75 368 128 c 4
EndSplineSet
Fore
SplineSet
320 128 m 0
 320 223.788073869 423.092573968 272 512 272 c 0
 600.908900441 272 704 223.788777738 704 128 c 0
 704 32.211926131 600.907426032 -16 512 -16 c 0
 423.091099559 -16 320 32.2112222619 320 128 c 0
EndSplineSet
EndChar

StartChar: slash
Encoding: 47 47 8
Width: 1024
VWidth: 0
Flags: HW
LayerCount: 2
Back
SplineSet
128 -144 m 25
 896 1392 l 1053
EndSplineSet
Fore
SplineSet
106.533747416 -186.932505168 m 0
 89.8715016746 -178.601382297 80.1189050886 -161.320105594 80.1189050886 -143.612920117 c 0
 80.1189050886 -136.469277496 81.7062109746 -129.256315131 85.067494832 -122.533747416 c 2
 853.067494832 1413.46625258 l 2
 861.398617703 1430.12849833 878.679894406 1439.88109491 896.387079883 1439.88109491 c 0
 903.530722504 1439.88109491 910.743684869 1438.29378903 917.466252584 1434.93250517 c 0
 934.12941889 1426.60092201 943.881023279 1409.31949305 943.881023279 1391.6129427 c 0
 943.881023279 1384.46912868 942.293688853 1377.25611479 938.932505168 1370.53374742 c 2
 170.932505168 -165.466252584 l 2
 162.600922015 -182.12941889 145.319493053 -191.881023279 127.612942695 -191.881023279 c 0
 120.46912868 -191.881023279 113.256114787 -190.293688853 106.533747416 -186.932505168 c 0
EndSplineSet
EndChar

StartChar: one
Encoding: 49 49 9
Width: 1024
VWidth: 0
Flags: HW
LayerCount: 2
Back
SplineSet
512 64 m 29
 512 1200 l 29
 512 1200 384 992 208 992 c 1037
208 48 m 29
 816 48 l 1053
EndSplineSet
Fore
SplineSet
160 48 m 0
 160 74.1444717079 181.853633925 96 208 96 c 2
 464 96 l 1
 464 1066.00476557 l 1
 405.32972828 1008.37319002 318.178799635 944 208 944 c 0
 181.855528292 944 160 965.853633925 160 992 c 0
 160 1018.14636608 181.855528292 1040 208 1040 c 0
 346.554893661 1040 466.461278321 1217.66376311 471.467351799 1225.71518499 c 0
 478.929523796 1237.25917754 492.918275488 1246.64669231 508.234059899 1247.85203961 c 0
 509.46657643 1247.94903827 510.692574925 1247.99666379 511.910164833 1247.99666379 c 0
 537.865582227 1247.99666379 560 1226.35484791 560 1200 c 2
 560 96 l 1
 816 96 l 2
 842.144471708 96 864 74.1463660754 864 48 c 0
 864 21.8536339246 842.144471708 0 816 0 c 2
 208 0 l 2
 181.853633925 0 160 21.8555282921 160 48 c 0
EndSplineSet
EndChar

StartChar: backslash
Encoding: 92 92 10
Width: 1024
VWidth: 0
Flags: HW
LayerCount: 2
Back
SplineSet
896 -144 m 25
 128 1392 l 1049
EndSplineSet
Fore
SplineSet
917.466252584 -186.932505168 m 0
 910.743885213 -190.293688853 903.53087132 -191.881023279 896.387057305 -191.881023279 c 0
 878.680506947 -191.881023279 861.399077985 -182.12941889 853.067494832 -165.466252584 c 2
 85.067494832 1370.53374742 l 2
 81.7063111467 1377.25611479 80.1189767208 1384.46912868 80.1189767208 1391.6129427 c 0
 80.1189767208 1409.31949305 89.87058111 1426.60092201 106.533747416 1434.93250517 c 0
 113.256315131 1438.29378903 120.469277496 1439.88109491 127.612920117 1439.88109491 c 0
 145.320105594 1439.88109491 162.601382297 1430.12849833 170.932505168 1413.46625258 c 2
 938.932505168 -122.533747416 l 2
 942.293789025 -129.256315131 943.881094911 -136.469277496 943.881094911 -143.612920117 c 0
 943.881094911 -161.320105594 934.128498325 -178.601382297 917.466252584 -186.932505168 c 0
EndSplineSet
EndChar

StartChar: asciitilde
Encoding: 126 126 11
Width: 1024
VWidth: 0
Flags: HW
LayerCount: 2
Back
SplineSet
144 432 m 0
 144 624 208 720 304 720 c 0
 408 720 460 672 512 624 c 1025
512 624 m 1
 564 576 616 528 720 528 c 0
 816 528 880 624 880 816 c 1024
EndSplineSet
Fore
SplineSet
144 384 m 0
 117.855528292 384 96 405.853633925 96 432 c 0
 96 627.361486025 164.230274888 768 304 768 c 0
 425.347074633 768 492.752093038 707.090890167 544.557444931 659.270565342 c 0
 596.75175102 611.091205875 633.347738125 576 720 576 c 0
 772.22976918 576 832 627.361801131 832 816 c 0
 832 842.144471708 853.853633925 864 880 864 c 0
 906.146366075 864 928 842.144471708 928 816 c 0
 928 620.638198869 859.77023082 480 720 480 c 0
 598.652261875 480 531.24824898 540.908794125 479.442555069 588.729434658 c 0
 427.247906962 636.909109833 390.652925367 672 304 672 c 0
 251.769725112 672 192 620.638513975 192 432 c 0
 192 405.853633925 170.144471708 384 144 384 c 0
EndSplineSet
EndChar

StartChar: bar
Encoding: 124 124 12
Width: 1024
VWidth: 0
Flags: HW
LayerCount: 2
Back
SplineSet
512 1392 m 25
 512 -144 l 1049
EndSplineSet
Fore
SplineSet
512 1440 m 4
 538.14453125 1440 560 1418.14648438 560 1392 c 6
 560 -146 l 6
 560 -172.14453125 538.146484375 -194 512 -194 c 4
 485.853515625 -194 464 -172.14453125 464 -146 c 6
 464 1392 l 6
 464 1418.14648438 485.85546875 1440 512 1440 c 4
EndSplineSet
Validated: 1
EndChar

StartChar: plus
Encoding: 43 43 13
Width: 1024
VWidth: 0
Flags: HW
LayerCount: 2
Back
SplineSet
512 992 m 25
 512 256 l 1049
144 624 m 25
 880 624 l 1049
EndSplineSet
Fore
SplineSet
512 1040 m 0
 538.144471708 1040 560 1018.14636608 560 992 c 2
 560 672 l 1
 880 672 l 2
 906.144471708 672 928 650.146366075 928 624 c 0
 928 597.853633925 906.144471708 576 880 576 c 2
 560 576 l 1
 560 256 l 2
 560 229.855528292 538.146366075 208 512 208 c 0
 485.853633925 208 464 229.855528292 464 256 c 2
 464 576 l 1
 144 576 l 2
 117.853633925 576 96 597.855528292 96 624 c 0
 96 650.144471708 117.853633925 672 144 672 c 2
 464 672 l 1
 464 992 l 2
 464 1018.14636608 485.855528292 1040 512 1040 c 0
EndSplineSet
EndChar

StartChar: zero
Encoding: 48 48 14
Width: 1024
VWidth: 0
Flags: HW
LayerCount: 2
Back
SplineSet
464 624 m 4
 464 650 486 672 512 672 c 4
 538 672 560 650 560 624 c 4
 560 598 538 576 512 576 c 4
 486 576 464 598 464 624 c 4
144 624 m 0
 144 951 309 1216 512 1216 c 0
 715 1216 880 951 880 624 c 0
 880 297 715 32 512 32 c 0
 309 32 144 297 144 624 c 0
EndSplineSet
Fore
SplineSet
416 624 m 0
 416 676.865146728 459.134923953 720 512 720 c 0
 564.865146728 720 608 676.865076047 608 624 c 0
 608 571.134853272 564.865076047 528 512 528 c 0
 459.134853272 528 416 571.134923953 416 624 c 0
96 624 m 0
 96 958.211217529 263.767966667 1264 512 1264 c 0
 760.231846068 1264 928 958.21070979 928 624 c 0
 928 289.788782471 760.232033333 -16 512 -16 c 0
 263.768153932 -16 96 289.78929021 96 624 c 0
192 624 m 0
 192 304.21070979 354.231846068 80 512 80 c 0
 669.767966667 80 832 304.211217529 832 624 c 0
 832 943.78929021 669.768153932 1168 512 1168 c 0
 354.232033333 1168 192 943.788782471 192 624 c 0
EndSplineSet
EndChar

StartChar: comma
Encoding: 44 44 15
Width: 1024
VWidth: 0
Flags: HW
LayerCount: 2
Back
SplineSet
656 128 m 4
 656 -112 368 -352 368 -352 c 1028
416 128 m 4
 416 154 459 176 512 176 c 4
 565 176 608 154 608 128 c 4
 608 102 565 80 512 80 c 4
 459 80 416 102 416 128 c 4
368 128 m 4
 368 181 433 224 512 224 c 4
 591 224 656 181 656 128 c 4
 656 75 591 32 512 32 c 4
 433 32 368 75 368 128 c 4
EndSplineSet
Fore
SplineSet
320 128 m 0
 320 223.788073869 423.092573968 272 512 272 c 0
 600.908900441 272 704 223.788777738 704 128 c 0
 704 -144.704870672 398.514408057 -389.053479826 398.140861784 -389.365029535 c 0
 388.986742429 -396.505235324 378.341689877 -399.909478661 367.879116659 -399.909478661 c 0
 354.013172709 -399.909478661 340.467734304 -393.930287255 331.138055671 -382.744057316 c 0
 323.766102086 -373.905128223 320.070210594 -363.055518496 320.070210594 -352.163188785 c 0
 320.070210594 -338.869512343 325.57534419 -325.512203292 336.621659493 -315.668841899 c 0
 341.093787381 -311.926330596 504.518344492 -168.825805015 575.564807071 -8.00626864462 c 1
 554.609181908 -13.3326650412 509.411084808 -16.325574693 512 -16 c 1
 423.091099559 -16 320 32.2112222619 320 128 c 0
EndSplineSet
EndChar

StartChar: minus
Encoding: 8722 8722 16
Width: 1024
VWidth: 0
Flags: HW
LayerCount: 2
Back
SplineSet
144 624 m 25
 880 624 l 1053
EndSplineSet
Fore
SplineSet
96 624 m 0
 96 650.144471708 117.853633925 672 144 672 c 2
 880 672 l 2
 906.144471708 672 928 650.146366075 928 624 c 0
 928 597.853633925 906.144471708 576 880 576 c 2
 144 576 l 2
 117.853633925 576 96 597.855528292 96 624 c 0
EndSplineSet
EndChar

StartChar: equal
Encoding: 61 61 17
Width: 1024
VWidth: 0
Flags: HW
LayerCount: 2
Back
SplineSet
144 480 m 25
 880 480 l 1049
144 768 m 25
 880 768 l 1049
EndSplineSet
Fore
SplineSet
96 480 m 0
 96 506.144471708 117.853633925 528 144 528 c 2
 880 528 l 2
 906.144471708 528 928 506.146366075 928 480 c 0
 928 453.853633925 906.144471708 432 880 432 c 2
 144 432 l 2
 117.853633925 432 96 453.855528292 96 480 c 0
96 768 m 0
 96 794.144471708 117.853633925 816 144 816 c 2
 880 816 l 2
 906.144471708 816 928 794.146366075 928 768 c 0
 928 741.853633925 906.144471708 720 880 720 c 2
 144 720 l 2
 117.853633925 720 96 741.855528292 96 768 c 0
EndSplineSet
EndChar

StartChar: colon
Encoding: 58 58 18
Width: 1024
VWidth: 0
Flags: HW
LayerCount: 2
Back
SplineSet
416 688 m 4
 416 714 459 736 512 736 c 4
 565 736 608 714 608 688 c 4
 608 662 565 640 512 640 c 4
 459 640 416 662 416 688 c 4
416 128 m 0
 416 154 459 176 512 176 c 0
 565 176 608 154 608 128 c 0
 608 102 565 80 512 80 c 0
 459 80 416 102 416 128 c 0
368 128 m 0
 368 181 433 224 512 224 c 0
 591 224 656 181 656 128 c 0
 656 75 591 32 512 32 c 0
 433 32 368 75 368 128 c 0
368 688 m 0
 368 741 433 784 512 784 c 0
 591 784 656 741 656 688 c 0
 656 635 591 592 512 592 c 0
 433 592 368 635 368 688 c 0
EndSplineSet
Fore
SplineSet
320 128 m 0
 320 223.788073869 423.092573968 272 512 272 c 0
 600.908900441 272 704 223.788777738 704 128 c 0
 704 32.211926131 600.907426032 -16 512 -16 c 0
 423.091099559 -16 320 32.2112222619 320 128 c 0
320 688 m 0
 320 783.788073869 423.092573968 832 512 832 c 0
 600.908900441 832 704 783.788777738 704 688 c 0
 704 592.211926131 600.907426032 544 512 544 c 0
 423.091099559 544 320 592.211222262 320 688 c 0
EndSplineSet
EndChar

StartChar: semicolon
Encoding: 59 59 19
Width: 1024
VWidth: 0
Flags: HW
LayerCount: 2
Back
SplineSet
416 688 m 4
 416 714 459 736 512 736 c 4
 565 736 608 714 608 688 c 4
 608 662 565 640 512 640 c 4
 459 640 416 662 416 688 c 4
368 688 m 4
 368 741 433 784 512 784 c 4
 591 784 656 741 656 688 c 4
 656 635 591 592 512 592 c 4
 433 592 368 635 368 688 c 4
656 128 m 0
 656 -112 368 -352 368 -352 c 1024
416 128 m 0
 416 154 459 176 512 176 c 0
 565 176 608 154 608 128 c 0
 608 102 565 80 512 80 c 0
 459 80 416 102 416 128 c 0
368 128 m 0
 368 181 433 224 512 224 c 0
 591 224 656 181 656 128 c 0
 656 75 591 32 512 32 c 0
 433 32 368 75 368 128 c 0
EndSplineSet
Fore
SplineSet
320 688 m 4
 320 783.788073869 423.092573968 832 512 832 c 4
 600.908900441 832 704 783.788777738 704 688 c 4
 704 592.211926131 600.907426032 544 512 544 c 4
 423.091099559 544 320 592.211222262 320 688 c 4
320 128 m 4
 320 223.788073869 423.092573968 272 512 272 c 4
 600.908900441 272 704 223.788777738 704 128 c 4
 704 -144.704870672 398.514408057 -389.053479826 398.140861784 -389.365029535 c 4
 388.986742429 -396.505235324 378.341689877 -399.909478661 367.879116659 -399.909478661 c 4
 354.013172709 -399.909478661 340.467734304 -393.930287255 331.138055671 -382.744057316 c 4
 323.766102086 -373.905128223 320.070210594 -363.055518496 320.070210594 -352.163188785 c 4
 320.070210594 -338.869512343 325.57534419 -325.512203292 336.621659493 -315.668841899 c 4
 341.093787381 -311.926330596 504.518344492 -168.825805015 575.564807071 -8.00626864462 c 5
 554.609181908 -13.3326650412 509.411084808 -16.325574693 512 -16 c 5
 423.091099559 -16 320 32.2112222619 320 128 c 4
EndSplineSet
EndChar

StartChar: less
Encoding: 60 60 20
Width: 1024
VWidth: 0
Flags: HW
LayerCount: 2
Back
SplineSet
880 1056 m 25
 128 624 l 25
 880 192 l 1053
EndSplineSet
Fore
SplineSet
921.621066039 1079.90997411 m 0
 925.854128228 1072.5413103 927.859449827 1064.41545988 927.859449827 1056.35590204 c 0
 927.859449827 1039.61987788 919.21243532 1023.16970955 903.909974107 1014.37893396 c 2
 224.361459434 624 l 1
 903.909974107 233.621066039 l 2
 919.211643921 224.830745082 927.859517628 208.380602263 927.859517628 191.643988369 c 0
 927.859517628 183.584660723 925.854252653 175.458906295 921.621066039 168.090025893 c 0
 912.830290448 152.78756468 896.380122119 144.140550173 879.644097956 144.140550173 c 0
 871.584540118 144.140550173 863.458689703 146.145871772 856.090025893 150.378933961 c 2
 104.090025893 582.378933961 l 2
 99.7097695774 584.895251419 92.42162984 590.994862405 88.3831381142 596.898261046 c 0
 82.8169518443 605.034817636 80.1792737586 614.375759944 80.1792737586 623.648610545 c 0
 80.1792737586 640.328406366 88.7137470956 656.787884602 104.090025893 665.621066039 c 2
 856.090025893 1097.62106604 l 2
 863.458906295 1101.85425265 871.584660723 1103.85951763 879.643988369 1103.85951763 c 0
 896.380602263 1103.85951763 912.830745082 1095.21164392 921.621066039 1079.90997411 c 0
EndSplineSet
EndChar

StartChar: eight
Encoding: 56 56 21
Width: 1024
VWidth: 0
Flags: HW
LayerCount: 2
Back
SplineSet
200 944 m 4
 200 1094 340 1216 512 1216 c 4
 684 1216 824 1094 824 944 c 4
 824 794 684 672 512 672 c 4
 340 672 200 794 200 944 c 4
144 352 m 0
 144 529 309 672 512 672 c 0
 715 672 880 529 880 352 c 0
 880 175 715 32 512 32 c 0
 309 32 144 175 144 352 c 0
EndSplineSet
Fore
SplineSet
152 944 m 0
 152 1126.13403844 319.116449403 1264 512 1264 c 0
 704.883616445 1264 872 1126.13414687 872 944 c 0
 872 829.464898405 805.913283259 732.435744715 708.890735649 676.188546949 c 1
 837.711335916 615.05321763 928 495.374360122 928 352 c 0
 928 142.768119417 735.71494738 -16 512 -16 c 0
 288.285109543 -16 96 142.768192874 96 352 c 0
 96 495.374394512 186.288617272 615.053222697 315.10919613 676.188541512 c 1
 218.086672888 732.435720253 152 829.464845654 152 944 c 0
192 352 m 0
 192 207.231807126 329.714890457 80 512 80 c 0
 694.28505262 80 832 207.231880583 832 352 c 0
 832 496.768192874 694.285109543 624 512 624 c 0
 329.71494738 624 192 496.768119417 192 352 c 0
512 720 m 0
 663.116449403 720 776 826.13403844 776 944 c 0
 776 1061.86585313 663.116383555 1168 512 1168 c 0
 360.883550597 1168 248 1061.86596156 248 944 c 0
 248 826.13414687 360.883616445 720 512 720 c 0
EndSplineSet
EndChar

StartChar: greater
Encoding: 62 62 22
Width: 1024
VWidth: 0
Flags: HW
LayerCount: 2
Back
SplineSet
128 1056 m 25
 880 624 l 25
 128 192 l 1053
EndSplineSet
Fore
SplineSet
86.3789339614 1079.90997411 m 0
 95.169254918 1095.21164392 111.619397737 1103.85951763 128.356011631 1103.85951763 c 0
 136.415339277 1103.85951763 144.541093705 1101.85425265 151.909974107 1097.62106604 c 2
 903.909974107 665.621066039 l 2
 919.286252904 656.787884602 927.820726241 640.328406366 927.820726241 623.648610545 c 0
 927.820726241 614.375759944 925.183048156 605.034817636 919.616861886 596.898261046 c 0
 915.53802743 590.935890087 908.665444182 585.110799749 903.909974107 582.378933961 c 2
 151.909974107 150.378933961 l 2
 144.541310297 146.145871772 136.415459882 144.140550173 128.355902044 144.140550173 c 0
 111.619877881 144.140550173 95.1697095518 152.78756468 86.3789339614 168.090025893 c 0
 82.1457473471 175.458906295 80.1404823724 183.584660723 80.1404823724 191.643988369 c 0
 80.1404823724 208.380602263 88.7883560793 224.830745082 104.090025893 233.621066039 c 2
 783.638540566 624 l 1
 104.090025893 1014.37893396 l 2
 88.7875646798 1023.16970955 80.1405501726 1039.61987788 80.1405501726 1056.35590204 c 0
 80.1405501726 1064.41545988 82.1458717725 1072.5413103 86.3789339614 1079.90997411 c 0
EndSplineSet
EndChar

StartChar: underscore
Encoding: 95 95 23
Width: 1024
VWidth: 0
Flags: HW
LayerCount: 2
Back
SplineSet
144 48 m 25
 880 48 l 1049
EndSplineSet
Fore
SplineSet
96 48 m 0
 96 74.1444717079 117.853633925 96 144 96 c 2
 880 96 l 2
 906.144471708 96 928 74.1463660754 928 48 c 0
 928 21.8536339246 906.144471708 0 880 0 c 2
 144 0 l 2
 117.853633925 0 96 21.8555282921 96 48 c 0
EndSplineSet
EndChar

StartChar: asciicircum
Encoding: 94 94 24
Width: 1024
VWidth: 0
Flags: HW
LayerCount: 2
Back
SplineSet
176 864 m 25
 512 1200 l 25
 848 864 l 1049
EndSplineSet
Fore
SplineSet
142.058874503 830.058874503 m 0
 132.815240451 839.302508555 128.193172252 851.651283037 128.193172252 864.000168722 c 0
 128.193172252 876.348607046 132.814905571 888.697156565 142.058874503 897.941125497 c 2
 478.058874503 1233.9411255 l 2
 487.475060032 1243.35731103 499.459422398 1247.20218468 511.082344141 1247.20218468 c 0
 524.818783432 1247.20218468 538.050381654 1241.83186934 545.941125497 1233.9411255 c 2
 881.941125497 897.941125497 l 2
 891.184759549 888.697491445 895.806827748 876.348716963 895.806827748 863.999831278 c 0
 895.806827748 851.651392954 891.185094429 839.302843435 881.941125497 830.058874503 c 0
 872.697156565 820.814905571 860.348607046 816.193172252 848.000168722 816.193172252 c 0
 835.651283037 816.193172252 823.302508555 820.815240451 814.058874503 830.058874503 c 2
 512 1132.11774901 l 1
 209.941125497 830.058874503 l 2
 200.697156565 820.814905571 188.348607046 816.193172252 176.000168722 816.193172252 c 0
 163.651283037 816.193172252 151.302508555 820.815240451 142.058874503 830.058874503 c 0
EndSplineSet
EndChar

StartChar: U
Encoding: 85 85 25
Width: 1024
VWidth: 0
Flags: HW
AnchorPoint: "top" 512 1272 basechar 0
LayerCount: 2
Back
SplineSet
768 288 m 25
 768 1184 l 1049
256 288 m 25
 256 1184 l 1049
768 288 m 0
 768 147 653 32 512 32 c 0
 371 32 256 147 256 288 c 1024
608 1200 m 25
 928 1200 l 1049
96 1200 m 25
 416 1200 l 1049
EndSplineSet
Fore
SplineSet
560 1200 m 0
 560 1226.14447171 581.853633925 1248 608 1248 c 2
 928 1248 l 2
 954.144471708 1248 976 1226.14636608 976 1200 c 0
 976 1173.85363392 954.144471708 1152 928 1152 c 2
 816 1152 l 1
 816 288 l 2
 816 120.44592155 679.554060986 -16 512 -16 c 0
 344.44592155 -16 208 120.445939014 208 288 c 2
 208 1152 l 1
 96 1152 l 2
 69.8536339246 1152 48 1173.85552829 48 1200 c 0
 48 1226.14447171 69.8536339246 1248 96 1248 c 2
 416 1248 l 2
 442.144471708 1248 464 1226.14636608 464 1200 c 0
 464 1173.85363392 442.144471708 1152 416 1152 c 2
 304 1152 l 1
 304 288 l 2
 304 173.554060986 397.55407845 80 512 80 c 0
 626.445939014 80 720 173.55407845 720 288 c 2
 720 1152 l 1
 608 1152 l 2
 581.853633925 1152 560 1173.85552829 560 1200 c 0
EndSplineSet
EndChar

StartChar: J
Encoding: 74 74 26
Width: 1024
VWidth: 0
Flags: HW
AnchorPoint: "top" 656 1272 basechar 0
LayerCount: 2
Back
SplineSet
656 288 m 25
 656 1184 l 1049
144 288 m 25
 144 336 l 1049
144 336 m 0
 144 362 166 384 192 384 c 0
 218 384 240 362 240 336 c 0
 240 310 218 288 192 288 c 0
 166 288 144 310 144 336 c 0
656 288 m 0
 656 147 541 32 400 32 c 0
 259 32 144 147 144 288 c 1024
384 1200 m 25
 928 1200 l 1049
EndSplineSet
Fore
SplineSet
336 1200 m 0
 336 1226.14447171 357.853633925 1248 384 1248 c 2
 928 1248 l 2
 954.144471708 1248 976 1226.14636608 976 1200 c 0
 976 1173.85363392 954.144471708 1152 928 1152 c 2
 704 1152 l 1
 704 288 l 2
 704 120.44592155 567.554060986 -16 400 -16 c 0
 232.44592155 -16 96 120.445939014 96 288 c 2
 96 336 l 2
 96 388.865146728 139.134923953 432 192 432 c 0
 244.865146728 432 288 388.865076047 288 336 c 0
 288 285.008446579 247.868384917 243.069705957 197.582620273 240.161053367 c 1
 219.32556359 148.592918099 302.003934773 80 400 80 c 0
 514.445939014 80 608 173.55407845 608 288 c 2
 608 1152 l 1
 384 1152 l 2
 357.853633925 1152 336 1173.85552829 336 1200 c 0
EndSplineSet
EndChar

StartChar: question
Encoding: 63 63 27
Width: 1024
VWidth: 0
Flags: HW
LayerCount: 2
Back
SplineSet
880 1008 m 0
 880 880 778.261505735 866.804702057 696 821 c 4
 608 772 512 721 512 481 c 1024
144 960 m 0
 144 986 166 1008 192 1008 c 0
 218 1008 240 986 240 960 c 0
 240 934 218 912 192 912 c 0
 166 912 144 934 144 960 c 0
144 1008 m 25
 144 960 l 1049
144 1008 m 0
 144 1123 309 1216 512 1216 c 0
 715 1216 880 1123 880 1008 c 1024
416 128 m 0
 416 154 459 176 512 176 c 0
 565 176 608 154 608 128 c 0
 608 102 565 80 512 80 c 0
 459 80 416 102 416 128 c 0
368 128 m 0
 368 181 433 224 512 224 c 0
 591 224 656 181 656 128 c 0
 656 75 591 32 512 32 c 0
 433 32 368 75 368 128 c 0
EndSplineSet
Fore
SplineSet
320 128 m 0
 320 223.788073869 423.092573968 272 512 272 c 0
 600.908900441 272 704 223.788777738 704 128 c 0
 704 32.211926131 600.907426032 -16 512 -16 c 0
 423.091099559 -16 320 32.2112222619 320 128 c 0
96 960 m 2
 96 1008 l 2
 96 1171.70088302 305.557961022 1264 512 1264 c 0
 718.469754011 1264 928 1171.70482818 928 1008 c 0
 928 843.986226955 783.187667938 814.60819287 719.351312278 779.062949378 c 0
 635.337456273 732.282506829 560 703.068480061 560 481 c 0
 560 454.855528292 538.146366075 433 512 433 c 0
 485.853633925 433 464 454.855528292 464 481 c 0
 464 738.931519939 580.662543727 811.717493171 672.648687722 862.937050622 c 0
 773.335343532 919.001211244 832 916.013773045 832 1008 c 0
 832 1074.29517182 711.530245989 1168 512 1168 c 0
 356.370804006 1168 248.859647666 1111.01143577 209.068091508 1054.47500298 c 1
 253.843188871 1046.38071352 287.999999999 1007.04282109 288 960 c 0
 288 907.134853272 244.865076047 864 192 864 c 0
 139.134853272 864 96 907.134923953 96 960 c 2
EndSplineSet
EndChar

StartChar: exclam
Encoding: 33 33 28
Width: 1024
VWidth: 0
Flags: HW
LayerCount: 2
Back
SplineSet
416 128 m 4
 416 154 459 176 512 176 c 4
 565 176 608 154 608 128 c 4
 608 102 565 80 512 80 c 4
 459 80 416 102 416 128 c 4
416 1120 m 25
 432 976 l 25
 464 864 l 25
 512 752 l 25
 560 864 l 25
 592 976 l 25
 608 1120 l 25
 464 1120 l 25
 480 976 l 25
 512 864 l 25
 544 976 l 25
 560 1114 l 1049
416 1120 m 0
 416 1146 459 1168 512 1168 c 0
 565 1168 608 1146 608 1120 c 0
 608 1094 565 1072 512 1072 c 0
 459 1072 416 1094 416 1120 c 0
656 1120 m 1
 656 880 512 640 512 640 c 25
 512 640 368 880 368 1120 c 1025
368 1120 m 0
 368 1173 433 1216 512 1216 c 0
 591 1216 656 1173 656 1120 c 1024
368 128 m 0
 368 181 433 224 512 224 c 0
 591 224 656 181 656 128 c 0
 656 75 591 32 512 32 c 0
 433 32 368 75 368 128 c 0
EndSplineSet
Fore
SplineSet
320 128 m 0
 320 223.788073869 423.092573968 272 512 272 c 0
 600.908900441 272 704 223.788777738 704 128 c 0
 704 32.211926131 600.907426032 -16 512 -16 c 0
 423.091099559 -16 320 32.2112222619 320 128 c 0
704 1120 m 0
 704 862.471384093 554.564159309 617.647312513 553.170288832 615.321926382 c 0
 544.21886202 600.388312316 528.039171921 592.18560175 511.669630077 592.18560175 c 0
 502.098305352 592.18560175 492.462074507 594.989927374 484.167895874 600.892788645 c 0
 478.984440726 604.581787641 471.553955363 614.148300475 471.07132924 614.918835447 c 0
 468.58184758 619.072023438 320 862.75984502 320 1120 c 0
 320 1215.78807387 423.092573968 1264 512 1264 c 0
 600.908900441 1264 704 1215.78877774 704 1120 c 0
EndSplineSet
EndChar

StartChar: V
Encoding: 86 86 29
Width: 1024
VWidth: 0
Flags: HW
AnchorPoint: "top" 512 1272 basechar 0
LayerCount: 2
Back
SplineSet
208 1184 m 25
 480 48 l 25
 544 48 l 25
 816 1184 l 1049
640 1200 m 25
 960 1200 l 1049
64 1200 m 25
 384 1200 l 1049
EndSplineSet
Fore
SplineSet
592 1200 m 0
 592 1226.14447171 613.853633925 1248 640 1248 c 2
 960 1248 l 2
 986.144471708 1248 1008 1226.14636608 1008 1200 c 0
 1008 1173.85363392 986.144471708 1152 960 1152 c 2
 857.694771151 1152 l 1
 590.680551852 36.822966458 l 2
 585.990690414 17.2358980997 566.738139935 0 544 0 c 2
 512 0 l 1
 480 0 l 2
 459.859293777 0 438.614134663 14.7098639531 433.319448148 36.822966458 c 2
 166.305228849 1152 l 1
 64 1152 l 2
 37.8536339246 1152 16 1173.85552829 16 1200 c 0
 16 1226.14447171 37.8536339246 1248 64 1248 c 2
 384 1248 l 2
 410.144471708 1248 432 1226.14636608 432 1200 c 0
 432 1173.85363392 410.144471708 1152 384 1152 c 2
 265.018714813 1152 l 1
 512 120.489926571 l 1
 758.981285187 1152 l 1
 640 1152 l 2
 613.853633925 1152 592 1173.85552829 592 1200 c 0
EndSplineSet
EndChar

StartChar: Y
Encoding: 89 89 30
Width: 1024
VWidth: 0
Flags: HW
AnchorPoint: "top" 512 1272 basechar 0
LayerCount: 2
Back
SplineSet
192 1184 m 25
 512 624 l 29
 816 1184 l 1049
512 64 m 25
 512 624 l 1049
208 48 m 25
 816 48 l 1049
640 1200 m 25
 960 1200 l 1049
64 1200 m 25
 384 1200 l 1049
EndSplineSet
Fore
SplineSet
160 48 m 0
 160 74.1444717079 181.853633925 96 208 96 c 2
 464 96 l 1
 464 611.25290702 l 1
 155.001661155 1152 l 1
 64 1152 l 2
 37.8536339246 1152 16 1173.85552829 16 1200 c 0
 16 1226.14447171 37.8536339246 1248 64 1248 c 2
 384 1248 l 2
 410.144471708 1248 432 1226.14636608 432 1200 c 0
 432 1173.85363392 410.144471708 1152 384 1152 c 2
 265.569767417 1152 l 1
 510.92473586 722.628805225 l 1
 744.011955881 1152 l 1
 640 1152 l 2
 613.853633925 1152 592 1173.85552829 592 1200 c 0
 592 1226.14447171 613.853633925 1248 640 1248 c 2
 960 1248 l 2
 986.144471708 1248 1008 1226.14636608 1008 1200 c 0
 1008 1173.85363392 986.144471708 1152 960 1152 c 2
 853.245186976 1152 l 1
 560 611.811497675 l 1
 560 96 l 1
 816 96 l 2
 842.144471708 96 864 74.1463660754 864 48 c 0
 864 21.8536339246 842.144471708 0 816 0 c 2
 208 0 l 2
 181.853633925 0 160 21.8555282921 160 48 c 0
EndSplineSet
EndChar

StartChar: quoteright
Encoding: 8217 8217 31
Width: 1024
VWidth: 0
Flags: HW
LayerCount: 2
Back
SplineSet
656 1104 m 4
 656 864 368 624 368 624 c 1028
416 1104 m 4
 416 1130 459 1152 512 1152 c 4
 565 1152 608 1130 608 1104 c 4
 608 1078 565 1056 512 1056 c 4
 459 1056 416 1078 416 1104 c 4
368 1104 m 4
 368 1157 433 1200 512 1200 c 4
 591 1200 656 1157 656 1104 c 4
 656 1051 591 1008 512 1008 c 4
 433 1008 368 1051 368 1104 c 4
EndSplineSet
Fore
SplineSet
320 1104 m 0
 320 1183 406 1248 512 1248 c 0
 618 1248 704 1183 704 1104 c 0
 704 830.323242188 398.458007812 586.900390625 398.064453125 586.573242188 c 0
 388.924464538 579.474177215 378.310626381 576.090605885 367.879857287 576.090605885 c 0
 353.979386296 576.090605885 340.404033538 582.09959898 331.075195312 593.33203125 c 0
 323.743524872 602.158887158 320.069910994 612.977091332 320.069910994 623.836233794 c 0
 320.069910994 637.162581064 325.602452722 650.55058228 336.696289062 660.395507812 c 0
 341.159492196 664.115480957 504.963006534 806.931108215 575.846408959 968.21309873 c 1
 555.870013363 962.897720844 534.380789083 960 512 960 c 1
 406 960 320 1025 320 1104 c 0
EndSplineSet
Validated: 1
EndChar

StartChar: quoteleft
Encoding: 8216 8216 32
Width: 1024
VWidth: 0
Flags: HW
LayerCount: 2
Back
SplineSet
368 720 m 4
 368 960 656 1200 656 1200 c 1028
608 720 m 4
 608 694 565 672 512 672 c 4
 459 672 416 694 416 720 c 4
 416 746 459 768 512 768 c 4
 565 768 608 746 608 720 c 4
656 720 m 4
 656 667 591 624 512 624 c 4
 433 624 368 667 368 720 c 4
 368 773 433 816 512 816 c 4
 591 816 656 773 656 720 c 4
EndSplineSet
Fore
SplineSet
704 719.573242188 m 0
 704 640.573242188 618 575.573242188 512 575.573242188 c 0
 406 575.573242188 320 640.573242188 320 719.573242188 c 0
 320 993.25 625.541992188 1236.67285156 625.935546875 1237 c 0
 635.075535463 1244.09906497 645.68937362 1247.4826363 656.120142715 1247.4826363 c 0
 670.020613706 1247.4826363 683.595966462 1241.47364321 692.924804688 1230.24121094 c 0
 700.256475128 1221.41435503 703.930089006 1210.59615086 703.930089006 1199.7370084 c 0
 703.930089006 1186.41066113 698.397547278 1173.02265991 687.303710938 1163.17773438 c 0
 682.840507804 1159.45776123 519.036993466 1016.64213397 448.153591041 855.360143458 c 1
 468.129986637 860.675521344 489.619210917 863.573242188 512 863.573242188 c 1
 618 863.573242188 704 798.573242188 704 719.573242188 c 0
EndSplineSet
Validated: 1
EndChar

StartChar: quotedblleft
Encoding: 8220 8220 33
Width: 1024
VWidth: 0
Flags: HW
LayerCount: 2
Back
SplineSet
688 720 m 4
 688 746 710 768 736 768 c 4
 762 768 784 746 784 720 c 4
 784 694 762 672 736 672 c 4
 710 672 688 694 688 720 c 4
640 720 m 4
 640 773 683 816 736 816 c 4
 789 816 832 773 832 720 c 4
 832 667 789 624 736 624 c 4
 683 624 640 667 640 720 c 4
192 720 m 4
 192 960 384 1200 384 1200 c 1053
640 720 m 4
 640 960 832 1200 832 1200 c 1053
240 720 m 4
 240 746 262 768 288 768 c 4
 314 768 336 746 336 720 c 4
 336 694 314 672 288 672 c 4
 262 672 240 694 240 720 c 4
192 720 m 4
 192 773 235 816 288 816 c 4
 341 816 384 773 384 720 c 4
 384 667 341 624 288 624 c 4
 235 624 192 667 192 720 c 4
EndSplineSet
Fore
SplineSet
413.96875 1237.49511719 m 0
 425.879270677 1227.9753843 431.613434263 1214.01010845 431.613434263 1200.10658884 c 0
 431.613434263 1189.61813512 428.350235686 1179.16482565 422.013671875 1170.68164062 c 0
 419.473398152 1167.49273761 309.508685072 1025.25907977 261.75654769 860.379128559 c 1
 270.588030682 862.098614574 279.696943064 863 289 863 c 0
 368 863 433 798 433 719 c 0
 433 640 368 575 289 575 c 0
 213.429701423 575 150.670199254 634.478697605 145.363356069 708.7942291 c 0
 144.473097606 712.399331991 144.000001061 716.153240079 144 720 c 0
 144 982.662109375 343.994140625 1226.82714844 346.995117188 1230.58203125 c 0
 356.325063237 1241.50207033 370.378352195 1247.70602657 384.615588914 1247.70602657 c 0
 394.869905246 1247.70602657 405.219645337 1244.48769537 413.96875 1237.49511719 c 0
861.96875 1237.49511719 m 0
 873.879270677 1227.9753843 879.613434263 1214.01010845 879.613434263 1200.10658884 c 0
 879.613434263 1189.61813512 876.350235686 1179.16482565 870.013671875 1170.68164062 c 0
 867.473398152 1167.49273761 757.508685072 1025.25907977 709.75654769 860.379128559 c 1
 718.588030682 862.098614574 727.696943064 863 737 863 c 0
 816 863 881 798 881 719 c 0
 881 640 816 575 737 575 c 0
 661.429701423 575 598.670199254 634.478697605 593.363356069 708.7942291 c 0
 592.473097606 712.399331991 592.000001061 716.153240079 592 720 c 0
 592 982.662109375 791.994140625 1226.82714844 794.995117188 1230.58203125 c 0
 804.325063237 1241.50207033 818.378352195 1247.70602657 832.615588914 1247.70602657 c 0
 842.869905246 1247.70602657 853.219645337 1244.48769537 861.96875 1237.49511719 c 0
EndSplineSet
Validated: 1
EndChar

StartChar: quotedblright
Encoding: 8221 8221 34
Width: 1024
VWidth: 0
Flags: HW
LayerCount: 2
Back
SplineSet
336 1104 m 4
 336 1078 314 1056 288 1056 c 4
 262 1056 240 1078 240 1104 c 4
 240 1130 262 1152 288 1152 c 4
 314 1152 336 1130 336 1104 c 4
384 1104 m 4
 384 1051 341 1008 288 1008 c 4
 235 1008 192 1051 192 1104 c 4
 192 1157 235 1200 288 1200 c 4
 341 1200 384 1157 384 1104 c 4
832 1104 m 4
 832 864 640 624 640 624 c 1053
384 1104 m 4
 384 864 192 624 192 624 c 1053
784 1104 m 4
 784 1078 762 1056 736 1056 c 4
 710 1056 688 1078 688 1104 c 4
 688 1130 710 1152 736 1152 c 4
 762 1152 784 1130 784 1104 c 4
832 1104 m 4
 832 1051 789 1008 736 1008 c 4
 683 1008 640 1051 640 1104 c 4
 640 1157 683 1200 736 1200 c 4
 789 1200 832 1157 832 1104 c 4
EndSplineSet
Fore
SplineSet
611.03125 586 m 0
 599.120729323 595.519732889 593.386565737 609.485008735 593.386565737 623.388528347 c 0
 593.386565737 633.876982062 596.649764314 644.330291532 602.986328125 652.813476562 c 0
 605.526601848 656.002379575 715.491314928 798.236037414 763.24345231 963.115988629 c 1
 754.411969318 961.396502614 745.303056936 960.495117188 736 960.495117188 c 0
 657 960.495117188 592 1025.49511719 592 1104.49511719 c 0
 592 1183.49511719 657 1248.49511719 736 1248.49511719 c 0
 811.570298577 1248.49511719 874.329800746 1189.01641959 879.636643931 1114.70088809 c 0
 880.526902394 1111.0957852 880.999998939 1107.34187711 881 1103.49511719 c 0
 881 840.833007812 681.005859375 596.66796875 678.004882812 592.913085938 c 0
 668.674936763 581.993046863 654.621647806 575.789090615 640.384411087 575.789090615 c 0
 630.130094754 575.789090615 619.780354663 579.007421817 611.03125 586 c 0
163.03125 586 m 0
 151.120729323 595.519732889 145.386565737 609.485008735 145.386565737 623.388528347 c 0
 145.386565737 633.876982062 148.649764314 644.330291532 154.986328125 652.813476562 c 0
 157.526601848 656.002379575 267.491314928 798.236037414 315.24345231 963.115988629 c 1
 306.411969318 961.396502614 297.303056936 960.495117188 288 960.495117188 c 0
 209 960.495117188 144 1025.49511719 144 1104.49511719 c 0
 144 1183.49511719 209 1248.49511719 288 1248.49511719 c 0
 363.570298577 1248.49511719 426.329800746 1189.01641959 431.636643931 1114.70088809 c 0
 432.526902394 1111.0957852 432.999998939 1107.34187711 433 1103.49511719 c 0
 433 840.833007812 233.005859375 596.66796875 230.004882812 592.913085938 c 0
 220.674936763 581.993046863 206.621647806 575.789090615 192.384411087 575.789090615 c 0
 182.130094754 575.789090615 171.780354663 579.007421817 163.03125 586 c 0
EndSplineSet
Validated: 1
EndChar

StartChar: quotedbl
Encoding: 34 34 35
Width: 1024
VWidth: 0
Flags: HW
LayerCount: 2
Back
SplineSet
656 1168 m 3
 656 928 704 640 704 640 c 17
 704 640 752 928 752 1168 c 0
 752 1194 730 1216 704 1216 c 0
 678 1216 656 1194 656 1168 c 1024
272 1168 m 3
 272 928 320 640 320 640 c 17
 320 640 368 928 368 1168 c 0
 368 1194 346 1216 320 1216 c 0
 294 1216 272 1194 272 1168 c 1024
EndSplineSet
Fore
SplineSet
608 1168 m 0
 608 1220.86507605 651.134853272 1264 704 1264 c 0
 756.865076047 1264 800 1220.86514673 800 1168 c 0
 800 922.447600237 751.800476224 634.832392189 751.301905585 631.838616606 c 0
 748.08579831 613.82657176 734.218271619 598.049241496 715.575593199 593.416680646 c 0
 711.814586504 592.482099681 708.037060857 592.036573728 704.309295431 592.036573728 c 0
 681.496880725 592.036573728 660.547958596 608.721272584 656.652086798 632.114880127 c 0
 656.442966702 633.370587116 608 922.169962241 608 1168 c 0
224 1168 m 0
 224 1220.86507605 267.134853272 1264 320 1264 c 0
 372.865076047 1264 416 1220.86514673 416 1168 c 0
 416 922.447600237 367.800476224 634.832392189 367.301905585 631.838616606 c 0
 364.08579831 613.82657176 350.218271619 598.049241496 331.575593199 593.416680646 c 0
 327.814586504 592.482099681 324.037060857 592.036573728 320.309295431 592.036573728 c 0
 297.496880725 592.036573728 276.547958596 608.721272584 272.652086798 632.114880127 c 0
 272.442966702 633.370587116 224 922.169962241 224 1168 c 0
EndSplineSet
EndChar

StartChar: quotesingle
Encoding: 39 39 36
Width: 1024
VWidth: 0
Flags: HW
LayerCount: 2
Back
SplineSet
512 1152 m 25
 512 800 l 1049
608 1120 m 0
 608 880 512 640 512 640 c 1024
416 1120 m 0
 416 880 512 640 512 640 c 1024
416 1120 m 0
 416 1173 459 1216 512 1216 c 0
 565 1216 608 1173 608 1120 c 1024
EndSplineSet
Fore
SplineSet
512.001904263 592.01394576 m 0
 506.037162213 591.998415674 499.999213784 593.105080624 494.188789602 595.426905154 c 0
 483.823855586 599.568686674 475.600452284 607.015385783 470.389396493 616.200952666 c 0
 469.413137873 617.875716544 468.520023891 619.629391251 467.718361902 621.459409248 c 0
 466.111176743 625.48143891 368 867.668329114 368 1120 c 0
 368 1199.50961837 432.490286013 1264 512 1264 c 0
 591.509618369 1264 656 1199.50971399 656 1120 c 0
 656 867.668329114 557.888823257 625.48143891 556.281638098 621.459409248 c 0
 555.479975547 619.629391152 554.586861383 617.875716134 553.610602972 616.200951736 c 0
 548.399546741 607.015385519 540.176143644 599.568686773 529.811210398 595.426905154 c 0
 524.00202289 593.10557967 517.965407962 591.998891685 512.001904263 592.01394576 c 0
EndSplineSet
EndChar

StartChar: asterisk
Encoding: 42 42 37
Width: 1024
VWidth: 0
Flags: HW
LayerCount: 2
Back
SplineSet
322.143554688 1176.84082031 m 29
 440 1004.70800781 l 29
 349.856445312 1192.84082031 l 1053
328 1198.69726562 m 4
 320.206054688 1194.19726562 317.643554688 1184.63476562 322.143554688 1176.84082031 c 4
 326.643554688 1169.046875 336.206054688 1166.484375 344 1170.984375 c 4
 351.793945312 1175.484375 354.356445312 1185.046875 349.856445312 1192.84082031 c 4
 345.356445312 1200.63476562 335.793945312 1203.19726562 328 1198.69726562 c 4
674.143554688 567.159179688 m 29
 584 755.291992188 l 29
 701.856445312 583.159179688 l 1053
696 561.302734375 m 4
 688.206054688 556.802734375 678.643554688 559.365234375 674.143554688 567.159179688 c 4
 669.643554688 574.953125 672.206054688 584.515625 680 589.015625 c 4
 687.793945312 593.515625 697.356445312 590.953125 701.856445312 583.159179688 c 4
 706.356445312 575.365234375 703.793945312 565.802734375 696 561.302734375 c 4
674.143554688 1192.84082031 m 25
 584 1004.70800781 l 25
 701.856445312 1176.84082031 l 1049
696 1198.69726562 m 0
 688.206054688 1203.19726562 678.643554688 1200.63476562 674.143554688 1192.84082031 c 0
 669.643554688 1185.046875 672.206054688 1175.484375 680 1170.984375 c 0
 687.793945312 1166.484375 697.356445312 1169.046875 701.856445312 1176.84082031 c 0
 706.356445312 1184.63476562 703.793945312 1194.19726562 696 1198.69726562 c 0
322.143554688 583.159179688 m 25
 440 755.291992188 l 25
 349.856445312 567.159179688 l 1049
328 561.302734375 m 0
 320.206054688 565.802734375 317.643554688 575.365234375 322.143554688 583.159179688 c 0
 326.643554688 590.953125 336.206054688 593.515625 344 589.015625 c 0
 351.793945312 584.515625 354.356445312 574.953125 349.856445312 567.159179688 c 0
 345.356445312 559.365234375 335.793945312 556.802734375 328 561.302734375 c 0
864 896 m 25
 656 880 l 25
 864 864 l 1049
880 880 m 0
 880 889 873 896 864 896 c 0
 855 896 848 889 848 880 c 0
 848 871 855 864 864 864 c 0
 873 864 880 871 880 880 c 0
160 896 m 25
 368 880 l 25
 160 864 l 1049
144 880 m 0
 144 889 151 896 160 896 c 0
 169 896 176 889 176 880 c 0
 176 871 169 864 160 864 c 0
 151 864 144 871 144 880 c 0
EndSplineSet
Fore
SplineSet
303.999345681 1240.26610722 m 0
 313.990061228 1246.03445922 324.94538308 1248.77274681 335.777505749 1248.77274681 c 0
 357.95518203 1248.77274681 379.616426754 1237.29427691 391.425286913 1216.84147463 c 0
 392.665094144 1214.69414358 393.764924376 1212.50225152 394.72767467 1210.27659933 c 2
 483.287475844 1025.44913688 l 2
 486.357369811 1019.04215872 487.850739697 1012.04946457 487.850739697 1005.05442037 c 0
 487.850739697 990.877766714 481.716878804 976.691460466 470.141360787 967.351637939 c 0
 461.399093644 960.297852227 450.798129087 956.911196954 440.249083996 956.911196954 c 0
 424.887216618 956.911196954 409.635450414 964.092987214 400.393978122 977.590429913 c 2
 284.607130684 1146.70053371 l 2
 283.161683656 1148.64631742 281.813948004 1150.69382617 280.574713087 1152.84016599 c 0
 274.806361093 1162.83088153 272.068073499 1173.78620339 272.068073499 1184.61832606 c 0
 272.068073499 1206.79600234 283.546543401 1228.45724707 303.999345681 1240.26610722 c 0
720.000654319 519.733892772 m 0
 710.009938773 513.96554078 699.054616921 511.227253187 688.222494254 511.227253187 c 0
 666.044817969 511.227253187 644.38357324 522.705723088 632.574713085 543.158525369 c 0
 631.334905855 545.305856423 630.235075626 547.497748476 629.272325332 549.723400664 c 2
 540.712524156 734.55086312 l 2
 537.585158708 741.077786308 536.116746376 748.005470019 536.116746376 754.853853298 c 0
 536.116746376 774.113300481 547.730150555 792.745575071 566.71901482 800.073322575 c 0
 589.331045441 808.79923944 614.097748826 796.296683159 623.606021878 782.409570085 c 2
 739.392869317 613.299466286 l 2
 740.838316346 611.353682576 742.186051999 609.306173823 743.425286917 607.159834005 c 0
 749.193638907 597.169118459 751.9319265 586.213796607 751.9319265 575.38167394 c 0
 751.9319265 553.203997657 740.453456602 531.54275293 720.000654319 519.733892772 c 0
720.000654319 1240.26610722 m 0
 740.453456599 1228.45724707 751.931926501 1206.79600234 751.931926501 1184.61832606 c 0
 751.931926501 1173.78620339 749.193638907 1162.83088153 743.425286913 1152.84016599 c 0
 742.186051996 1150.69382617 740.838316344 1148.64631742 739.392869316 1146.70053371 c 2
 623.606021878 977.590429913 l 2
 614.672815072 964.543218044 599.322047804 956.808641699 583.582299128 956.808641699 c 0
 577.917921379 956.808641699 572.203166006 957.810359427 566.71901482 959.926677423 c 0
 547.730150555 967.254424927 536.116746376 985.886699517 536.116746376 1005.1461467 c 0
 536.116746376 1011.99452998 537.585158708 1018.92221369 540.712524156 1025.44913688 c 2
 629.27232533 1210.27659933 l 2
 630.235075624 1212.50225152 631.334905856 1214.69414358 632.574713087 1216.84147463 c 0
 644.383573246 1237.29427691 666.04481797 1248.77274681 688.222494251 1248.77274681 c 0
 699.05461692 1248.77274681 710.009938772 1246.03445922 720.000654319 1240.26610722 c 0
303.999345681 519.733892772 m 0
 283.546543399 531.54275293 272.0680735 553.203997655 272.0680735 575.381673939 c 0
 272.0680735 586.213796607 274.806361093 597.169118459 280.574713085 607.159834007 c 0
 281.813948003 609.306173826 283.161683657 611.353682579 284.607130686 613.29946629 c 2
 400.393978122 782.409570085 l 2
 409.635450414 795.907012784 424.887216618 803.088803044 440.249083996 803.088803044 c 0
 450.798129087 803.088803044 461.399093644 799.702147771 470.141360787 792.648362059 c 0
 489.004207695 777.428685305 490.559966011 749.728809382 483.287475844 734.55086312 c 2
 394.72767467 549.723400668 l 2
 393.764924377 547.497748479 392.665094147 545.305856426 391.425286917 543.158525371 c 0
 379.61642676 522.705723088 357.955182031 511.227253187 335.777505747 511.227253187 c 0
 324.945383079 511.227253187 313.990061228 513.96554078 303.999345681 519.733892772 c 0
928 880 m 0
 928 844.846209731 899.153790269 816 864 816 c 0
 861.521132644 816 859.073628827 816.14343364 856.665391166 816.422398303 c 2
 652.318568054 832.141384696 l 2
 630.878564542 833.790615735 612.013693199 850.630020192 608.577743684 872.575068627 c 0
 608.197883869 875.001193342 608.014213137 877.416618116 608.014213137 879.80552114 c 0
 608.014213137 904.257487389 627.257111692 925.930810969 652.318568054 927.858615304 c 2
 856.665391166 943.577601697 l 2
 859.073628827 943.85656636 861.521132644 944 864 944 c 0
 899.153790269 944 928 915.153790269 928 880 c 0
96 880 m 0
 96 915.153790269 124.846209731 944 160 944 c 0
 162.478867356 944 164.926371173 943.85656636 167.334608834 943.577601697 c 2
 371.681431946 927.858615304 l 2
 396.742888308 925.930810969 415.985786863 904.257487389 415.985786863 879.80552114 c 0
 415.985786863 877.416618116 415.802116131 875.001193342 415.422256316 872.575068627 c 0
 411.673088206 848.629525949 388.462216989 833.432214315 371.681431946 832.141384696 c 2
 167.334608834 816.422398303 l 2
 164.926371173 816.14343364 162.478867356 816 160 816 c 0
 124.846209731 816 96 844.846209731 96 880 c 0
EndSplineSet
EndChar

StartChar: parenleft
Encoding: 40 40 38
Width: 1024
VWidth: 0
Flags: HW
LayerCount: 2
Back
SplineSet
720 1392 m 4
 720 1392 336 1104 336 624 c 4
 336 144 720 -144 720 -144 c 1028
EndSplineSet
Fore
SplineSet
758.387586655 1420.8165437 m 0
 764.784097835 1412.29551391 767.71341274 1402.42261958 767.71341274 1392.65538834 c 0
 767.71341274 1377.90107666 761.029034312 1363.38787668 749.514359524 1354.13989967 c 0
 743.736873877 1349.77146114 384 1073.44624639 384 624 c 0
 384 174.063296519 744.538345283 -102.377464992 749.514359524 -106.139899672 c 0
 761.725038366 -115.946870281 767.931461543 -130.059010049 767.931461543 -144.173768987 c 0
 767.931461543 -154.240290941 764.774615927 -164.308145114 758.387586655 -172.8165437 c 0
 749.124115406 -185.156757329 734.836966462 -191.903726024 720.10344127 -191.903726024 c 0
 710.43378198 -191.903726024 700.571853329 -188.997578215 691.811621781 -182.859134129 c 0
 687.88368309 -179.910534678 288 117.508161619 288 624 c 0
 288 1129.95300951 687.015886231 1427.25910258 691.811621781 1430.85913413 c 0
 700.091413063 1436.6609255 710.053363897 1439.61521385 720.03479144 1439.61521385 c 0
 734.446782224 1439.61521385 748.899377885 1433.45613852 758.387586655 1420.8165437 c 0
EndSplineSet
EndChar

StartChar: parenright
Encoding: 41 41 39
Width: 1024
VWidth: 0
Flags: HW
LayerCount: 2
Back
SplineSet
304 1392 m 4
 304 1392 688 1104 688 624 c 4
 688 144 304 -144 304 -144 c 1028
EndSplineSet
Fore
SplineSet
265.612413345 1420.8165437 m 0
 275.100622115 1433.45613852 289.553217776 1439.61521385 303.96520856 1439.61521385 c 0
 313.946636103 1439.61521385 323.908586937 1436.6609255 332.188378219 1430.85913413 c 0
 336.984113769 1427.25910258 736 1129.95300951 736 624 c 0
 736 117.508161619 336.11631691 -179.910534678 332.188378219 -182.859134129 c 0
 323.428146671 -188.997578215 313.56621802 -191.903726024 303.89655873 -191.903726024 c 0
 289.163033538 -191.903726024 274.875884594 -185.156757329 265.612413345 -172.8165437 c 0
 259.225384073 -164.308145114 256.068538457 -154.240290941 256.068538457 -144.173768987 c 0
 256.068538457 -130.059010049 262.274961634 -115.946870281 274.485640476 -106.139899672 c 0
 279.461654717 -102.377464992 640 174.063296519 640 624 c 0
 640 1073.44624639 280.263126123 1349.77146114 274.485640476 1354.13989967 c 0
 262.970965688 1363.38787668 256.28658726 1377.90107666 256.28658726 1392.65538834 c 0
 256.28658726 1402.42261958 259.215902165 1412.29551391 265.612413345 1420.8165437 c 0
EndSplineSet
EndChar

StartChar: E
Encoding: 69 69 40
Width: 1024
VWidth: 0
Flags: HW
AnchorPoint: "top" 512 1272 basechar 0
LayerCount: 2
Back
SplineSet
592 672 m 25
 320 672 l 1049
608 480 m 25
 608 864 l 1049
96 48 m 25
 880 48 l 25
 880 384 l 1049
304 1184 m 25
 304 64 l 1049
96 1200 m 25
 864 1200 l 25
 864 864 l 1049
EndSplineSet
Fore
SplineSet
608 432 m 0
 581.855528292 432 560 453.853633925 560 480 c 2
 560 624 l 1
 352 624 l 1
 352 96 l 1
 832 96 l 1
 832 384 l 2
 832 410.144471708 853.853633925 432 880 432 c 0
 906.146366075 432 928 410.144471708 928 384 c 2
 928 48 l 2
 928 27.3985836813 909.054472683 0 880 0 c 2
 96 0 l 2
 69.8536339246 0 48 21.8555282921 48 48 c 0
 48 74.1444717079 69.8536339246 96 96 96 c 2
 256 96 l 1
 256 1152 l 1
 96 1152 l 2
 69.8536339246 1152 48 1173.85552829 48 1200 c 0
 48 1226.14447171 69.8536339246 1248 96 1248 c 2
 864 1248 l 2
 893.054472683 1248 912 1220.60141632 912 1200 c 2
 912 864 l 2
 912 837.855528292 890.146366075 816 864 816 c 0
 837.853633925 816 816 837.855528292 816 864 c 2
 816 1152 l 1
 352 1152 l 1
 352 720 l 1
 560 720 l 1
 560 864 l 2
 560 890.144471708 581.853633925 912 608 912 c 0
 634.146366075 912 656 890.144471708 656 864 c 2
 656 480 l 2
 656 453.853633925 634.144471708 432 608 432 c 0
EndSplineSet
EndChar

StartChar: F
Encoding: 70 70 41
Width: 1024
VWidth: 0
Flags: HW
AnchorPoint: "top" 512 1272 basechar 0
LayerCount: 2
Back
SplineSet
-312 694 m 1053
592 672 m 25
 320 672 l 1049
608 480 m 25
 608 864 l 1049
96 48 m 25
 512 48 l 1049
304 1184 m 25
 304 64 l 1049
96 1200 m 25
 880 1200 l 25
 880 864 l 1049
EndSplineSet
Fore
SplineSet
608 432 m 0
 581.855528292 432 560 453.853633925 560 480 c 2
 560 624 l 1
 352 624 l 1
 352 96 l 1
 512 96 l 2
 538.144471708 96 560 74.1463660754 560 48 c 0
 560 21.8536339246 538.144471708 0 512 0 c 2
 96 0 l 2
 69.8536339246 0 48 21.8555282921 48 48 c 0
 48 74.1444717079 69.8536339246 96 96 96 c 2
 256 96 l 1
 256 1152 l 1
 96 1152 l 2
 69.8536339246 1152 48 1173.85552829 48 1200 c 0
 48 1226.14447171 69.8536339246 1248 96 1248 c 2
 880 1248 l 2
 909.054472683 1248 928 1220.60141632 928 1200 c 2
 928 864 l 2
 928 837.855528292 906.146366075 816 880 816 c 0
 853.853633925 816 832 837.855528292 832 864 c 2
 832 1152 l 1
 352 1152 l 1
 352 720 l 1
 560 720 l 1
 560 864 l 2
 560 890.144471708 581.853633925 912 608 912 c 0
 634.146366075 912 656 890.144471708 656 864 c 2
 656 480 l 2
 656 453.853633925 634.144471708 432 608 432 c 0
EndSplineSet
EndChar

StartChar: K
Encoding: 75 75 42
Width: 1024
VWidth: 0
Flags: HW
AnchorPoint: "top" 512 1272 basechar 0
LayerCount: 2
Back
SplineSet
808 64 m 25
 433 731 l 1053
784 1184 m 25
 260 516 l 1049
256 1184 m 25
 256 64 l 1049
416 48 m 25
 96 48 l 1049
944 48 m 25
 624 48 l 1049
592 1200 m 25
 912 1200 l 1049
96 1200 m 25
 416 1200 l 1049
EndSplineSet
Fore
SplineSet
464 48 m 0
 464 21.8555282921 442.146366075 0 416 0 c 2
 96 0 l 2
 69.8555282921 0 48 21.8536339246 48 48 c 0
 48 74.1463660754 69.8555282921 96 96 96 c 2
 208 96 l 1
 208 1152 l 1
 96 1152 l 2
 69.8536339246 1152 48 1173.85552829 48 1200 c 0
 48 1226.14447171 69.8536339246 1248 96 1248 c 2
 416 1248 l 2
 442.144471708 1248 464 1226.14636608 464 1200 c 0
 464 1173.85363392 442.144471708 1152 416 1152 c 2
 304 1152 l 1
 304 649.862541472 l 1
 697.892257887 1152 l 1
 592 1152 l 2
 565.853633925 1152 544 1173.85552829 544 1200 c 0
 544 1226.14447171 565.853633925 1248 592 1248 c 2
 912 1248 l 2
 938.144471708 1248 960 1226.14636608 960 1200 c 0
 960 1173.85363392 938.144471708 1152 912 1152 c 2
 819.904149299 1152 l 1
 488.730956498 729.81738017 l 1
 845.075060791 96 l 1
 944 96 l 2
 970.146366075 96 992 74.1444717079 992 48 c 0
 992 21.8555282921 970.146366075 0 944 0 c 2
 624 0 l 2
 597.855528292 0 576 21.8536339246 576 48 c 0
 576 74.1463660754 597.855528292 96 624 96 c 2
 734.942930213 96 l 1
 424.578377376 648.035084648 l 1
 304 494.320664635 l 1
 304 96 l 1
 416 96 l 2
 442.146366075 96 464 74.1444717079 464 48 c 0
EndSplineSet
EndChar

StartChar: L
Encoding: 76 76 43
Width: 1024
VWidth: 0
Flags: HW
AnchorPoint: "top" 512 1272 basechar 0
LayerCount: 2
Back
SplineSet
304 1184 m 25
 304 64 l 1049
96 1200 m 25
 544 1200 l 1049
96 48 m 25
 880 48 l 25
 880 432 l 1049
EndSplineSet
Fore
SplineSet
48 1200 m 0
 48 1226.14447171 69.8536339246 1248 96 1248 c 2
 544 1248 l 2
 570.144471708 1248 592 1226.14636608 592 1200 c 0
 592 1173.85363392 570.144471708 1152 544 1152 c 2
 352 1152 l 1
 352 96 l 1
 832 96 l 1
 832 432 l 2
 832 458.144471708 853.853633925 480 880 480 c 0
 906.146366075 480 928 458.144471708 928 432 c 2
 928 48 l 2
 928 27.3985836813 909.054472683 0 880 0 c 2
 96 0 l 2
 69.8536339246 0 48 21.8555282921 48 48 c 0
 48 74.1444717079 69.8536339246 96 96 96 c 2
 256 96 l 1
 256 1152 l 1
 96 1152 l 2
 69.8536339246 1152 48 1173.85552829 48 1200 c 0
EndSplineSet
EndChar

StartChar: X
Encoding: 88 88 44
Width: 1024
VWidth: 0
Flags: HW
AnchorPoint: "top" 512 1272 basechar 0
LayerCount: 2
Back
SplineSet
236 1184 m 25
 804 64 l 1049
220 64 m 25
 788 1184 l 1053
624 48 m 25
 944 48 l 1049
80 48 m 25
 400 48 l 1049
608 1200 m 25
 928 1200 l 1049
96 1200 m 25
 416 1200 l 1049
EndSplineSet
Fore
SplineSet
576 48 m 0
 576 74.1444717079 597.853633925 96 624 96 c 2
 733.951593066 96 l 1
 512 533.65102858 l 1
 290.048406934 96 l 1
 400 96 l 2
 426.144471708 96 448 74.1463660754 448 48 c 0
 448 21.8536339246 426.144471708 0 400 0 c 2
 80 0 l 2
 53.8536339246 0 32 21.8555282921 32 48 c 0
 32 74.1444717079 53.8536339246 96 80 96 c 2
 182.408735923 96 l 1
 458.180164494 639.774647887 l 1
 198.408735923 1152 l 1
 96 1152 l 2
 69.8536339246 1152 48 1173.85552829 48 1200 c 0
 48 1226.14447171 69.8536339246 1248 96 1248 c 2
 416 1248 l 2
 442.144471708 1248 464 1226.14636608 464 1200 c 0
 464 1173.85363392 442.144471708 1152 416 1152 c 2
 306.048406934 1152 l 1
 512 745.898267195 l 1
 717.951593066 1152 l 1
 608 1152 l 2
 581.853633925 1152 560 1173.85552829 560 1200 c 0
 560 1226.14447171 581.853633925 1248 608 1248 c 2
 928 1248 l 2
 954.144471708 1248 976 1226.14636608 976 1200 c 0
 976 1173.85363392 954.144471708 1152 928 1152 c 2
 825.591264077 1152 l 1
 565.819835506 639.774647887 l 1
 841.591264077 96 l 1
 944 96 l 2
 970.144471708 96 992 74.1463660754 992 48 c 0
 992 21.8536339246 970.144471708 0 944 0 c 2
 624 0 l 2
 597.853633925 0 576 21.8555282921 576 48 c 0
EndSplineSet
EndChar

StartChar: M
Encoding: 77 77 45
Width: 1024
VWidth: 0
Flags: HW
AnchorPoint: "top" 512 1272 basechar 0
LayerCount: 2
Back
SplineSet
816 64 m 25
 816 1184 l 1053
208 1184 m 25
 208 64 l 1049
944 1200 m 25
 752 1200 l 25
 512 432 l 25
 272 1200 l 25
 80 1200 l 1049
656 48 m 25
 944 48 l 1049
80 48 m 25
 368 48 l 1049
EndSplineSet
Fore
SplineSet
992 1200 m 0
 992 1173.85552829 970.146366075 1152 944 1152 c 2
 864 1152 l 1
 864 96 l 1
 944 96 l 2
 970.144471708 96 992 74.1463660754 992 48 c 0
 992 21.8536339246 970.144471708 0 944 0 c 2
 656 0 l 2
 629.853633925 0 608 21.8555282921 608 48 c 0
 608 74.1444717079 629.853633925 96 656 96 c 2
 768 96 l 1
 768 1090.2746757 l 1
 557.815038946 417.682800329 l 2
 551.416910871 397.20879049 531.954613069 384.088365066 511.575254917 384.088365066 c 0
 505.741136731 384.088365066 499.831861905 385.163634644 494.132418788 387.449472039 c 0
 480.04075198 393.101122258 469.260385714 407.841441419 466.184961054 417.682800329 c 2
 256 1090.2746757 l 1
 256 96 l 1
 368 96 l 2
 394.144471708 96 416 74.1463660754 416 48 c 0
 416 21.8536339246 394.144471708 0 368 0 c 2
 80 0 l 2
 53.8536339246 0 32 21.8555282921 32 48 c 0
 32 74.1444717079 53.8536339246 96 80 96 c 2
 160 96 l 1
 160 1152 l 1
 80 1152 l 2
 53.8555282921 1152 32 1173.85363392 32 1200 c 0
 32 1226.14636608 53.8555282921 1248 80 1248 c 2
 272 1248 l 2
 291.312054664 1248 311.445235748 1234.7005699 317.815038946 1214.31719967 c 2
 512 592.925324297 l 1
 706.184961054 1214.31719967 l 2
 711.945264027 1232.75016918 730.644528224 1248 752 1248 c 2
 944 1248 l 2
 970.146366075 1248 992 1226.14447171 992 1200 c 0
EndSplineSet
EndChar

StartChar: N
Encoding: 78 78 46
Width: 1024
VWidth: 0
Flags: HW
AnchorPoint: "top" 512 1272 basechar 0
LayerCount: 2
Back
SplineSet
608 1200 m 25
 928 1200 l 1049
96 1200 m 25
 304 1200 l 25
 768 64 l 25
 768 1184 l 1049
256 64 m 25
 256 1184 l 1049
96 48 m 25
 416 48 l 1049
EndSplineSet
Fore
SplineSet
560 1200 m 0
 560 1226.14447171 581.853633925 1248 608 1248 c 2
 928 1248 l 2
 954.144471708 1248 976 1226.14636608 976 1200 c 0
 976 1173.85363392 954.144471708 1152 928 1152 c 2
 816 1152 l 1
 816 64 l 2
 816 46.7431110907 805.865182436 29.3213762369 789.580392521 21.1247547106 c 0
 782.821403121 17.7227533151 775.589104439 16.1252676591 768.4362686 16.1252676591 c 0
 749.507633839 16.1252676591 731.135474721 27.3124066546 723.5637833 45.8499959956 c 2
 304 1073.05787925 l 1
 304 96 l 1
 416 96 l 2
 442.144471708 96 464 74.1463660754 464 48 c 0
 464 21.8536339246 442.144471708 0 416 0 c 2
 96 0 l 2
 69.8536339246 0 48 21.8555282921 48 48 c 0
 48 74.1444717079 69.8536339246 96 96 96 c 2
 208 96 l 1
 208 1152 l 1
 96 1152 l 2
 69.8536339246 1152 48 1173.85552829 48 1200 c 0
 48 1226.14447171 69.8536339246 1248 96 1248 c 2
 304 1248 l 2
 323.829955373 1248 341.682481568 1234.68501071 348.4362167 1218.150004 c 2
 720 308.459362133 l 1
 720 1152 l 1
 608 1152 l 2
 581.853633925 1152 560 1173.85552829 560 1200 c 0
EndSplineSet
EndChar

StartChar: W
Encoding: 87 87 47
Width: 1024
VWidth: 0
Flags: HW
AnchorPoint: "top" 512 1272 basechar 0
LayerCount: 2
Back
SplineSet
192 1184 m 25
 256 48 l 25
 320 48 l 25
 512 816 l 25
 704 48 l 25
 768 48 l 25
 832 1184 l 1049
656 1200 m 25
 944 1200 l 1049
80 1200 m 25
 368 1200 l 1049
EndSplineSet
Fore
SplineSet
608 1200 m 0
 608 1226.14447171 629.853633925 1248 656 1248 c 2
 944 1248 l 2
 970.144471708 1248 992 1226.14636608 992 1200 c 0
 992 1173.85363392 970.144471708 1152 944 1152 c 2
 878.273298112 1152 l 1
 815.924005494 45.3000560285 l 2
 814.642881202 22.5600998569 794.326269372 0 768 0 c 2
 740 0 l 1
 704 0 l 2
 684.49112936 0 662.951519727 14.284851061 657.433159993 36.3582899983 c 2
 512 618.09092997 l 1
 366.566840007 36.3582899983 l 2
 361.835243872 17.4319054602 342.752780065 0 320 0 c 2
 283 0 l 1
 256 0 l 2
 233.22398441 0 209.556816429 19.0154669038 208.075994506 45.3000560285 c 2
 145.726701888 1152 l 1
 80 1152 l 2
 53.8536339246 1152 32 1173.85552829 32 1200 c 0
 32 1226.14447171 53.8536339246 1248 80 1248 c 2
 368 1248 l 2
 394.144471708 1248 416 1226.14636608 416 1200 c 0
 416 1173.85363392 394.144471708 1152 368 1152 c 2
 241.878931915 1152 l 1
 297.905377998 157.530582021 l 1
 465.433159993 827.641710002 l 2
 470.86825834 849.38210339 491.002429396 863.935299495 512.389098729 863.935299495 c 0
 517.334286497 863.935299495 522.34644058 863.157195501 527.259322882 861.509922711 c 0
 543.006606682 856.22991181 554.94449982 842.131070751 558.566840007 827.641710002 c 2
 726.094622002 157.530582021 l 1
 782.121068085 1152 l 1
 656 1152 l 2
 629.853633925 1152 608 1173.85552829 608 1200 c 0
EndSplineSet
EndChar

StartChar: Z
Encoding: 90 90 48
Width: 1024
VWidth: 0
Flags: HW
AnchorPoint: "top" 512 1272 basechar 0
LayerCount: 2
Back
SplineSet
160 864 m 25
 160 1200 l 25
 864 1200 l 25
 128 48 l 25
 896 48 l 25
 896 432 l 1053
EndSplineSet
Fore
SplineSet
160 816 m 0
 133.855528292 816 112 837.853633925 112 864 c 2
 112 1200 l 2
 112 1229.05447268 139.398583681 1248 160 1248 c 2
 864 1248 l 2
 890.354847908 1248 911.996663789 1225.86558223 911.996663789 1199.91016483 c 0
 911.996663789 1190.42088032 906.702675194 1177.68414818 904.449420471 1174.1573147 c 2
 215.626691635 96 l 1
 848 96 l 1
 848 432 l 2
 848 458.144471708 869.853633925 480 896 480 c 0
 922.146366075 480 944 458.144471708 944 432 c 2
 944 48 l 2
 944 27.3985836813 925.054472683 0 896 0 c 2
 128 0 l 2
 121.439361805 0 112.336238768 1.95374428384 105.410518623 5.64772342475 c 0
 89.2843905916 14.2489344647 80.1677223989 31.1757627204 80.1677223989 48.3822124784 c 0
 80.1677223989 57.1514407425 82.5356932779 65.9932981252 87.550579529 73.8426853009 c 2
 776.373308365 1152 l 1
 208 1152 l 1
 208 864 l 2
 208 837.853633925 186.144471708 816 160 816 c 0
EndSplineSet
EndChar

StartChar: A
Encoding: 65 65 49
Width: 1024
VWidth: 0
Flags: HW
AnchorPoint: "top" 512 1272 basechar 0
LayerCount: 2
Back
SplineSet
336 528 m 25
 688 528 l 1049
208 64 m 25
 480 1200 l 25
 544 1200 l 25
 816 64 l 1049
64 48 m 25
 384 48 l 1041
640 48 m 9
 960 48 l 1049
EndSplineSet
Fore
SplineSet
16 48 m 0
 16 74.1444717079 37.8536339246 96 64 96 c 2
 166.305228849 96 l 1
 433.319448148 1211.17703354 l 2
 438.614134663 1233.29013605 459.859293777 1248 480 1248 c 2
 512 1248 l 1
 544 1248 l 2
 566.738139935 1248 585.990690414 1230.7641019 590.680551852 1211.17703354 c 2
 857.694771151 96 l 1
 960 96 l 2
 986.144471708 96 1008 74.1463660754 1008 48 c 0
 1008 21.8536339246 986.144471708 0 960 0 c 2
 640 0 l 2
 613.853633925 0 592 21.8555282921 592 48 c 0
 592 74.1444717079 613.853633925 96 640 96 c 2
 758.981285187 96 l 1
 667.037623215 480 l 1
 356.962376785 480 l 1
 265.018714813 96 l 1
 384 96 l 2
 410.144471708 96 432 74.1463660754 432 48 c 0
 432 21.8536339246 410.144471708 0 384 0 c 2
 64 0 l 2
 37.8536339246 0 16 21.8555282921 16 48 c 0
379.948292277 576 m 1
 644.051707723 576 l 1
 512 1127.51007343 l 1
 379.948292277 576 l 1
EndSplineSet
EndChar

StartChar: T
Encoding: 84 84 50
Width: 1024
VWidth: 0
Flags: HW
AnchorPoint: "top" 512 1272 basechar 0
LayerCount: 2
Back
SplineSet
272 48 m 25
 752 48 l 1049
512 1184 m 25
 512 64 l 1049
144 816 m 25
 144 1200 l 25
 880 1200 l 25
 880 816 l 1049
EndSplineSet
Fore
SplineSet
224 48 m 0
 224 74.1444717079 245.853633925 96 272 96 c 2
 464 96 l 1
 464 1152 l 1
 192 1152 l 1
 192 816 l 2
 192 789.853633925 170.144471708 768 144 768 c 0
 117.855528292 768 96 789.853633925 96 816 c 2
 96 1200 l 2
 96 1229.05447268 123.398583681 1248 144 1248 c 2
 880 1248 l 2
 909.054472683 1248 928 1220.60141632 928 1200 c 2
 928 816 l 2
 928 789.855528292 906.146366075 768 880 768 c 0
 853.853633925 768 832 789.855528292 832 816 c 2
 832 1152 l 1
 560 1152 l 1
 560 96 l 1
 752 96 l 2
 778.144471708 96 800 74.1463660754 800 48 c 0
 800 21.8536339246 778.144471708 0 752 0 c 2
 272 0 l 2
 245.853633925 0 224 21.8555282921 224 48 c 0
EndSplineSet
EndChar

StartChar: bracketleft
Encoding: 91 91 51
Width: 1024
VWidth: 0
Flags: HW
LayerCount: 2
Back
SplineSet
720 1392 m 25
 336 1392 l 25
 336 -144 l 25
 720 -144 l 1053
EndSplineSet
Fore
SplineSet
768 1392 m 0
 768 1365.85552829 746.146366075 1344 720 1344 c 2
 384 1344 l 1
 384 -96 l 1
 720 -96 l 2
 746.144471708 -96 768 -117.853633925 768 -144 c 0
 768 -170.146366075 746.144471708 -192 720 -192 c 2
 336 -192 l 2
 315.398583681 -192 288 -173.054472683 288 -144 c 2
 288 1392 l 2
 288 1412.60141632 306.945527317 1440 336 1440 c 2
 720 1440 l 2
 746.146366075 1440 768 1418.14447171 768 1392 c 0
EndSplineSet
EndChar

StartChar: bracketright
Encoding: 93 93 52
Width: 1024
VWidth: 0
Flags: HW
LayerCount: 2
Back
SplineSet
-262 -178 m 1053
304 1392 m 25
 688 1392 l 25
 688 -144 l 25
 304 -144 l 1049
EndSplineSet
Fore
SplineSet
256 1392 m 0
 256 1418.14447171 277.853633925 1440 304 1440 c 2
 688 1440 l 2
 717.054472683 1440 736 1412.60141632 736 1392 c 2
 736 -144 l 2
 736 -173.054472683 708.601416319 -192 688 -192 c 2
 304 -192 l 2
 277.855528292 -192 256 -170.146366075 256 -144 c 0
 256 -117.853633925 277.855528292 -96 304 -96 c 2
 640 -96 l 1
 640 1344 l 1
 304 1344 l 2
 277.853633925 1344 256 1365.85552829 256 1392 c 0
EndSplineSet
EndChar

StartChar: numbersign
Encoding: 35 35 53
Width: 1024
VWidth: 0
Flags: HW
LayerCount: 2
Back
SplineSet
768 1392 m 29
 512 -144 l 1053
256 -144 m 29
 512 1392 l 1053
880 480 m 29
 144 480 l 1053
144 768 m 29
 880 768 l 1053
EndSplineSet
Fore
SplineSet
775.891151391 1439.34690834 m 0
 799.107176763 1435.47757078 815.982966875 1414.70981145 815.982966875 1391.78836297 c 0
 815.982966875 1389.24828434 815.775726523 1386.68175768 815.346908344 1384.10884861 c 2
 720.662100242 816 l 1
 880 816 l 2
 906.144471708 816 928 794.146366075 928 768 c 0
 928 741.853633925 906.144471708 720 880 720 c 2
 704.662100242 720 l 1
 672.662100242 528 l 1
 880 528 l 2
 906.146366075 528 928 506.144471708 928 480 c 0
 928 453.855528292 906.146366075 432 880 432 c 2
 656.662100242 432 l 1
 559.346908344 -151.891151391 l 2
 555.477570782 -175.107176763 534.709811448 -191.982966875 511.78836297 -191.982966875 c 0
 509.248284339 -191.982966875 506.681757685 -191.775726523 504.108848609 -191.346908344 c 0
 480.891215737 -187.477302865 464.017058438 -166.708374754 464.017058438 -143.788122544 c 0
 464.017058438 -141.248094587 464.2242921 -138.681645946 464.653091656 -136.108848609 c 2
 559.337899758 432 l 1
 400.662100242 432 l 1
 303.346908344 -151.891151391 l 2
 299.477302865 -175.108784263 278.708374754 -191.982941562 255.788122544 -191.982941562 c 0
 253.248094587 -191.982941562 250.681645946 -191.7757079 248.108848609 -191.346908344 c 0
 224.892823237 -187.477570782 208.017033125 -166.709811448 208.017033125 -143.78836297 c 0
 208.017033125 -141.248284339 208.224273477 -138.681757685 208.653091656 -136.108848609 c 2
 303.337899758 432 l 1
 144 432 l 2
 117.855528292 432 96 453.853633925 96 480 c 0
 96 506.146366075 117.855528292 528 144 528 c 2
 319.337899758 528 l 1
 351.337899758 720 l 1
 144 720 l 2
 117.853633925 720 96 741.855528292 96 768 c 0
 96 794.144471708 117.853633925 816 144 816 c 2
 367.337899758 816 l 1
 464.653091656 1399.89115139 l 2
 468.522429218 1423.10717676 489.290188552 1439.98296687 512.21163703 1439.98296687 c 0
 514.751715661 1439.98296687 517.318242315 1439.77572652 519.891151391 1439.34690834 c 0
 543.108784263 1435.47730287 559.982941562 1414.70837475 559.982941562 1391.78812254 c 0
 559.982941562 1389.24809459 559.7757079 1386.68164595 559.346908344 1384.10884861 c 2
 464.662100242 816 l 1
 623.337899758 816 l 1
 720.653091656 1399.89115139 l 2
 724.522697135 1423.10878426 745.291625246 1439.98294156 768.211877456 1439.98294156 c 0
 770.751905413 1439.98294156 773.318354054 1439.7757079 775.891151391 1439.34690834 c 0
416.662100242 528 m 1
 575.337899758 528 l 1
 607.337899758 720 l 1
 448.662100242 720 l 1
 416.662100242 528 l 1
EndSplineSet
EndChar

StartChar: percent
Encoding: 37 37 54
Width: 1024
VWidth: 0
Flags: HW
LayerCount: 2
Back
SplineSet
342.910838865 1205.12535906 m 17
 630.910838865 1205.12535906 896 1392 896 1392 c 25
 128 -144 l 1049
595.291992188 296 m 0
 634.775356203 364.38729334 699.949804128 405.125359062 758.910838865 405.125359062 c 0
 779.095411879 405.125359062 798.551804175 400.351063022 816 390.27734375 c 0
 856.078263542 367.138150457 877.239924261 320.842732353 877.239924261 268.00758038 c 0
 877.239924261 230.649937969 866.660482634 190.022857793 844.708007812 152 c 0
 805.224643797 83.6127066599 740.050195872 42.8746409379 681.089161135 42.8746409379 c 0
 660.904588121 42.8746409379 641.448195825 47.6489369783 624 57.72265625 c 0
 583.921736458 80.8618495434 562.760075739 127.157267647 562.760075739 179.99241962 c 0
 562.760075739 217.350062031 573.339517366 257.977142207 595.291992188 296 c 0
179.291992188 1096 m 0
 218.775356203 1164.38729334 283.949804128 1205.12535906 342.910838865 1205.12535906 c 0
 363.095411879 1205.12535906 382.551804175 1200.35106302 400 1190.27734375 c 0
 440.078263542 1167.13815046 461.239924261 1120.84273235 461.239924261 1068.00758038 c 0
 461.239924261 1030.64993797 450.660482634 990.022857793 428.708007812 952 c 0
 389.224643797 883.61270666 324.050195872 842.874640938 265.089161135 842.874640938 c 0
 244.904588121 842.874640938 225.448195825 847.648936978 208 857.72265625 c 0
 167.921736458 880.861849543 146.760075739 927.157267647 146.760075739 979.99241962 c 0
 146.760075739 1017.35006203 157.339517366 1057.97714221 179.291992188 1096 c 0
EndSplineSet
Fore
SplineSet
553.410628509 319.965260443 m 0
 599.238305661 399.869928298 678.389987809 453 759 453 c 0
 786.83536314 453 815.377609186 446.054816968 840.132380099 431.493187019 c 0
 898.608726464 397.869287859 925 332.773908426 925 268 c 0
 925 222.501472244 912.8230367 173.347434009 886.589371491 128.034739557 c 0
 840.761694339 48.1300717019 761.610012191 -5 681 -5 c 0
 653.16463686 -5 624.622390814 1.94518303205 599.867619901 16.5068129808 c 0
 541.391273536 50.1307121406 515 115.226091574 515 180 c 0
 515 225.541316227 527.073224197 274.473380268 553.410628509 319.965260443 c 0
636.589371491 272.034739557 m 0
 618.909287132 241.496412027 611 208.458683773 611 180 c 0
 611 138.773908426 626.608726464 111.869287859 648.132380099 99.4931870192 c 0
 657.377609186 94.0548169679 668.83536314 91 681 91 c 0
 718.389987809 91 771.238305661 119.869928298 803.410628509 175.965260443 c 0
 821.1769633 206.652565991 829 239.498527756 829 268 c 0
 829 309.226091574 813.391273536 336.130712141 791.867619901 348.506812981 c 0
 782.622390814 353.945183032 771.16463686 357 759 357 c 0
 721.610012191 357 668.761694339 328.130071702 636.589371491 272.034739557 c 0
220.589371491 1072.03473956 m 0
 202.909287132 1041.49641203 195 1008.45868377 195 980 c 0
 195 938.773908426 210.608726464 911.869287859 232.132380099 899.493187019 c 0
 241.377609186 894.054816968 252.83536314 891 265 891 c 0
 302.389987809 891 355.238305661 919.869928298 387.410628509 975.965260443 c 0
 405.1769633 1006.65256599 413 1039.49852776 413 1068 c 0
 413 1109.22609157 397.391273536 1136.13071214 375.867619901 1148.50681298 c 0
 366.622390814 1153.94518303 355.16463686 1157 343 1157 c 0
 305.610012191 1157 252.761694339 1128.1300717 220.589371491 1072.03473956 c 0
484.03490461 1170.00123534 m 1
 500.99533501 1139.44381259 509 1103.67315405 509 1068 c 0
 509 1022.50147224 496.8230367 973.347434009 470.589371491 928.034739557 c 0
 424.761694339 848.130071702 345.610012191 795 265 795 c 0
 237.16463686 795 208.622390814 801.945183032 183.867619901 816.506812981 c 0
 125.391273536 850.130712141 99 915.226091574 99 980 c 0
 99 1025.54131623 111.073224197 1074.47338027 137.410628509 1119.96526044 c 0
 183.238305661 1199.8699283 262.389987809 1253 343 1253 c 0
 610.158172568 1253 864.794657581 1428.74094705 869.928177169 1432.34379232 c 0
 878.664641517 1437.52798273 887.790500702 1439.92807381 896.546216761 1439.92807381 c 0
 913.209922591 1439.92807381 928.532934844 1431.23471579 937.279378794 1416.49516047 c 0
 945.758887906 1402.2054452 945.491645242 1383.65202756 938.932505168 1370.53374742 c 2
 170.932505168 -165.466252584 l 2
 162.601382297 -182.128498325 145.320105594 -191.881094911 127.612920117 -191.881094911 c 0
 120.469277496 -191.881094911 113.256315131 -190.293789025 106.533747416 -186.932505168 c 0
 89.87058111 -178.600922015 80.1189767208 -161.319493053 80.1189767208 -143.612942695 c 0
 80.1189767208 -136.46912868 81.7063111467 -129.256114787 85.067494832 -122.533747416 c 2
 781.943149228 1271.21756138 l 1
 704.892027366 1233.32024473 600.478730738 1190.86232255 484.03490461 1170.00123534 c 1
EndSplineSet
EndChar

StartChar: three
Encoding: 51 51 55
Width: 1024
VWidth: 0
Flags: HW
LayerCount: 2
Back
SplineSet
512 672 m 29
 416 672 l 1053
512 32 m 4
 309 32 144 125 144 240 c 1028
512 672 m 4
 715 672 880 529 880 352 c 4
 880 175 715 32 512 32 c 1028
144 240 m 29
 144 288 l 1053
144 288 m 4
 144 314 166 336 192 336 c 4
 218 336 240 314 240 288 c 4
 240 262 218 240 192 240 c 4
 166 240 144 262 144 288 c 4
200 992 m 4
 200 1018 222 1040 248 1040 c 4
 274 1040 296 1018 296 992 c 4
 296 966 274 944 248 944 c 4
 222 944 200 966 200 992 c 4
200 1040 m 29
 200 992 l 1053
200 1040 m 4
 200 1137 340 1216 512 1216 c 1028
512 1216 m 4
 684 1216 824 1094 824 944 c 4
 824 794 684 672 512 672 c 1028
EndSplineSet
Fore
SplineSet
512 80 m 0
 694.28505262 80 832 207.231880583 832 352 c 0
 832 496.768192874 694.285109543 624 512 624 c 2
 416 624 l 2
 389.855528292 624 368 645.853633925 368 672 c 0
 368 698.146366075 389.855528292 720 416 720 c 2
 512 720 l 2
 663.116449403 720 776 826.13403844 776 944 c 0
 776 1061.86585313 663.116383555 1168 512 1168 c 0
 390.591051594 1168 307.140238336 1126.62608371 269.935714756 1085.4629892 c 1
 312.295288886 1075.49377638 344 1037.32278608 344 992 c 1
 344 939.134853272 300.865076047 896 248 896 c 0
 195.134853272 896 152 939.134923953 152 992 c 2
 152 1040 l 2
 152 1185.78957592 336.601121885 1264 512 1264 c 0
 704.883616445 1264 872 1126.13414687 872 944 c 0
 872 829.464898405 805.913283259 732.435744715 708.890735649 676.188546949 c 1
 837.711335916 615.05321763 928 495.374360122 928 352 c 0
 928 142.768119417 735.71494738 -16 512 -16 c 0
 305.530245989 -16 96 76.2951718233 96 240 c 2
 96 288 l 2
 96 340.865146728 139.134923953 384 192 384 c 0
 244.865146728 384 288 340.865076047 288 288 c 0
 288 240.958444981 253.84506275 201.621495232 209.0718677 193.525680799 c 1
 248.87030562 136.990358302 356.393244549 80 512 80 c 0
EndSplineSet
EndChar

StartChar: four
Encoding: 52 52 56
Width: 1024
VWidth: 0
Flags: HW
LayerCount: 2
Back
SplineSet
384 48 m 25
 928 48 l 1049
944 480 m 25
 112 480 l 25
 656 1200 l 25
 656 64 l 1049
EndSplineSet
Fore
SplineSet
336 48 m 0
 336 74.1444717079 357.853633925 96 384 96 c 2
 608 96 l 1
 608 432 l 1
 112 432 l 2
 85.6451520917 432 64.0033362114 454.134417773 64.0033362114 480.089835167 c 0
 64.0033362114 491.19715285 70.3680097902 504.522866523 73.7023684517 508.935988281 c 2
 617.702368452 1228.93598828 l 2
 627.070262025 1241.33467095 641.590349537 1247.78687819 656.175174097 1247.78687819 c 0
 667.485983417 1247.78687819 678.835727527 1243.90632848 687.851513415 1235.90934549 c 0
 698.250566345 1226.68540755 704 1212.2866757 704 1200 c 2
 704 528 l 1
 944 528 l 2
 970.146366075 528 992 506.144471708 992 480 c 0
 992 453.855528292 970.146366075 432 944 432 c 2
 704 432 l 1
 704 96 l 1
 928 96 l 2
 954.144471708 96 976 74.1463660754 976 48 c 0
 976 21.8536339246 954.144471708 0 928 0 c 2
 384 0 l 2
 357.853633925 0 336 21.8555282921 336 48 c 0
608 528 m 1
 608 1056.8465582 l 1
 208.427044916 528 l 1
 608 528 l 1
EndSplineSet
EndChar

StartChar: seven
Encoding: 55 55 57
Width: 1024
VWidth: 0
Flags: HW
LayerCount: 2
Back
SplineSet
896 1200 m 0
 896 1072 848 896 768 816 c 0
 608 656 384 560 384 48 c 1024
144 816 m 0
 144 1040 240 1216 384 1216 c 0
 528 1216 528 1072 672 1072 c 0
 816 1072 896 1200 896 1200 c 1024
144 816 m 25
 144 1200 l 1049
EndSplineSet
Fore
SplineSet
833.039141202 1071.81560021 m 1
 791.60375052 1045.24857314 737.876314339 1024 672 1024 c 1
 483.646956675 1024 483.687387902 1168 384 1168 c 0
 286.155535639 1168 192 1035.67461658 192 816 c 0
 192 789.853633925 170.144471708 768 144 768 c 0
 117.855528292 768 96 789.853633925 96 816 c 2
 96 1200 l 2
 96 1226.14447171 117.853633925 1248 144 1248 c 0
 170.146366075 1248 192 1226.14447171 192 1200 c 2
 192 1161.1665133 l 1
 239.043728754 1224.32266224 303.185312774 1264 384 1264 c 0
 572.312612098 1264 572.353043325 1120 672 1120 c 0
 783.191227308 1120 852.042333477 1220.38741612 855.960865898 1226.47704609 c 0
 860.860695856 1233.75161026 867.373580322 1239.26209128 874.681691756 1242.87253846 c 0
 881.134646236 1246.14622724 888.385414613 1247.99999982 896 1248 c 0
 899.837517984 1248 903.582631829 1247.5291693 907.179789598 1246.64304173 c 0
 912.147263382 1245.47702243 916.986597303 1243.4962048 921.498255417 1240.66741903 c 0
 931.259164815 1234.54738076 938.147657676 1225.37534281 941.525535447 1215.00955885 c 0
 943.12855701 1210.27074794 943.999999379 1205.22095562 944 1200 c 0
 944 1062.72360597 897.275499994 877.393249 801.941125497 782.058874503 c 0
 633.712698505 613.830447511 432 542.088062164 432 48 c 0
 432 21.8555282921 410.146366075 0 384 0 c 0
 357.853633925 0 336 21.8555282921 336 48 c 0
 336 577.911937836 582.287301495 698.169552489 734.058874503 849.941125497 c 0
 777.324889245 893.207140239 813.701383693 982.136119102 833.039141202 1071.81560021 c 1
EndSplineSet
EndChar

StartChar: B
Encoding: 66 66 58
Width: 1024
VWidth: 0
Flags: HW
AnchorPoint: "top" 512 1272 basechar 0
LayerCount: 2
Back
SplineSet
432 455 m 1053
568 672 m 25
 320 672 l 1049
304 1184 m 25
 304 64 l 1049
568 1200 m 25
 96 1200 l 1049
568 48 m 25
 96 48 l 1049
568 672 m 0
 740.224 672 880 532.224 880 360 c 0
 880 187.776 740.224 48 568 48 c 1024
568 1200 m 0
 714 1200 832 1082 832 936 c 0
 832 790 714 672 568 672 c 1024
EndSplineSet
Fore
SplineSet
352 624 m 1
 352 96 l 1
 568 96 l 2
 713.711757898 96 832 214.288210855 832 360 c 0
 832 505.711757898 713.711789145 624 568 624 c 2
 352 624 l 1
352 720 m 1
 568 720 l 2
 687.521365421 720 784 816.477265448 784 936 c 0
 784 1055.52136542 687.522734552 1152 568 1152 c 2
 352 1152 l 1
 352 720 l 1
256 1152 m 1
 96 1152 l 2
 69.8555282921 1152 48 1173.85363392 48 1200 c 0
 48 1226.14636608 69.8555282921 1248 96 1248 c 2
 568 1248 l 2
 740.477265448 1248 880 1108.47863458 880 936 c 0
 880 827.376872998 824.662236407 731.824360912 740.605126872 675.96190737 c 1
 852.25104475 614.810851616 928 496.206228344 928 360 c 0
 928 161.263789145 766.736242102 0 568 0 c 2
 96 0 l 2
 69.8555282921 0 48 21.8536339246 48 48 c 0
 48 74.1463660754 69.8555282921 96 96 96 c 2
 256 96 l 1
 256 1152 l 1
EndSplineSet
EndChar

StartChar: o
Encoding: 111 111 59
Width: 1024
VWidth: 0
Flags: HW
AnchorPoint: "top" 512 912 basechar 0
LayerCount: 2
Back
SplineSet
144 432 m 4
 144 653 309 832 512 832 c 4
 715 832 880 653 880 432 c 4
 880 211 715 32 512 32 c 4
 309 32 144 211 144 432 c 4
EndSplineSet
Fore
SplineSet
96 432 m 0
 96 676.104927161 279.102339826 880 512 880 c 0
 744.897683122 880 928 676.104941184 928 432 c 0
 928 187.895072839 744.897660174 -16 512 -16 c 0
 279.102316878 -16 96 187.895058816 96 432 c 0
192 432 m 0
 192 234.104941184 338.897683122 80 512 80 c 0
 685.102339826 80 832 234.104927161 832 432 c 0
 832 629.895058816 685.102316878 784 512 784 c 0
 338.897660174 784 192 629.895072839 192 432 c 0
EndSplineSet
EndChar

StartChar: v
Encoding: 118 118 60
Width: 1024
VWidth: 0
Flags: HW
AnchorPoint: "top" 512 912 basechar 0
LayerCount: 2
Back
SplineSet
208 800 m 25
 480 48 l 25
 544 48 l 25
 816 800 l 1053
640 816 m 25
 960 816 l 1049
64 816 m 25
 384 816 l 1049
EndSplineSet
Fore
SplineSet
592 816 m 0
 592 842.144471708 613.853633925 864 640 864 c 2
 960 864 l 2
 986.144471708 864 1008 842.146366075 1008 816 c 0
 1008 789.853633925 986.144471708 768 960 768 c 2
 855.468932083 768 l 1
 589.138058836 31.6734680806 l 2
 583.419084181 15.8621852115 565.226278461 0 544 0 c 2
 512 0 l 1
 480 0 l 2
 463.186215861 0 442.081764348 11.7127804551 434.861941164 31.6734680806 c 2
 168.531067917 768 l 1
 64 768 l 2
 37.8536339246 768 16 789.855528292 16 816 c 0
 16 842.144471708 37.8536339246 864 64 864 c 2
 384 864 l 2
 410.144471708 864 432 842.146366075 432 816 c 0
 432 789.853633925 410.144471708 768 384 768 c 2
 270.617868254 768 l 1
 512 100.649400466 l 1
 753.382131746 768 l 1
 640 768 l 2
 613.853633925 768 592 789.855528292 592 816 c 0
EndSplineSet
EndChar

StartChar: z
Encoding: 122 122 61
Width: 1024
VWidth: 0
Flags: HW
AnchorPoint: "top" 512 912 basechar 0
LayerCount: 2
Back
SplineSet
160 592 m 25
 160 816 l 25
 864 816 l 25
 128 48 l 1
 896 48 l 29
 896 304 l 1025
EndSplineSet
Fore
SplineSet
160 544 m 0
 133.855528292 544 112 565.853633925 112 592 c 2
 112 816 l 2
 112 845.054472683 139.398583681 864 160 864 c 2
 864 864 l 2
 890.354847908 864 911.996663789 841.865582227 911.996663789 815.910164833 c 0
 911.996663789 802.498838672 905.896996875 790.344956161 898.655433846 782.788542565 c 2
 240.483080554 96 l 1
 848 96 l 1
 848 304 l 2
 848 330.144471708 869.853633925 352 896 352 c 0
 922.146366075 352 944 330.144471708 944 304 c 2
 944 48 l 2
 944 27.3985836813 925.054472683 0 896 0 c 2
 128 0 l 2
 117.021971005 0 106.136793291 3.8711821765 97.6098814841 10.8457176548 c 0
 86.105902036 20.255327443 80.2186096679 34.1644965838 80.2186096679 48.1089968025 c 0
 80.2186096679 60.0521507675 84.537257186 72.02122199 93.3445661545 81.2114574353 c 2
 751.516919446 768 l 1
 208 768 l 1
 208 592 l 2
 208 565.853633925 186.144471708 544 160 544 c 0
EndSplineSet
EndChar

StartChar: x
Encoding: 120 120 62
Width: 1024
VWidth: 0
Flags: HW
AnchorPoint: "top" 512 912 basechar 0
LayerCount: 2
Back
SplineSet
208 64 m 25
 800 800 l 1049
224 800 m 25
 816 64 l 1049
400 48 m 25
 80 48 l 1049
944 48 m 25
 624 48 l 1049
608 816 m 25
 928 816 l 1049
96 816 m 25
 416 816 l 1049
EndSplineSet
Fore
SplineSet
448 48 m 0
 448 21.8555282921 426.146366075 0 400 0 c 2
 80 0 l 2
 53.8555282921 0 32 21.8536339246 32 48 c 0
 32 74.1463660754 53.8555282921 96 80 96 c 2
 172.138551055 96 l 1
 450.39942062 441.945945946 l 1
 188.138551055 768 l 1
 96 768 l 2
 69.8536339246 768 48 789.855528292 48 816 c 0
 48 842.144471708 69.8536339246 864 96 864 c 2
 416 864 l 2
 442.144471708 864 464 842.146366075 464 816 c 0
 464 789.853633925 442.144471708 768 416 768 c 2
 311.339709815 768 l 1
 512 518.53045004 l 1
 712.660290185 768 l 1
 608 768 l 2
 581.853633925 768 560 789.855528292 560 816 c 0
 560 842.144471708 581.853633925 864 608 864 c 2
 928 864 l 2
 954.144471708 864 976 842.146366075 976 816 c 0
 976 789.853633925 954.144471708 768 928 768 c 2
 835.861448945 768 l 1
 573.60057938 441.945945946 l 1
 851.861448945 96 l 1
 944 96 l 2
 970.146366075 96 992 74.1444717079 992 48 c 0
 992 21.8555282921 970.146366075 0 944 0 c 2
 624 0 l 2
 597.855528292 0 576 21.8536339246 576 48 c 0
 576 74.1463660754 597.855528292 96 624 96 c 2
 728.660290185 96 l 1
 512 365.361441852 l 1
 295.339709815 96 l 1
 400 96 l 2
 426.146366075 96 448 74.1444717079 448 48 c 0
EndSplineSet
EndChar

StartChar: w
Encoding: 119 119 63
Width: 1024
VWidth: 0
Flags: HW
AnchorPoint: "top" 512 912 basechar 0
LayerCount: 2
Back
SplineSet
192 800 m 25
 256 48 l 25
 320 48 l 25
 512 560 l 25
 704 48 l 25
 768 48 l 25
 832 800 l 1049
656 816 m 25
 944 816 l 1049
80 816 m 25
 368 816 l 1049
EndSplineSet
Fore
SplineSet
608 816 m 0
 608 842.144471708 629.853633925 864 656 864 c 2
 944 864 l 2
 970.144471708 864 992 842.146366075 992 816 c 0
 992 789.853633925 970.144471708 768 944 768 c 2
 877.450116419 768 l 1
 815.827104346 43.9296081408 l 2
 813.795187509 20.0545853083 792.933318667 0 768 0 c 2
 742 0 l 1
 704 0 l 2
 684.594583957 0 666.058417469 12.4734934906 659.056199477 31.1460748038 c 2
 512 423.295940075 l 1
 364.943800523 31.1460748038 l 2
 358.130104057 12.9762175601 339.942325584 0 320 0 c 2
 281 0 l 1
 256 0 l 2
 232.038668625 0 210.287236848 19.0860991081 208.172895654 43.9296081408 c 2
 146.549883581 768 l 1
 80 768 l 2
 53.8536339246 768 32 789.855528292 32 816 c 0
 32 842.144471708 53.8536339246 864 80 864 c 2
 368 864 l 2
 394.144471708 864 416 842.146366075 416 816 c 0
 416 789.853633925 394.144471708 768 368 768 c 2
 242.89692493 768 l 1
 297.618599399 125.020324988 l 1
 467.056199477 576.853925196 l 2
 474.259216474 596.061970523 493.01655577 607.887424513 512.43806183 607.887424513 c 0
 519.138078626 607.887424513 525.917138367 606.480069073 532.328132434 603.482951047 c 0
 543.74109405 598.147430122 552.838439445 587.801554738 556.943800523 576.853925196 c 2
 726.381400601 125.020324988 l 1
 781.10307507 768 l 1
 656 768 l 2
 629.853633925 768 608 789.855528292 608 816 c 0
EndSplineSet
EndChar

StartChar: l
Encoding: 108 108 64
Width: 1024
VWidth: 0
Flags: HW
AnchorPoint: "top" 512 1272 basechar 0
LayerCount: 2
Back
SplineSet
208 48 m 25
 816 48 l 1049
208 1200 m 25
 512 1200 l 25
 512 64 l 1049
EndSplineSet
Fore
SplineSet
160 48 m 0
 160 74.1444717079 181.853633925 96 208 96 c 2
 464 96 l 1
 464 1152 l 1
 208 1152 l 2
 181.853633925 1152 160 1173.85552829 160 1200 c 0
 160 1226.14447171 181.853633925 1248 208 1248 c 2
 512 1248 l 2
 541.054472683 1248 560 1220.60141632 560 1200 c 2
 560 96 l 1
 816 96 l 2
 842.144471708 96 864 74.1463660754 864 48 c 0
 864 21.8536339246 842.144471708 0 816 0 c 2
 208 0 l 2
 181.853633925 0 160 21.8555282921 160 48 c 0
EndSplineSet
EndChar

StartChar: h
Encoding: 104 104 65
Width: 1024
VWidth: 0
Flags: HW
AnchorPoint: "top" 512 1272 basechar 0
LayerCount: 2
Back
SplineSet
768 640 m 25
 768 64 l 1049
576 832 m 4
 682 832 768 746 768 640 c 1028
256 512 m 0
 256 689 399 832 576 832 c 1024
256 64 m 25
 256 1200 l 25
 96 1200 l 1049
608 48 m 25
 928 48 l 1049
96 48 m 25
 416 48 l 1049
EndSplineSet
Fore
SplineSet
560 48 m 0
 560 74.1444717079 581.853633925 96 608 96 c 2
 720 96 l 1
 720 640 l 2
 720 719.490159716 655.490387345 784 576 784 c 0
 425.474108993 784 304 662.525965507 304 512 c 2
 304 96 l 1
 416 96 l 2
 442.144471708 96 464 74.1463660754 464 48 c 0
 464 21.8536339246 442.144471708 0 416 0 c 2
 96 0 l 2
 69.8536339246 0 48 21.8555282921 48 48 c 0
 48 74.1444717079 69.8536339246 96 96 96 c 2
 208 96 l 1
 208 512 l 1
 208 1152 l 1
 96 1152 l 2
 69.8555282921 1152 48 1173.85363392 48 1200 c 0
 48 1226.14636608 69.8555282921 1248 96 1248 c 2
 256 1248 l 2
 276.601416319 1248 304 1229.05447268 304 1200 c 2
 304 760.056801334 l 1
 371.264282466 833.787653087 468.162218733 880 576 880 c 0
 708.509612655 880 816 772.509840284 816 640 c 2
 816 96 l 1
 928 96 l 2
 954.144471708 96 976 74.1463660754 976 48 c 0
 976 21.8536339246 954.144471708 0 928 0 c 2
 608 0 l 2
 581.853633925 0 560 21.8555282921 560 48 c 0
EndSplineSet
EndChar

StartChar: e
Encoding: 101 101 66
Width: 1024
VWidth: 0
Flags: HW
AnchorPoint: "top" 512 912 basechar 0
LayerCount: 2
Back
SplineSet
880 480 m 25
 160 480 l 1049
512 832 m 0
 715 832 880 674 880 480 c 1024
880 256 m 0
 880 132 715 32 512 32 c 1024
512 32 m 0
 309 32 144 211 144 432 c 0
 144 653 309 832 512 832 c 1024
EndSplineSet
Fore
SplineSet
880 304 m 0
 906.144471708 304 928 282.146366075 928 256 c 0
 928 85.9653828239 721.311337432 -16 512 -16 c 0
 279.102316878 -16 96 187.895058816 96 432 c 0
 96 676.104927161 279.102339826 880 512 880 c 0
 739.719156141 880 928 702.342686191 928 480 c 0
 928 453.855528292 906.146366075 432 880 432 c 2
 192 432 l 1
 192 234.104941184 338.897683122 80 512 80 c 0
 708.688662568 80 832 178.034617176 832 256 c 0
 832 282.146366075 853.855528292 304 880 304 c 0
827.98405502 528 m 1
 803.757380757 671.542165539 672.73906478 784 512 784 c 0
 368.136480189 784 242.372783955 677.558248724 203.99168124 528 c 1
 827.98405502 528 l 1
EndSplineSet
EndChar

StartChar: grave
Encoding: 96 96 67
Width: 1024
VWidth: 0
Flags: HW
LayerCount: 2
Back
SplineSet
320 1200 m 25
 704 816 l 1049
EndSplineSet
Fore
SplineSet
286.058874503 1233.9411255 m 4
 295.302508554 1243.18475955 307.651283037 1247.80682775 320.000168722 1247.80682775 c 0
 332.348607046 1247.80682775 344.697156566 1243.18509443 353.941125497 1233.9411255 c 6
 737.941125497 849.941125497 l 6
 747.184759548 840.697491446 751.806827748 828.348716963 751.806827748 815.999831278 c 0
 751.806827748 803.651392954 747.185094428 791.302843434 737.941125497 782.058874503 c 4
 728.697156566 772.814905572 716.348607046 768.193172252 704.000168722 768.193172252 c 0
 691.651283037 768.193172252 679.302508554 772.815240452 670.058874503 782.058874503 c 6
 286.058874503 1166.0588745 l 6
 276.814905572 1175.30284343 272.193172252 1187.65139295 272.193172252 1199.99983128 c 0
 272.193172252 1212.34871696 276.815240452 1224.69749145 286.058874503 1233.9411255 c 4
EndSplineSet
EndChar

StartChar: n
Encoding: 110 110 68
Width: 1024
VWidth: 0
Flags: HW
AnchorPoint: "top" 512 912 basechar 0
LayerCount: 2
Back
SplineSet
256 64 m 29
 256 816 l 29
 96 816 l 1053
608 48 m 29
 928 48 l 1053
96 48 m 29
 416 48 l 1053
576 832 m 4
 682 832 768 746 768 640 c 1028
768 640 m 29
 768 64 l 1053
256 512 m 4
 256 689 399 832 576 832 c 1028
EndSplineSet
Fore
SplineSet
560 48 m 0
 560 74.1444717079 581.853633925 96 608 96 c 2
 720 96 l 1
 720 640 l 2
 720 719.490159716 655.490387345 784 576 784 c 0
 425.474108993 784 304 662.525965507 304 512 c 2
 304 96 l 1
 416 96 l 2
 442.144471708 96 464 74.1463660754 464 48 c 0
 464 21.8536339246 442.144471708 0 416 0 c 2
 96 0 l 2
 69.8536339246 0 48 21.8555282921 48 48 c 0
 48 74.1444717079 69.8536339246 96 96 96 c 2
 208 96 l 1
 208 512 l 1
 208 768 l 1
 96 768 l 2
 69.8555282921 768 48 789.853633925 48 816 c 0
 48 842.146366075 69.8555282921 864 96 864 c 2
 256 864 l 2
 276.601416319 864 304 845.054472683 304 816 c 2
 304 760.056801334 l 1
 371.264282466 833.787653087 468.162218733 880 576 880 c 0
 708.509612655 880 816 772.509840284 816 640 c 2
 816 96 l 1
 928 96 l 2
 954.144471708 96 976 74.1463660754 976 48 c 0
 976 21.8536339246 954.144471708 0 928 0 c 2
 608 0 l 2
 581.853633925 0 560 21.8555282921 560 48 c 0
EndSplineSet
EndChar

StartChar: u
Encoding: 117 117 69
Width: 1024
VWidth: 0
Flags: HW
AnchorPoint: "top" 512 912 basechar 0
LayerCount: 2
Fore
SplineSet
48 816 m 4
 48 842.144471708 69.8536339246 864 96 864 c 6
 256 864 l 6
 285.054472683 864 304 836.601416319 304 816 c 6
 304 224 l 6
 304 144.509840284 368.509612655 80 448 80 c 4
 598.525891007 80 720 201.474034493 720 352 c 6
 720 768 l 5
 608 768 l 6
 581.853633925 768 560 789.855528292 560 816 c 4
 560 842.144471708 581.853633925 864 608 864 c 6
 768 864 l 6
 797.054472683 864 816 836.601416319 816 816 c 6
 816 352 l 5
 816 96 l 5
 928 96 l 6
 954.144471708 96 976 74.1463660754 976 48 c 4
 976 21.8536339246 954.144471708 0 928 0 c 6
 768 0 l 6
 747.398583681 0 720 18.9455273174 720 48 c 6
 720 103.943198666 l 5
 652.735717534 30.2123469126 555.837781267 -16 448 -16 c 5
 315.490387345 -16 208 91.4901597163 208 224 c 6
 208 768 l 5
 96 768 l 6
 69.8536339246 768 48 789.855528292 48 816 c 4
EndSplineSet
EndChar

StartChar: k
Encoding: 107 107 71
Width: 1024
VWidth: 0
Flags: HW
AnchorPoint: "top" 512 1272 basechar 0
LayerCount: 2
Back
SplineSet
829 49 m 29
 432 496 l 1049
257 356 m 25
 818 815 l 1049
912 816 m 25
 592 816 l 1049
624 48 m 25
 944 48 l 1049
96 48 m 25
 416 48 l 1049
96 1200 m 25
 256 1200 l 25
 256 64 l 1049
EndSplineSet
Fore
SplineSet
960 816 m 0
 960 789.855528292 938.146366075 768 912 768 c 2
 836.356464374 768 l 1
 499.444466763 492.344729227 l 1
 851.45533366 96 l 1
 944 96 l 2
 970.144471708 96 992 74.1463660754 992 48 c 0
 992 21.8536339246 970.144471708 0 944 0 c 2
 624 0 l 2
 597.853633925 0 576 21.8555282921 576 48 c 0
 576 74.1444717079 597.853633925 96 624 96 c 2
 723.059207727 96 l 1
 425.083600895 431.50402079 l 1
 304 332.435620057 l 1
 304 96 l 1
 416 96 l 2
 442.144471708 96 464 74.1463660754 464 48 c 0
 464 21.8536339246 442.144471708 0 416 0 c 2
 96 0 l 2
 69.8536339246 0 48 21.8555282921 48 48 c 0
 48 74.1444717079 69.8536339246 96 96 96 c 2
 208 96 l 1
 208 1152 l 1
 96 1152 l 2
 69.8536339246 1152 48 1173.85552829 48 1200 c 0
 48 1226.14447171 69.8536339246 1248 96 1248 c 2
 256 1248 l 2
 285.054472683 1248 304 1220.60141632 304 1200 c 2
 304 456.473470852 l 1
 684.754646737 768 l 1
 592 768 l 2
 565.855528292 768 544 789.853633925 544 816 c 0
 544 842.146366075 565.855528292 864 592 864 c 2
 912 864 l 2
 938.146366075 864 960 842.144471708 960 816 c 0
EndSplineSet
EndChar

StartChar: m
Encoding: 109 109 72
Width: 1024
VWidth: 0
Flags: HW
AnchorPoint: "top" 512 912 basechar 0
LayerCount: 2
Back
SplineSet
512 688 m 25
 512 64 l 1049
848 688 m 25
 848 64 l 1049
848 688 m 0
 848 767 783 832 704 832 c 0
 598 832 512 746 512 640 c 1024
368 832 m 0
 447 832 512 767 512 688 c 1024
176 640 m 0
 176 746 262 832 368 832 c 1024
80 816 m 25
 176 816 l 25
 176 64 l 1049
752 48 m 25
 944 48 l 1049
416 48 m 25
 608 48 l 1049
80 48 m 25
 272 48 l 1049
EndSplineSet
Fore
SplineSet
32 816 m 0
 32 842.144471708 53.8536339246 864 80 864 c 2
 176 864 l 2
 198.749326584 864 215.301147329 847.202710447 221.413654763 830.023052063 c 1
 261.964078468 861.355070971 312.812123486 880 368 880 c 0
 432.300678506 880 489.465498758 847.993187895 524.354337293 799.11955411 c 1
 568.32821244 848.725572007 632.524415097 880 704 880 c 0
 809.628390153 880 896 793.628193571 896 688 c 2
 896 96 l 1
 944 96 l 2
 970.144471708 96 992 74.1463660754 992 48 c 0
 992 21.8536339246 970.144471708 0 944 0 c 2
 752 0 l 2
 725.853633925 0 704 21.8555282921 704 48 c 0
 704 74.1444717079 725.853633925 96 752 96 c 2
 800 96 l 1
 800 688 l 2
 800 740.371806429 756.371609847 784 704 784 c 0
 624.509612655 784 560 719.490159716 560 640 c 2
 560 96 l 1
 608 96 l 2
 634.144471708 96 656 74.1463660754 656 48 c 0
 656 21.8536339246 634.144471708 0 608 0 c 2
 416 0 l 2
 389.853633925 0 368 21.8555282921 368 48 c 0
 368 74.1444717079 389.853633925 96 416 96 c 2
 464 96 l 1
 464 640 l 1
 464 688 l 2
 464 740.371609847 420.371806429 784 368 784 c 0
 288.509840284 784 224 719.490387345 224 640 c 2
 224 96 l 1
 272 96 l 2
 298.144471708 96 320 74.1463660754 320 48 c 0
 320 21.8536339246 298.144471708 0 272 0 c 2
 80 0 l 2
 53.8536339246 0 32 21.8555282921 32 48 c 0
 32 74.1444717079 53.8536339246 96 80 96 c 2
 128 96 l 1
 128 640 l 1
 128 768 l 1
 80 768 l 2
 53.8536339246 768 32 789.855528292 32 816 c 0
EndSplineSet
EndChar

StartChar: f
Encoding: 102 102 73
Width: 1024
VWidth: 0
Flags: HW
AnchorPoint: "top" 512 1272 basechar 0
LayerCount: 2
Back
SplineSet
928 1040 m 25
 928 1008 l 1049
672 1216 m 0
 813 1216 928 1137 928 1040 c 1024
832 1008 m 0
 832 1034 854 1056 880 1056 c 0
 906 1056 928 1034 928 1008 c 0
 928 982 906 960 880 960 c 0
 854 960 832 982 832 1008 c 0
416 960 m 0
 416 1101 531 1216 672 1216 c 1024
416 960 m 25
 416 64 l 1025
144 48 m 25
 688 48 l 1049
144 816 m 25
 688 816 l 1049
EndSplineSet
Fore
SplineSet
96 48 m 0
 96 74.1444717079 117.853633925 96 144 96 c 2
 368 96 l 1
 368 768 l 1
 144 768 l 2
 117.853633925 768 96 789.855528292 96 816 c 0
 96 842.144471708 117.853633925 864 144 864 c 2
 368 864 l 1
 368 960 l 2
 368 1127.55407845 504.445939014 1264 672 1264 c 0
 824.206656455 1264 976 1178.52328006 976 1040 c 2
 976 1008 l 2
 976 955.134853272 932.865076047 912 880 912 c 0
 827.134853272 912 784 955.134923953 784 1008 c 0
 784 1051.46929993 813.164561077 1088.35971408 852.922134505 1100.09981161 c 1
 819.588708214 1137.03813854 756.806127551 1168 672 1168 c 0
 557.554060986 1168 464 1074.44592155 464 960 c 2
 464 864 l 1
 688 864 l 2
 714.144471708 864 736 842.146366075 736 816 c 0
 736 789.853633925 714.144471708 768 688 768 c 2
 464 768 l 1
 464 96 l 1
 688 96 l 2
 714.144471708 96 736 74.1463660754 736 48 c 0
 736 21.8536339246 714.144471708 0 688 0 c 2
 144 0 l 2
 117.853633925 0 96 21.8555282921 96 48 c 0
EndSplineSet
EndChar

StartChar: g
Encoding: 103 103 74
Width: 1024
VWidth: 0
Flags: HW
AnchorPoint: "top" 512 912 basechar 0
LayerCount: 2
Back
SplineSet
688 736 m 0
 688 789 731 832 784 832 c 0
 837 832 880 789 880 736 c 1024
688 560 m 25
 688 736 l 1049
368 64 m 25
 512 64 l 1049
368 288 m 25
 416 288 l 1049
368 64 m 0
 280 64 208 114 208 176 c 0
 208 238 280 288 368 288 c 1024
112 -144 m 0
 112 -29 291 64 512 64 c 0
 733 64 912 -29 912 -144 c 0
 912 -259 733 -352 512 -352 c 0
 291 -352 112 -259 112 -144 c 0
144 560 m 0
 144 710 266 832 416 832 c 0
 566 832 688 710 688 560 c 0
 688 410 566 288 416 288 c 0
 266 288 144 410 144 560 c 0
EndSplineSet
Fore
SplineSet
160 -144 m 0
 160 -207.442301911 291.337077362 -304 512 -304 c 0
 732.666476258 -304 864 -207.442610831 864 -144 c 0
 864 -80.557698089 732.662922638 16 512 16 c 0
 291.333523742 16 160 -80.5573891688 160 -144 c 0
96 560 m 0
 96 736.530537185 239.469499345 880 416 880 c 0
 506.834977244 880 588.916418927 842.013776368 647.202453429 781.083215653 c 1
 666.130089148 838.521916055 720.235044514 880 784 880 c 0
 863.509618369 880 928 815.509713987 928 736 c 0
 928 709.855528292 906.146366075 688 880 688 c 0
 853.853633925 688 832 709.855528292 832 736 c 0
 832 762.490286013 810.490381631 784 784 784 c 0
 757.509713987 784 736 762.490381631 736 736 c 2
 736 560 l 2
 736 383.469462815 592.530500655 240 416 240 c 2
 368 240 l 2
 291.830024845 240 256 197.131840797 256 176 c 0
 256 154.870425358 291.831776624 112 368 112 c 2
 512 112 l 2
 733.337077362 112 960 22.557698089 960 -144 c 0
 960 -310.557389169 733.333523742 -400 512 -400 c 0
 290.662922638 -400 64 -310.557698089 64 -144 c 0
 64 -53.629485345 130.728750883 14.0390712702 227.128807992 57.0365358145 c 1
 187.300345306 84.1838988952 160 124.319731969 160 176 c 1
 160 229.790153736 189.576744137 271.074698726 232.072020749 298.2243401 c 1
 149.811087556 356.175193133 96 451.887502131 96 560 c 0
640 560 m 0
 640 683.469499345 539.469462815 784 416 784 c 0
 292.530500655 784 192 683.469462815 192 560 c 0
 192 436.530500655 292.530537185 336 416 336 c 0
 539.469499345 336 640 436.530537185 640 560 c 0
EndSplineSet
EndChar

StartChar: D
Encoding: 68 68 75
Width: 1024
VWidth: 0
Flags: HW
AnchorPoint: "top" 512 1272 basechar 0
LayerCount: 2
Back
SplineSet
304 64 m 25
 304 1184 l 1049
512 48 m 25
 96 48 l 1049
512 1200 m 25
 96 1200 l 1049
512 1200 m 0
 715 1200 880 942 880 624 c 0
 880 306 715 48 512 48 c 1024
EndSplineSet
Fore
SplineSet
256 96 m 1
 256 1152 l 1
 96 1152 l 2
 69.8555282921 1152 48 1173.85363392 48 1200 c 0
 48 1226.14636608 69.8555282921 1248 96 1248 c 2
 512 1248 l 2
 759.22921543 1248 928 950.286715753 928 624 c 0
 928 297.713659606 759.229090682 0 512 0 c 2
 96 0 l 2
 69.8555282921 0 48 21.8536339246 48 48 c 0
 48 74.1463660754 69.8555282921 96 96 96 c 2
 256 96 l 1
352 96 m 1
 512 96 l 2
 670.770909318 96 832 314.286340394 832 624 c 0
 832 933.713284247 670.77078457 1152 512 1152 c 2
 352 1152 l 1
 352 96 l 1
EndSplineSet
EndChar

StartChar: P
Encoding: 80 80 76
Width: 1024
VWidth: 0
Flags: HW
AnchorPoint: "top" 512 1272 basechar 0
LayerCount: 2
Back
SplineSet
592 1200 m 4
 751 1200 880 1071 880 912 c 4
 880 753 751 624 592 624 c 1028
320 624 m 29
 592 624 l 1053
96 48 m 29
 568 48 l 1053
304 1184 m 29
 304 64 l 1053
96 1200 m 29
 592 1200 l 1053
EndSplineSet
Fore
SplineSet
48 48 m 0
 48 74.1444717079 69.8536339246 96 96 96 c 2
 256 96 l 1
 256 1152 l 1
 96 1152 l 2
 69.8536339246 1152 48 1173.85552829 48 1200 c 0
 48 1226.14447171 69.8536339246 1248 96 1248 c 2
 592 1248 l 2
 777.509606252 1248 928 1097.51101573 928 912 c 0
 928 726.490393748 777.511015725 576 592 576 c 2
 352 576 l 1
 352 96 l 1
 568 96 l 2
 594.144471708 96 616 74.1463660754 616 48 c 0
 616 21.8536339246 594.144471708 0 568 0 c 2
 96 0 l 2
 69.8536339246 0 48 21.8555282921 48 48 c 0
592 672 m 2
 724.488984275 672 832 779.509606252 832 912 c 0
 832 1044.48898427 724.490393748 1152 592 1152 c 2
 352 1152 l 1
 352 672 l 1
 592 672 l 2
EndSplineSet
EndChar

StartChar: R
Encoding: 82 82 77
Width: 1024
VWidth: 0
Flags: HW
AnchorPoint: "top" 512 1272 basechar 0
LayerCount: 2
Back
SplineSet
544 624 m 0
 685 624 800 438 800 208 c 1024
544 1200 m 0
 703 1200 832 1071 832 912 c 0
 832 753 703 624 544 624 c 1024
272 624 m 25
 544 624 l 1049
944 48 m 25
 800 48 l 25
 800 208 l 1049
80 48 m 25
 448 48 l 1049
256 1184 m 25
 256 64 l 1049
80 1200 m 25
 544 1200 l 1049
EndSplineSet
Fore
SplineSet
992 48 m 0
 992 21.8555282921 970.146366075 0 944 0 c 2
 800 0 l 2
 770.945527317 0 752 27.3985836813 752 48 c 2
 752 208 l 2
 752 431.148055537 639.420535928 576 544 576 c 2
 304 576 l 1
 304 96 l 1
 448 96 l 2
 474.144471708 96 496 74.1463660754 496 48 c 0
 496 21.8536339246 474.144471708 0 448 0 c 2
 80 0 l 2
 53.8536339246 0 32 21.8555282921 32 48 c 0
 32 74.1444717079 53.8536339246 96 80 96 c 2
 208 96 l 1
 208 1152 l 1
 80 1152 l 2
 53.8536339246 1152 32 1173.85552829 32 1200 c 0
 32 1226.14447171 53.8536339246 1248 80 1248 c 2
 544 1248 l 2
 729.509606252 1248 880 1097.51101573 880 912 c 0
 880 781.42787721 805.445676604 668.204756453 696.600378143 612.595460511 c 1
 792.273856886 529.730240335 848 371.167785109 848 208 c 2
 848 96 l 1
 944 96 l 2
 970.146366075 96 992 74.1444717079 992 48 c 0
544 672 m 2
 676.488984275 672 784 779.509606252 784 912 c 0
 784 1044.48898427 676.490393748 1152 544 1152 c 2
 304 1152 l 1
 304 672 l 1
 544 672 l 2
EndSplineSet
EndChar

StartChar: d
Encoding: 100 100 78
Width: 1024
VWidth: 0
Flags: HW
AnchorPoint: "top" 512 1272 basechar 0
LayerCount: 2
Back
SplineSet
767 561.110351562 m 1
 724.107421875 718.709960938 604.813476562 832 464 832 c 0
 287 832 144 653 144 432 c 0
 144 211 287 32 464 32 c 0
 604.813476562 32 724.107421875 145.290039062 767 302.889648438 c 1025
928 48 m 25
 768 48 l 25
 768 1200 l 1
 608 1200 l 1049
EndSplineSet
Fore
SplineSet
976 48 m 0
 976 21.8555282921 954.146366075 0 928 0 c 2
 768 0 l 2
 738.945527317 0 720 27.3985836813 720 48 c 2
 720 109.671571451 l 1
 655.039670132 32.9735741815 565.874766146 -16 464 -16 c 0
 251.465074863 -16 96 193.696010149 96 432 c 0
 96 670.304185685 251.464910926 880 464 880 c 0
 565.87469266 880 655.039633757 831.026418445 720 754.328388037 c 1
 720 1152 l 1
 608 1152 l 2
 581.855528292 1152 560 1173.85363392 560 1200 c 0
 560 1226.14636608 581.855528292 1248 608 1248 c 2
 768 1248 l 2
 788.601416319 1248 816 1229.05447268 816 1200 c 2
 816 96 l 1
 928 96 l 2
 954.146366075 96 976 74.1444717079 976 48 c 0
720 550.991352571 m 1
 680.508172277 692.726351233 576.307261767 784 464 784 c 0
 322.535089074 784 192 635.695814315 192 432 c 0
 192 228.303989851 322.534925137 80 464 80 c 0
 576.307094252 80 680.508156084 171.273595079 720 313.008647468 c 1
 720 550.991352571 l 1
EndSplineSet
EndChar

StartChar: p
Encoding: 112 112 79
Width: 1024
VWidth: 0
Flags: HW
AnchorPoint: "top" 512 912 basechar 0
LayerCount: 2
Back
SplineSet
96 -336 m 29
 416 -336 l 1053
96 816 m 29
 256 816 l 29
 256 -320 l 1053
257 561.110555669 m 5
 299.892772307 718.709870796 419.186988408 832 560 832 c 4
 737 832 880 653 880 432 c 4
 880 211 737 32 560 32 c 4
 419.186988408 32 299.892772307 145.290129204 257 302.889444331 c 1029
EndSplineSet
Fore
SplineSet
48 -336 m 0
 48 -309.855528292 69.8536339246 -288 96 -288 c 2
 208 -288 l 1
 208 768 l 1
 96 768 l 2
 69.8536339246 768 48 789.855528292 48 816 c 0
 48 842.144471708 69.8536339246 864 96 864 c 2
 256 864 l 2
 285.054472683 864 304 836.601416319 304 816 c 2
 304 754.328161427 l 1
 368.960449192 831.026287867 458.125449435 880 560 880 c 0
 772.535089074 880 928 670.304185685 928 432 c 0
 928 193.696010149 772.534925137 -16 560 -16 c 0
 458.125375945 -16 368.960412816 32.9737047639 304 109.671798063 c 1
 304 -288 l 1
 416 -288 l 2
 442.144471708 -288 464 -309.853633925 464 -336 c 0
 464 -362.146366075 442.144471708 -384 416 -384 c 2
 96 -384 l 2
 69.8536339246 -384 48 -362.144471708 48 -336 c 0
304 550.991539248 m 1
 304 313.008460791 l 1
 343.492034805 171.273703097 447.693416754 80 560 80 c 0
 701.465074863 80 832 228.303989851 832 432 c 0
 832 635.695814315 701.464910926 784 560 784 c 0
 447.69324923 784 343.492018608 692.726243196 304 550.991539248 c 1
EndSplineSet
EndChar

StartChar: q
Encoding: 113 113 80
Width: 1024
VWidth: 0
Flags: HW
AnchorPoint: "top" 512 912 basechar 0
LayerCount: 2
Back
SplineSet
928 -336 m 25
 608 -336 l 1049
768 816 m 25
 768 -320 l 1049
767 561.110351562 m 1
 724.107421875 718.709960938 604.813476562 832 464 832 c 0
 287 832 144 653 144 432 c 0
 144 211 287 32 464 32 c 0
 604.813476562 32 724.107421875 145.290039062 767 302.889648438 c 1025
EndSplineSet
Fore
SplineSet
976 -336 m 0
 976 -362.144471708 954.146366075 -384 928 -384 c 2
 608 -384 l 2
 581.855528292 -384 560 -362.146366075 560 -336 c 0
 560 -309.853633925 581.855528292 -288 608 -288 c 2
 720 -288 l 1
 720 109.671571451 l 1
 655.039670132 32.9735741815 565.874766146 -16 464 -16 c 0
 251.465074863 -16 96 193.696010149 96 432 c 0
 96 670.304185685 251.464910926 880 464 880 c 0
 565.87469266 880 655.039633757 831.026418445 720 754.328388037 c 1
 720 816 l 2
 720 842.146366075 741.855528292 864 768 864 c 0
 794.144471708 864 816 842.146366075 816 816 c 2
 816 -288 l 1
 928 -288 l 2
 954.146366075 -288 976 -309.855528292 976 -336 c 0
720 313.008647468 m 1
 720 550.991352571 l 1
 680.508172277 692.726351233 576.307261767 784 464 784 c 0
 322.535089074 784 192 635.695814315 192 432 c 0
 192 228.303989851 322.534925137 80 464 80 c 0
 576.307094252 80 680.508156084 171.273595079 720 313.008647468 c 1
EndSplineSet
EndChar

StartChar: braceleft
Encoding: 123 123 81
Width: 1024
VWidth: 0
Flags: HW
LayerCount: 2
Back
SplineSet
512 368 m 29
 512 268 512 253 512 112 c 4
 512 -29 627 -144 768 -144 c 1028
512 1136 m 29
 512 1036 512 1021 512 880 c 4
 512 739 397 624 256 624 c 1028
256 624 m 4
 397 624 512 509 512 368 c 1028
512 1136 m 4
 512 1277 627 1392 768 1392 c 1028
EndSplineSet
Fore
SplineSet
256 576 m 0
 229.855528292 576 208 597.853633925 208 624 c 0
 208 650.146366075 229.855528292 672 256 672 c 0
 370.445939014 672 464 765.55407845 464 880 c 2
 464 1136 l 2
 464 1303.55407845 600.445939014 1440 768 1440 c 0
 794.144471708 1440 816 1418.14636608 816 1392 c 0
 816 1365.85363392 794.144471708 1344 768 1344 c 0
 653.554060986 1344 560 1250.44592155 560 1136 c 2
 560 880 l 2
 560 772.675844849 504.018366806 678.114879584 419.738010293 624.000000312 c 1
 504.018370549 569.885118153 560 475.324147245 560 368 c 2
 560 112 l 2
 560 -2.44592155031 653.554060986 -96 768 -96 c 0
 794.144471708 -96 816 -117.853633925 816 -144 c 0
 816 -170.146366075 794.144471708 -192 768 -192 c 0
 600.445939014 -192 464 -55.5540784497 464 112 c 2
 464 368 l 2
 464 482.445939014 370.44592155 576 256 576 c 0
EndSplineSet
EndChar

StartChar: braceright
Encoding: 125 125 82
Width: 1024
VWidth: 0
Flags: HW
LayerCount: 2
Back
SplineSet
512 368 m 29
 512 268 512 253 512 112 c 4
 512 -29 397 -144 256 -144 c 1028
512 1136 m 29
 512 1036 512 1021 512 880 c 4
 512 739 627 624 768 624 c 1028
768 624 m 4
 627 624 512 509 512 368 c 1028
512 1136 m 4
 512 1277 397 1392 256 1392 c 1028
EndSplineSet
Fore
SplineSet
768 672 m 0
 794.144471708 672 816 650.146366075 816 624 c 0
 816 597.853633925 794.144471708 576 768 576 c 0
 653.55407845 576 560 482.445939014 560 368 c 2
 560 112 l 2
 560 -55.5540784497 423.554060986 -192 256 -192 c 0
 229.855528292 -192 208 -170.146366075 208 -144 c 0
 208 -117.853633925 229.855528292 -96 256 -96 c 0
 370.445939014 -96 464 -2.44592155031 464 112 c 2
 464 368 l 2
 464 475.324147245 519.981629451 569.885118153 604.261989707 624.000000312 c 1
 519.981633194 678.114879584 464 772.675844849 464 880 c 2
 464 1136 l 2
 464 1250.44592155 370.445939014 1344 256 1344 c 0
 229.855528292 1344 208 1365.85363392 208 1392 c 0
 208 1418.14636608 229.855528292 1440 256 1440 c 0
 423.554060986 1440 560 1303.55407845 560 1136 c 2
 560 880 l 2
 560 765.55407845 653.554060986 672 768 672 c 0
EndSplineSet
EndChar

StartChar: Q
Encoding: 81 81 83
Width: 1024
VWidth: 0
Flags: HW
AnchorPoint: "top" 512 1272 basechar 0
LayerCount: 2
Back
SplineSet
144 24 m 1049
640 112 m 25
 640 25 640 -41 640 -112 c 0
 640 -183 697 -240 768 -240 c 0
 839 -240 896 -183 896 -112 c 1024
320.799772802 128 m 1
 328.893030722 208.561931984 397.397841137 272 480 272 c 0
 568 272 640 200 640 112 c 1024
144 624 m 0
 144 951 288 1216 512 1216 c 0
 736 1216 880 951 880 624 c 0
 880 297 736 32 512 32 c 4
 288 32 144 297 144 624 c 0
EndSplineSet
Fore
SplineSet
96 624 m 0
 96 956.244395734 242.767910564 1264 512 1264 c 0
 781.225833903 1264 928 956.236269841 928 624 c 0
 928 373.435242582 844.5251291 136.798589055 688 35.5918257146 c 1
 688 -112 l 2
 688 -156.579329196 723.423572253 -192 768 -192 c 0
 812.579329196 -192 848 -156.576427747 848 -112 c 0
 848 -85.8555282921 869.853633925 -64 896 -64 c 0
 922.146366075 -64 944 -85.8555282921 944 -112 c 0
 944 -209.423572253 865.420670804 -288 768 -288 c 0
 670.576427747 -288 592 -209.420670804 592 -112 c 2
 592 -6.33242155203 l 1
 566.676154413 -12.6712589355 540.000374717 -16 512 -16 c 0
 242.774166097 -16 96 291.763730159 96 624 c 0
592 112 m 2
 592 173.419200474 541.419265865 224 480 224 c 0
 425.435525997 224 379.326688966 183.996212232 369.806662915 132.013861505 c 1
 412.477831845 98.3048536353 460.692551044 80 512 80 c 0
 539.696166074 80 566.49137092 85.3344665892 592 95.546992781 c 1
 592 112 l 2
682.893663505 157.856847005 m 1
 772.954002722 249.515938063 832 415.956256858 832 624 c 0
 832 945.763730159 690.774166097 1168 512 1168 c 0
 333.232089436 1168 192 945.755604266 192 624 c 0
 192 451.746439247 232.474024317 308.016532685 297.515453754 211.636759283 c 1
 332.899121537 276.142232776 401.44750975 320 480 320 c 0
 578.832864842 320 661.921356862 250.495053449 682.893663505 157.856847005 c 1
EndSplineSet
EndChar

StartChar: c
Encoding: 99 99 84
Width: 1024
VWidth: 0
Flags: HW
AnchorPoint: "top" 512 912 basechar 0
LayerCount: 2
Back
SplineSet
848 576 m 25
 848 816 l 1049
880 256 m 0
 880 132 715 32 512 32 c 1024
848 595.335385129 m 1025
512 32 m 1
 309 32 144 211 144 432 c 0
 144 653 309 832 512 832 c 0
 661.548870975 832 790.474459105 734.853483439 848 595.335385129 c 1025
EndSplineSet
Fore
SplineSet
848 528 m 0
 821.855528292 528 800 549.853633925 800 576 c 2
 800 585.526348959 l 1
 747.364315521 704.662375986 636.895753656 784 512 784 c 0
 338.897660174 784 192 629.895072839 192 432 c 0
 192 234.104941184 338.897683122 80 512 80 c 0
 708.688662568 80 832 178.034617176 832 256 c 0
 832 282.146366075 853.855528292 304 880 304 c 0
 906.144471708 304 928 282.146366075 928 256 c 0
 928 85.9653828239 721.311337432 -16 512 -16 c 0
 279.102316878 -16 96 187.895058816 96 432 c 0
 96 676.104927161 279.102339826 880 512 880 c 0
 624.460110718 880 725.652039492 832.061195106 800 755.19771141 c 1
 800 816 l 2
 800 842.144471708 821.853633925 864 848 864 c 0
 874.146366075 864 896 842.144471708 896 816 c 2
 896 576 l 2
 896 549.853633925 874.144471708 528 848 528 c 0
EndSplineSet
EndChar

StartChar: b
Encoding: 98 98 85
Width: 1024
VWidth: 0
Flags: HW
AnchorPoint: "top" 512 1272 basechar 0
LayerCount: 2
Back
SplineSet
257 561.110555669 m 5
 299.892772307 718.709870796 419.186988408 832 560 832 c 4
 737 832 880 653 880 432 c 4
 880 211 737 32 560 32 c 4
 419.186988408 32 299.892772307 145.290129204 257 302.889444331 c 1029
96 48 m 25
 256 48 l 25
 256 1200 l 25
 96 1200 l 1049
EndSplineSet
Fore
SplineSet
48 48 m 1
 48 96 l 1
 96 96 l 1
 208 96 l 1
 208 300.148461397 l 1
 198.079386329 336.599402572 l 1
 208 339.299430951 l 1
 208 524.700569049 l 1
 198.079386329 527.400597428 l 1
 208 563.851538603 l 1
 208 1152 l 1
 96 1152 l 1
 48 1152 l 1
 48 1200 l 1
 48 1248 l 1
 96 1248 l 1
 256 1248 l 2
 276.601416319 1248 304 1229.05447268 304 1200 c 2
 304 754.328161427 l 1
 368.960449192 831.026287867 458.125449435 880 560 880 c 0
 772.535089074 880 928 670.304185685 928 432 c 0
 928 193.696010149 772.534925137 -16 560 -16 c 0
 458.125375945 -16 368.960412816 32.9737047639 304 109.671798063 c 1
 304 48 l 2
 304 27.3985836813 285.054472683 0 256 0 c 2
 96 0 l 1
 48 0 l 1
 48 48 l 1
304 313.008460791 m 1
 343.492034805 171.273703097 447.693416754 80 560 80 c 0
 701.465074863 80 832 228.303989851 832 432 c 0
 832 635.695814315 701.464910926 784 560 784 c 0
 447.69324923 784 343.492018608 692.726243196 304 550.991539248 c 1
 304 313.008460791 l 1
EndSplineSet
EndChar

StartChar: t
Encoding: 116 116 86
Width: 1024
VWidth: 0
Flags: HW
AnchorPoint: "top" 512 1272 basechar 0
LayerCount: 2
Back
SplineSet
112 816 m 25
 656 816 l 1049
384 208 m 25
 384 1184 l 1049
896 336 m 0
 896 159 753 16 576 16 c 1024
576 16 m 0
 470 16 384 102 384 208 c 1024
EndSplineSet
Fore
SplineSet
64 816 m 0
 64 842.144471708 85.8536339246 864 112 864 c 2
 336 864 l 1
 336 1184 l 2
 336 1210.14447171 357.853633925 1232 384 1232 c 0
 410.146366075 1232 432 1210.14447171 432 1184 c 2
 432 864 l 1
 656 864 l 2
 682.144471708 864 704 842.146366075 704 816 c 0
 704 789.853633925 682.144471708 768 656 768 c 2
 432 768 l 1
 432 208 l 2
 432 128.509840284 496.509612655 64 576 64 c 0
 726.525891007 64 848 185.474034493 848 336 c 0
 848 362.146366075 869.855528292 384 896 384 c 0
 922.144471708 384 944 362.146366075 944 336 c 0
 944 132.525965507 779.474108993 -32 576 -32 c 0
 443.490387345 -32 336 75.4901597163 336 208 c 2
 336 768 l 1
 112 768 l 2
 85.8536339246 768 64 789.855528292 64 816 c 0
EndSplineSet
EndChar

StartChar: C
Encoding: 67 67 87
Width: 1024
VWidth: 0
Flags: HW
AnchorPoint: "top" 512 1272 basechar 0
LayerCount: 2
Back
SplineSet
848 816 m 29
 848 1200 l 1053
880 432 m 4
 880 211 715 32 512 32 c 1028
512 32 m 4
 309 32 144 297 144 624 c 4
 144 951 309 1216 512 1216 c 4
 661.548870975 1216 790.474459105 1072.17973805 848 865.702073769 c 1029
EndSplineSet
Fore
SplineSet
848 768 m 0
 821.855528292 768 800 789.853633925 800 816 c 2
 800 859.038642433 l 1
 744.036072452 1053.51875007 626.742384934 1168 512 1168 c 0
 354.232033333 1168 192 943.788782471 192 624 c 0
 192 304.21070979 354.231846068 80 512 80 c 0
 685.102339826 80 832 234.104927161 832 432 c 0
 832 458.146366075 853.855528292 480 880 480 c 0
 906.144471708 480 928 458.146366075 928 432 c 0
 928 187.895072839 744.897660174 -16 512 -16 c 0
 263.768153932 -16 96 289.78929021 96 624 c 0
 96 958.211217529 263.767966667 1264 512 1264 c 0
 628.990072096 1264 728.084993031 1194.33442102 800 1088.04072721 c 1
 800 1200 l 2
 800 1226.14447171 821.853633925 1248 848 1248 c 0
 874.146366075 1248 896 1226.14447171 896 1200 c 2
 896 816 l 2
 896 789.853633925 874.144471708 768 848 768 c 0
EndSplineSet
EndChar

StartChar: G
Encoding: 71 71 88
Width: 1024
VWidth: 0
Flags: HW
AnchorPoint: "top" 512 1272 basechar 0
LayerCount: 2
Back
SplineSet
848 560 m 25
 848 48 l 1053
656 576 m 25
 976 576 l 1049
848 1200 m 25
 848 816 l 1049
848 382.297851562 m 1
 790.474609375 175.8203125 696 32 512 32 c 0
 279.99315496 32 144 297 144 624 c 0
 144 951 280 1216 512 1216 c 0
 696 1216 790.474459105 1072.17973805 848 865.702073769 c 1025
848 1200 m 1049
EndSplineSet
Fore
SplineSet
608 576 m 0
 608 602.144471708 629.853633925 624 656 624 c 2
 976 624 l 2
 1002.14447171 624 1024 602.146366075 1024 576 c 0
 1024 549.853633925 1002.14447171 528 976 528 c 2
 896 528 l 1
 896 48 l 2
 896 21.8555282921 874.146366075 0 848 0 c 0
 821.853633925 0 800 21.8555282921 800 48 c 2
 800 147.473163067 l 1
 735.696816329 49.0601030204 644.479182372 -16 512 -16 c 0
 234.763367255 -16 96 292.518882376 96 624 c 0
 96 955.482426807 234.769073368 1264 512 1264 c 0
 644.477840446 1264 735.696173364 1198.93880068 800 1100.52503563 c 1
 800 1200 l 2
 800 1226.14636608 821.855528292 1248 848 1248 c 0
 874.144471708 1248 896 1226.14636608 896 1200 c 2
 896 816 l 2
 896 789.855528292 874.146366075 768 848 768 c 0
 821.853633925 768 800 789.855528292 800 816 c 2
 800 859.08119548 l 1
 743.569676534 1057.83783026 661.069717799 1168 512 1168 c 0
 325.230926632 1168 192 946.517573193 192 624 c 0
 192 301.481117624 325.222942666 80 512 80 c 0
 661.06676675 80 743.570229959 190.163929559 800 388.918721712 c 1
 800 528 l 1
 656 528 l 2
 629.853633925 528 608 549.855528292 608 576 c 0
EndSplineSet
EndChar

StartChar: r
Encoding: 114 114 90
Width: 1024
VWidth: 0
Flags: HW
AnchorPoint: "top" 512 912 basechar 0
LayerCount: 2
Back
SplineSet
928 672 m 25
 928 624 l 1049
832 624 m 0
 832 650 854 672 880 672 c 0
 906 672 928 650 928 624 c 0
 928 598 906 576 880 576 c 0
 854 576 832 598 832 624 c 0
672 832 m 0
 813 832 928 760 928 672 c 1024
416 576 m 0
 416 717 531 832 672 832 c 1024
144 816 m 25
 416 816 l 25
 416 64 l 1049
144 48 m 25
 688 48 l 1049
EndSplineSet
Fore
SplineSet
96 816 m 0
 96 842.144471708 117.853633925 864 144 864 c 2
 416 864 l 2
 445.054472683 864 464 836.601416319 464 816 c 2
 464 797.456951021 l 1
 518.428773326 848.611484913 591.636274013 880 672 880 c 0
 820.455105034 880 976 805.103124793 976 672 c 2
 976 624 l 2
 976 571.134853272 932.865076047 528 880 528 c 0
 827.134853272 528 784 571.134923953 784 624 c 0
 784 669.369383041 815.769903809 707.572172085 858.194822323 717.493612057 c 1
 827.063469966 751.659756488 763.35873775 784 672 784 c 0
 557.554060986 784 464 690.44592155 464 576 c 2
 464 96 l 1
 688 96 l 2
 714.144471708 96 736 74.1463660754 736 48 c 0
 736 21.8536339246 714.144471708 0 688 0 c 2
 144 0 l 2
 117.853633925 0 96 21.8555282921 96 48 c 0
 96 74.1444717079 117.853633925 96 144 96 c 2
 368 96 l 1
 368 576 l 1
 368 768 l 1
 144 768 l 2
 117.853633925 768 96 789.855528292 96 816 c 0
EndSplineSet
EndChar

StartChar: nine
Encoding: 57 57 91
Width: 1024
VWidth: 0
Flags: HW
LayerCount: 2
Back
SplineSet
192 208 m 29
 192 240 l 1053
448 32 m 4
 307 32 192 111 192 208 c 1028
288 240 m 4
 288 214 266 192 240 192 c 4
 214 192 192 214 192 240 c 4
 192 266 214 288 240 288 c 4
 266 288 288 266 288 240 c 4
880 624 m 29
 880 848 l 1053
880 624 m 4
 880 297 686 32 448 32 c 1028
880 848 m 4
 880 645 715 480 512 480 c 4
 309 480 144 645 144 848 c 4
 144 1051 309 1216 512 1216 c 4
 715 1216 880 1051 880 848 c 4
EndSplineSet
Fore
SplineSet
144 208 m 2
 144 240 l 2
 144 292.865146728 187.134923953 336 240 336 c 0
 292.865146728 336 336 292.865076047 336 240 c 0
 336 196.530700072 306.835438923 159.640285924 267.077865495 147.900188393 c 1
 300.411291786 110.961861461 363.193872449 80 448 80 c 0
 637.626393333 80 814.793625772 289.741386715 830.821947831 580.942010662 c 1
 754.474062503 489.924116596 639.923304398 432 512 432 c 1
 282.474926242 432 96 618.474901907 96 848 c 0
 96 1077.52507376 282.474901907 1264 512 1264 c 0
 741.525073758 1264 928 1077.52509809 928 848 c 2
 928 624 l 2
 928 283.357481052 725.14962989 -16 448 -16 c 0
 295.793343545 -16 144 69.4767199354 144 208 c 2
832 848 m 0
 832 1024.47490191 688.474926242 1168 512 1168 c 0
 335.525098093 1168 192 1024.47492624 192 848 c 0
 192 671.525098093 335.525073758 528 512 528 c 0
 688.474901907 528 832 671.525073758 832 848 c 0
EndSplineSet
EndChar

StartChar: six
Encoding: 54 54 92
Width: 1024
VWidth: 0
Flags: HW
LayerCount: 2
Back
SplineSet
832 1040 m 29
 832 1008 l 1053
576 1216 m 4
 717 1216 832 1137 832 1040 c 1028
736 1008 m 4
 736 1034 758 1056 784 1056 c 4
 810 1056 832 1034 832 1008 c 4
 832 982 810 960 784 960 c 4
 758 960 736 982 736 1008 c 4
144 624 m 29
 144 400 l 1053
144 624 m 4
 144 951 338 1216 576 1216 c 1028
144 400 m 4
 144 603 309 768 512 768 c 4
 715 768 880 603 880 400 c 4
 880 197 715 32 512 32 c 4
 309 32 144 197 144 400 c 4
EndSplineSet
Fore
SplineSet
880 1040 m 2
 880 1008 l 2
 880 955.134853272 836.865076047 912 784 912 c 0
 731.134853272 912 688 955.134923953 688 1008 c 0
 688 1051.46929993 717.164561077 1088.35971408 756.922134505 1100.09981161 c 1
 723.588708214 1137.03813854 660.806127551 1168 576 1168 c 0
 386.373606667 1168 209.206374228 958.258613285 193.178052169 667.057989338 c 1
 269.525937497 758.075883404 384.076695602 816 512 816 c 1
 741.525073758 816 928 629.525098093 928 400 c 0
 928 170.474926242 741.525098093 -16 512 -16 c 0
 282.474926242 -16 96 170.474901907 96 400 c 2
 96 624 l 2
 96 964.642518948 298.85037011 1264 576 1264 c 0
 728.206656455 1264 880 1178.52328006 880 1040 c 2
192 400 m 0
 192 223.525098093 335.525073758 80 512 80 c 0
 688.474901907 80 832 223.525073758 832 400 c 0
 832 576.474901907 688.474926242 720 512 720 c 0
 335.525098093 720 192 576.474926242 192 400 c 0
EndSplineSet
EndChar

StartChar: five
Encoding: 53 53 93
Width: 1024
VWidth: 0
Flags: HW
LayerCount: 2
Back
SplineSet
208 656 m 25
 208 1200 l 25
 816 1200 l 25
 816 976 l 1053
512 768 m 0
 304 768 208 656 208 656 c 1024
512 768 m 0
 715 768 880 603 880 400 c 0
 880 197 715 32 512 32 c 1024
512 32 m 0
 309 32 144 147 144 288 c 1024
144 288 m 25
 144 320 l 1049
144 320 m 0
 144 346 166 368 192 368 c 0
 218 368 240 346 240 320 c 0
 240 294 218 272 192 272 c 0
 166 272 144 294 144 320 c 0
EndSplineSet
Fore
SplineSet
256 752.428900533 m 1
 312.119455951 784.415391976 396.718317003 816 512 816 c 0
 741.525073758 816 928 629.525098093 928 400 c 0
 928 170.474926242 741.525098093 -16 512 -16 c 0
 297.286411788 -16 96 105.969921739 96 288 c 2
 96 320 l 2
 96 372.865146728 139.134923953 416 192 416 c 0
 244.865146728 416 288 372.865076047 288 320 c 0
 288 272.665567724 253.418446582 233.131975974 208.234374774 225.378107567 c 1
 248.481995944 147.624631374 360.656340641 80 512 80 c 0
 688.474901907 80 832 223.525073758 832 400 c 0
 832 576.474901907 688.474926242 720 512 720 c 0
 329.806583938 720 247.442909758 628.085745698 243.091802438 623.247691349 c 0
 238.545313164 618.297413314 233.016688639 614.539885292 226.986568055 612.022070928 c 0
 221.138275383 609.439666871 214.710410622 607.99999971 208 608 c 0
 201.573843149 608 195.406801695 609.320281585 189.75973198 611.700072195 c 0
 185.092442232 613.566040491 180.671587558 616.193990996 176.705416853 619.604271327 c 0
 169.266822528 626.000288582 164.218592785 634.272843177 161.778711345 643.228548708 c 0
 160.620945656 647.307671545 160.000000272 651.592854622 160 656 c 2
 160 1200 l 2
 160 1229.05447268 187.398583681 1248 208 1248 c 2
 816 1248 l 2
 845.054472683 1248 864 1220.60141632 864 1200 c 2
 864 976 l 2
 864 949.855528292 842.146366075 928 816 928 c 0
 789.853633925 928 768 949.855528292 768 976 c 2
 768 1152 l 1
 256 1152 l 1
 256 752.428900533 l 1
EndSplineSet
EndChar

StartChar: two
Encoding: 50 50 94
Width: 1024
VWidth: 0
Flags: HW
LayerCount: 2
Back
SplineSet
848 944 m 4
 848 784 712 679 512 624 c 4
 336.10187302 575.628015081 144 416 144 48 c 1028
880 336 m 4
 880 128 800 32 656 32 c 4
 512 32 512 176 368 176 c 4
 224 176 144 48 144 48 c 1028
176 944 m 4
 176 1094 327 1216 512 1216 c 4
 697 1216 848 1094 848 944 c 1028
176 912 m 5
 176 944 l 1053
176 912 m 4
 176 938 198 960 224 960 c 4
 250 960 272 938 272 912 c 4
 272 886 250 864 224 864 c 4
 198 864 176 886 176 912 c 4
EndSplineSet
Fore
SplineSet
880 384 m 0
 906.144471708 384 928 362.146366075 928 336 c 0
 928 115.536250155 832.862545349 -16 656 -16 c 0
 467.687387902 -16 467.646956675 128 368 128 c 0
 256.808772692 128 187.957666523 27.6125838778 184.039134102 21.522953911 c 0
 179.140635722 14.2503666769 172.629959443 8.74090390974 165.324266427 5.13040509204 c 0
 158.869976375 1.8549159845 151.617153737 5.74597163405e-07 144 0 c 0
 140.160997763 0 136.414539436 0.47116754128 132.816211219 1.35789782209 c 0
 127.850139327 2.52404141698 123.012192049 4.50455496798 118.501744583 7.33258096831 c 0
 108.739188515 13.4536516943 101.850018223 22.6277519308 98.4727550431 32.995687302 c 0
 96.8708138127 37.7330680219 96.0000008825 42.781082299 96 48 c 0
 96 435.728069265 304.023842995 616.588481255 499.272488815 670.281858855 c 0
 693.405824324 723.668526119 800 817.444489719 800 944 c 0
 800 1058.85753624 679.169476827 1168 512 1168 c 0
 376.123084232 1168 270.861547363 1095.89572595 236.213853501 1007.22384333 c 1
 283.350857921 1001.19066274 320 960.728899697 320 912 c 1
 320 859.134853272 276.865076047 816 224 816 c 0
 171.134853272 816 128 859.134923953 128 912 c 2
 128 944 l 2
 128 1129.14145997 309.1706594 1264 512 1264 c 0
 714.830523173 1264 896 1129.14246376 896 944 c 0
 896 750.555510281 730.594175676 634.331473881 524.727511185 577.718141145 c 0
 388.238142033 540.183564629 236.825095597 430.171552104 200.265127349 171.77519412 c 1
 242.549044078 200.360816437 298.516666841 224 368 224 c 1
 556.353043325 224 556.312612098 80 656 80 c 0
 767.137454651 80 832 140.463749845 832 336 c 0
 832 362.146366075 853.855528292 384 880 384 c 0
EndSplineSet
EndChar

StartChar: y
Encoding: 121 121 95
Width: 1024
VWidth: 0
Flags: HW
AnchorPoint: "top" 512 912 basechar 0
LayerCount: 2
Back
SplineSet
203 814 m 1
 506 -16 l 1049
112 -192 m 0
 112 -280 176 -352 288 -352 c 0
 293.486275023 -352 288 -352 304 -352 c 0
 400 -352 448 -208 448 -208 c 0
 448 -208 676 417 822 816 c 1048
112 -192 m 25
 112 -144 l 1049
112 -144 m 0
 112 -118 134 -96 160 -96 c 0
 186 -96 208 -118 208 -144 c 0
 208 -170 186 -192 160 -192 c 0
 134 -192 112 -170 112 -144 c 0
640 816 m 25
 960 816 l 1049
64 816 m 25
 384 816 l 1049
EndSplineSet
Fore
SplineSet
592 816 m 0
 592 842.144471708 613.853633925 864 640 864 c 2
 960 864 l 2
 986.144471708 864 1008 842.146366075 1008 816 c 0
 1008 789.853633925 986.144471708 768 960 768 c 2
 855.550005665 768 l 1
 711.883781149 375.285745107 500.414558448 -204.380835624 493.270827207 -223.963113207 c 0
 493.19022025 -224.19770012 443.210245823 -400 304 -400 c 2
 288 -400 l 2
 152.425069749 -400 64 -306.567567711 64 -192 c 2
 64 -144 l 2
 64 -91.1348532724 107.134923953 -48 160 -48 c 0
 212.865146728 -48 256 -91.1349239534 256 -144 c 0
 256 -193.748140252 217.801716034 -234.879584834 169.242680431 -239.556978122 c 1
 185.572362267 -277.497691361 223.985076269 -304 288 -304 c 2
 304 -304 l 2
 352.21491003 -304 398.008777698 -205.839521951 402.754206798 -191.968267659 c 0
 402.998202337 -191.299420837 425.565837587 -129.436406938 460.933549054 -32.5231624334 c 0
 460.925875805 -32.5022359585 460.918216402 -32.4813010975 460.910570872 -32.4603578622 c 2
 168.694319749 768 l 1
 64 768 l 2
 37.8536339246 768 16 789.855528292 16 816 c 0
 16 842.144471708 37.8536339246 864 64 864 c 2
 384 864 l 2
 410.144471708 864 432 842.146366075 432 816 c 0
 432 789.853633925 410.144471708 768 384 768 c 2
 270.891222419 768 l 1
 512.026720815 107.463816276 l 1
 583.035571147 301.993356824 676.367560872 557.579104208 753.329090919 768 c 1
 640 768 l 2
 613.853633925 768 592 789.855528292 592 816 c 0
EndSplineSet
EndChar

StartChar: S
Encoding: 83 83 96
Width: 1024
VWidth: 0
Flags: HW
AnchorPoint: "top" 512 1272 basechar 0
LayerCount: 2
Back
SplineSet
144 48 m 25
 144 432 l 17
 144 211 309 32 512 32 c 1024
848 1200 m 25
 848 864 l 17
 848 1058 697 1216 512 1216 c 1024
512 32 m 0
 715 32 880 161 880 320 c 0
 880 479 772.974054548 625.983232918 512 672 c 1
 280.570178042 712.807321752 176 819 176 960 c 1
 176 1101 327 1216 512 1216 c 1024
EndSplineSet
Fore
SplineSet
512 -16 m 0
 382.701595658 -16 267.880136222 47.5572932684 192 145.735234713 c 1
 192 48 l 2
 192 21.8536339246 170.144471708 0 144 0 c 0
 117.855528292 0 96 21.8536339246 96 48 c 2
 96 432 l 2
 96 432.333333333 106.666666667 432.444444444 120.888888889 432.444444444 c 0
 149.333333333 432.444444444 192 432 192 432 c 1
 192 234.104927161 338.897660174 80 512 80 c 0
 698.564752569 80 832 197.443298218 832 320 c 0
 832 452.843763951 748.287286728 581.595698781 503.664887472 624.729227855 c 0
 262.158599133 667.313302501 128 787.602962276 128 960 c 0
 128 1138.54114241 311.622265224 1264 512 1264 c 0
 626.830630332 1264 729.394386514 1211.4089746 800 1128.20600747 c 1
 800 1200 l 2
 800 1226.14636608 821.855528292 1248 848 1248 c 0
 874.144471708 1248 896 1226.14636608 896 1200 c 2
 896 864 l 2
 896 863.666666667 885.333333333 863.555555556 871.111111111 863.555555556 c 0
 842.666666667 863.555555556 800 864 800 864 c 1
 800 1033.3478051 668.555170793 1168 512 1168 c 0
 342.377734776 1168 224 1063.45885759 224 960 c 0
 224 850.397037724 298.981756951 758.301341003 520.335112528 719.270772145 c 0
 797.660822368 670.370767055 928 505.156236049 928 320 c 0
 928 124.556701782 731.435247431 -16 512 -16 c 0
EndSplineSet
EndChar

StartChar: s
Encoding: 115 115 97
Width: 1024
VWidth: 0
Flags: HW
AnchorPoint: "top" 512 912 basechar 0
LayerCount: 2
Back
SplineSet
848 592 m 25
 848 816 l 1049
144 304 m 25
 144 48 l 1049
848 592 m 17
 848 724 697 832 512 832 c 1024
144 304 m 17
 144 154 309 32 512 32 c 1024
176 656 m 0
 176 550 361.484943065 477.168361172 512 464 c 0
 679.440404855 449.350862759 880 364 880 240 c 0
 880 125 714 32 512 32 c 1024
176 656 m 0
 176 753 327 832 512 832 c 1024
EndSplineSet
Fore
SplineSet
800 783.724441518 m 1
 800 816 l 2
 800 842.144471708 821.853633925 864 848 864 c 0
 874.146366075 864 896 842.144471708 896 816 c 2
 896 592 l 2
 896 565.853633925 874.144471708 544 848 544 c 0
 821.855528292 544 800 565.853633925 800 592 c 0
 800 683.942600121 684.230521411 784 512 784 c 0
 327.6243347 784 224 701.603162143 224 656 c 0
 224 603.831899191 360.915529955 525.401530566 516.183475652 511.817345508 c 0
 681.428105328 497.360313703 928 415.48317377 928 240 c 0
 928 76.1794333027 717.397106621 -16 512 -16 c 0
 388.260373978 -16 270.451095441 26.6470042937 192 98.2556510701 c 1
 192 48 l 2
 192 21.8555282921 170.146366075 0 144 0 c 0
 117.853633925 0 96 21.8555282921 96 48 c 2
 96 304 l 2
 96 330.146366075 117.855528292 352 144 352 c 0
 170.144471708 352 192 330.146366075 192 304 c 0
 192 192.686091501 323.130032928 80 512 80 c 0
 710.602893379 80 832 173.820566697 832 240 c 0
 832 312.51682623 677.452704382 401.341411815 507.816524348 416.182654492 c 0
 362.054356175 428.935191778 128 496.168100809 128 656 c 0
 128 804.396837857 326.3756653 880 512 880 c 0
 621.381097193 880 727.232536806 844.534258084 800 783.724441518 c 1
EndSplineSet
EndChar

StartChar: a
Encoding: 97 97 98
Width: 1024
VWidth: 0
Flags: HW
AnchorPoint: "top" 512 912 basechar 0
LayerCount: 2
Back
SplineSet
768 128 m 25
 768 334 768 559 768 656 c 0
 768 753 639 832 480 832 c 1024
848 48 m 0
 804 48 768 84 768 128 c 1024
976 176 m 0
 976 105 919 48 848 48 c 1024
192 656 m 0
 192 753 321 832 480 832 c 1024
192 656 m 0
 192 682 214 704 240 704 c 0
 266 704 288 682 288 656 c 0
 288 630 266 608 240 608 c 0
 214 608 192 630 192 656 c 0
768 656 m 0
 768 550 632 464 464 464 c 1024
768 208 m 0
 768 111 617 32 432 32 c 1024
432 32 m 0
 256 32 144 112 144 240 c 1024
144 240 m 0
 144 364 287 464 464 464 c 1024
EndSplineSet
Fore
SplineSet
976 224 m 0
 1002.14447171 224 1024 202.146366075 1024 176 c 0
 1024 78.5793291964 945.423572253 0 848 0 c 0
 799.806926215 0 757.75009948 26.7701910378 735.918636004 66.2217712689 c 1
 661.02464333 11.6139803088 544.183616211 -16 432 -16 c 0
 244.358064251 -16 96 74.9572128283 96 240 c 0
 96 404.72902124 275.124156793 512 464 512 c 0
 624.175555617 512 720 594.632184926 720 656 c 0
 720 707.128729701 632.447064355 784 480 784 c 0
 399.029406987 784 336.366013484 762.31394442 295.404991659 734.317380425 c 1
 319.938273226 716.894860559 336 688.258993697 336 656 c 0
 336 603.134853272 292.865076047 560 240 560 c 0
 187.134853272 560 144 603.134923953 144 656 c 0
 144 798.871270299 314.447064355 880 480 880 c 0
 645.552935645 880 816 798.871270299 816 656 c 2
 816 208 l 1
 816 128 l 2
 816 110.581092812 830.580763644 96 848 96 c 0
 892.576427747 96 928 131.420670804 928 176 c 0
 928 202.146366075 949.855528292 224 976 224 c 0
720 488.805905528 m 1
 652.72978668 441.714521935 558.314379307 416 464 416 c 0
 298.875843207 416 192 323.27097876 192 240 c 0
 192 149.042787172 267.641935749 80 432 80 c 0
 616.3756653 80 720 162.396837857 720 208 c 2
 720 488.805905528 l 1
EndSplineSet
EndChar

StartChar: dollar
Encoding: 36 36 99
Width: 1024
VWidth: 0
Flags: HW
LayerCount: 2
Back
SplineSet
144 48 m 29
 144 432 l 21
 144 211 309 32 512 32 c 1028
848 1200 m 29
 848 864 l 21
 848 1058 697 1216 512 1216 c 1028
512 32 m 4
 715 32 880 161 880 320 c 4
 880 479 772.974054548 625.983232918 512 672 c 5
 280.570178042 712.807321752 176 819 176 960 c 5
 176 1101 327 1216 512 1216 c 1028
608 -144 m 29
 608 1392 l 1053
416 1392 m 29
 416 -144 l 1053
EndSplineSet
Fore
SplineSet
608 -192 m 0
 581.855528292 -192 560 -170.146366075 560 -144 c 2
 560 -13.7509620383 l 1
 544.169970673 -15.2389429251 528.146902526 -16 512 -16 c 0
 495.755313631 -16 479.739141493 -14.996767195 464 -13.0476871518 c 1
 464 -144 l 2
 464 -170.144471708 442.146366075 -192 416 -192 c 0
 389.853633925 -192 368 -170.144471708 368 -144 c 2
 368 11.593133896 l 1
 298.611700484 39.1905115985 238.114637924 86.0695508167 192 145.735234713 c 1
 192 48 l 2
 192 21.8536339246 170.144471708 0 144 0 c 0
 117.855528292 0 96 21.8536339246 96 48 c 2
 96 432 l 2
 96 432.333333333 106.666666667 432.444444444 120.888888889 432.444444444 c 0
 149.333333333 432.444444444 192 432 192 432 c 1
 192 292.817891306 264.662734856 175.296520714 368 117.813593303 c 1
 368 660.966225657 l 1
 212.691889209 719.394064979 128 823.186270051 128 960 c 0
 128 1094.08094843 231.557812647 1198.22497554 368 1241.77828228 c 1
 368 1392 l 2
 368 1418.14636608 389.855528292 1440 416 1440 c 0
 442.144471708 1440 464 1418.14636608 464 1392 c 2
 464 1261.59657715 l 1
 479.833210774 1263.18625657 495.862266246 1264 512 1264 c 0
 528.264752819 1264 544.283404655 1262.94490619 560 1260.89717522 c 1
 560 1392 l 2
 560 1418.14447171 581.853633925 1440 608 1440 c 0
 634.146366075 1440 656 1418.14447171 656 1392 c 2
 656 1234.81093076 l 1
 711.621202558 1211.25392608 760.74889438 1174.46023981 800 1128.20600747 c 1
 800 1200 l 2
 800 1226.14636608 821.855528292 1248 848 1248 c 0
 874.144471708 1248 896 1226.14636608 896 1200 c 2
 896 864 l 2
 896 863.666666667 885.333333333 863.555555556 871.111111111 863.555555556 c 0
 842.666666667 863.555555556 800 864 800 864 c 1
 800 977.00731961 741.467441163 1074.56463744 656 1126.96949382 c 1
 656 682.09484197 l 1
 840.371865361 610.224139689 928 471.800228822 928 320 c 0
 928 168.965241952 810.613572292 50.7081889627 656 4.76529042606 c 1
 656 -144 l 2
 656 -170.146366075 634.144471708 -192 608 -192 c 0
512 1168 m 0
 495.494138524 1168 479.473518834 1167.01008497 464 1165.12758034 c 1
 464 731.159386002 l 1
 481.641843267 726.780071521 500.420690274 722.805397526 520.388377972 719.26134906 c 0
 533.942691981 716.872466132 547.145921821 714.205424652 560 711.271498125 c 1
 560 1163.72723867 l 1
 544.352825702 1166.53805262 528.312726998 1168 512 1168 c 0
512 80 m 0
 528.430353692 80 544.448637948 80.9108835755 560 82.6559238888 c 1
 560 612.604677051 l 1
 542.243524504 617.181123138 523.470625571 621.238561217 503.640126137 624.733591769 c 0
 490.08870316 627.138822687 476.873656696 629.788161567 464 632.677212326 c 1
 464 83.9900409576 l 1
 479.701906284 81.3605167184 495.735279018 80 512 80 c 0
656 105.745348757 m 1
 763.483980815 146.983834767 832 232.179108124 832 320 c 0
 832 420.20634676 784.399411516 518.083385667 656 578.641069436 c 1
 656 105.745348757 l 1
368 1139.73082416 m 1
 279.107708597 1101.68241923 224 1030.58929469 224 960 c 0
 224 881.009347603 263.205967884 811.133597639 368 763.597677073 c 1
 368 1139.73082416 l 1
EndSplineSet
EndChar

StartChar: at
Encoding: 64 64 100
Width: 1024
VWidth: 0
Flags: HW
LayerCount: 2
Back
SplineSet
656 624 m 1
 656 624 638.315429688 558 638.315429688 558 c 4
 625.892115523 511.635560338 648 432 752 432 c 5
 880.000375465 431.363848444 959.999958645 512.070068232 960 720 c 1024
512 1216 m 0
 800 1216 960 994 960 720 c 1024
656 624 m 25
 707.446289062 816 l 1049
336 624 m 0
 366.814453125 739 463.733398438 832 551.733398438 832 c 0
 639.733398438 832 686.814453125 739 656 624 c 0
 625.185546875 509 528.266601562 416 440.266601562 416 c 0
 352.266601562 416 305.185546875 509 336 624 c 0
768 138.268533647 m 1
 695.38411275 71.2851706426 607.101712695 32 512 32 c 0
 265 32 64 297 64 624 c 0
 64 951 265 1216 512 1216 c 1024
EndSplineSet
Fore
SplineSet
289.635590172 636.423425507 m 0
 324.136906994 765.182855973 431.950965461 880 551.733398438 880 c 0
 565.802858119 880 579.582984117 878.270366809 592.744345087 874.807610863 c 0
 621.361477886 867.278439146 644.701298409 853.01210315 662.949011103 833.974677511 c 1
 670.344359062 852.10840662 688.494588391 863.956954895 707.76725854 863.956954895 c 0
 711.781694475 863.956954895 715.844830386 863.442875226 719.869613167 862.364436999 c 0
 741.100136526 856.675730532 755.403195494 836.853959044 755.403195494 815.678807791 c 0
 755.403195494 811.664379901 754.889124371 807.601309726 753.810726061 803.576675896 c 2
 702.364763539 611.577894561 l 1
 702.36443232 611.576658436 l 1
 702.364409828 611.576574493 l 1
 684.679869349 545.576685835 l 2
 683.834117427 542.420296691 683.200520532 538.047369151 683.197736773 533.29497302 c 0
 683.197736773 509.974394646 691.652902839 480 752.11927733 480 c 0
 752.615395825 479.997534331 753.110643945 479.996294486 753.605017501 479.996294486 c 0
 849.12800205 479.996294486 911.999960439 526.284737258 912 720.000004773 c 0
 912 975.531950898 768.716164732 1168 512 1168 c 0
 302.730363063 1168 112 935.896750198 112 624 c 0
 112 312.102997935 302.730172413 80 512 80 c 0
 593.473709009 80 670.152360948 113.313208304 735.454804775 173.550402472 c 0
 744.546366236 181.936767834 756.248007695 186.076732683 767.932327784 186.076732683 c 0
 780.947421595 186.076732683 793.941023746 180.940030727 803.281868825 170.813728872 c 0
 811.667945805 161.722480043 815.808185511 150.020616686 815.808185511 138.335874549 c 0
 815.808185511 125.32125088 810.671884709 112.327867463 800.545195225 102.986664822 c 0
 720.615864552 29.2571329815 620.729716381 -16 512 -16 c 0
 227.269827587 -16 16 281.897002065 16 624 c 0
 16 966.103249802 227.269636937 1264 512 1264 c 0
 831.283835268 1264 1008 1012.4680491 1008 720 c 2
 1008 719.999990453 l 2
 1007.99995617 499.611479157 912.181547819 383.995944969 753.510437765 383.995944969 c 0
 752.967933702 383.995944969 752.424694897 383.997296502 751.88072267 384 c 0
 683.925527065 384 638.413991144 413.181061574 612.768443386 451.061303056 c 1
 564.941949413 400.827677227 504.315230497 368 440.266601562 368 c 0
 426.197141881 368 412.417015883 369.729633191 399.255654913 373.192389137 c 0
 317.573971323 394.682851726 278.886492172 471.0609168 278.886492172 556.607692765 c 0
 278.886492172 582.790978038 282.510685978 609.833176478 289.635590172 636.423425507 c 0
382.364409828 611.576574493 m 0
 376.660953159 590.291188889 374.211600413 571.393238831 374.211600413 554.835086074 c 0
 374.211600413 501.406083568 399.714038252 472.338837574 423.681997123 466.032864181 c 0
 428.551418938 464.751718607 434.007793767 464 440.266601562 464 c 0
 496.484135153 464 582.507898427 535.182771308 609.635541774 636.423244884 c 2
 609.635577167 636.423376969 l 1
 609.635590172 636.423425507 l 1
 609.635929786 636.424692963 l 2
 615.339144073 657.709561308 617.788399587 676.607089826 617.788399587 693.164913926 c 0
 617.788399587 746.593916432 592.285961748 775.661162426 568.318002877 781.967135819 c 0
 563.448581062 783.248281393 557.992206233 784 551.733398438 784 c 0
 495.515831414 784 409.491999256 712.817144027 382.364409828 611.576574493 c 0
EndSplineSet
EndChar

StartChar: ampersand
Encoding: 38 38 101
Width: 1024
VWidth: 0
Flags: HW
LayerCount: 2
Back
SplineSet
384 32 m 0
 252 32 144 128 144 368 c 0
 144 688 512 848 512 1040 c 1024
832 32 m 0
 944 32 960 144 960 304 c 1024
384 32 m 0
 656 32 848 576 848 704 c 1024
256 1040 m 0
 256 864 688 32 832 32 c 1024
256 1040 m 0
 256 1168 313 1216 384 1216 c 0
 455 1216 512 1168 512 1040 c 1024
656 720 m 25
 976 720 l 1049
EndSplineSet
Fore
SplineSet
608 720 m 0
 608 746.144471708 629.853633925 768 656 768 c 2
 976 768 l 2
 1002.14447171 768 1024 746.146366075 1024 720 c 0
 1024 693.853633925 1002.14447171 672 976 672 c 2
 893.60942977 672 l 1
 880.961722996 573.180752743 818.397852284 369.626501485 712.352756117 209.437703169 c 1
 763.89365487 135.688841399 807.402925727 86.2275322653 832.711664146 80.0024755842 c 1
 891.827674958 80.4157273672 911.999999222 132.591345341 912 304 c 0
 912 330.144471708 933.853633925 352 960 352 c 0
 986.146366075 352 1008 330.144471708 1008 304 c 0
 1008 156.094672884 996.334117017 -16 832 -16 c 0
 780.168225541 -16 715.163982448 38.6079316197 646.835136068 123.38246414 c 1
 573.802959637 40.9398546721 485.735935484 -16 384 -16 c 1
 220.030373981 -16 96 112.768918002 96 368 c 0
 96 545.53293774 188.467606538 679.331877539 280.7005193 785.97908955 c 1
 235.838691748 898.521562871 208 992.142877532 208 1040 c 0
 208 1183.94863489 282.391144114 1264 384 1264 c 0
 485.610316864 1264 560 1183.94833538 560 1040 c 0
 560 930.429583742 487.160478316 841.918930593 406.293627591 752.246366683 c 1
 474.517324302 606.706471908 566.605989096 437.064420665 649.715106488 304.522549011 c 1
 728.125592134 435.114503546 783.721410206 589.734473324 796.964960114 672 c 1
 656 672 l 2
 629.853633925 672 608 693.855528292 608 720 c 0
384 80 m 0
 454.662852777 80 523.28362581 132.918350427 583.742524856 208.565017907 c 1
 492.585275514 341.001674345 400.868597737 512.593021897 330.870525524 668.047403179 c 1
 256.143126344 581.228523986 192 487.333831352 192 368 c 0
 192 143.231081998 283.969626019 80 384 80 c 0
354.975194222 868.326691268 m 1
 416.158581899 935.177150308 464 990.344538799 464 1040 c 0
 464 1152.05166462 424.389683136 1168 384 1168 c 0
 343.608855886 1168 304 1152.05136511 304 1040 c 0
 304 1006.97697351 323.418988153 945.229596953 354.975194222 868.326691268 c 1
EndSplineSet
EndChar

StartChar: periodcentered
Encoding: 183 183 104
Width: 1024
VWidth: 0
Flags: HW
LayerCount: 2
Back
SplineSet
416 624 m 4
 416 650 459 672 512 672 c 4
 565 672 608 650 608 624 c 4
 608 598 565 576 512 576 c 4
 459 576 416 598 416 624 c 4
368 624 m 0
 368 677 433 720 512 720 c 0
 591 720 656 677 656 624 c 0
 656 571 591 528 512 528 c 0
 433 528 368 571 368 624 c 0
EndSplineSet
Fore
SplineSet
320 624 m 0
 320 719.788073869 423.092573968 768 512 768 c 0
 600.908900441 768 704 719.788777738 704 624 c 0
 704 528.211926131 600.907426032 480 512 480 c 0
 423.091099559 480 320 528.211222262 320 624 c 0
EndSplineSet
EndChar

StartChar: acute
Encoding: 180 180 105
Width: 1024
VWidth: 0
Flags: HW
LayerCount: 2
Back
SplineSet
320 816 m 25
 704 1200 l 1053
EndSplineSet
Fore
SplineSet
286.058874503 782.058874503 m 0
 276.815240451 791.302508555 272.193172252 803.651283037 272.193172252 816.000168722 c 0
 272.193172252 828.348607046 276.814905571 840.697156565 286.058874503 849.941125497 c 2
 670.058874503 1233.9411255 l 2
 679.302508555 1243.18475955 691.651283037 1247.80682775 704.000168722 1247.80682775 c 0
 716.348607046 1247.80682775 728.697156565 1243.18509443 737.941125497 1233.9411255 c 0
 747.185094429 1224.69715657 751.806827748 1212.34860705 751.806827748 1200.00016872 c 0
 751.806827748 1187.65128304 747.184759549 1175.30250855 737.941125497 1166.0588745 c 2
 353.941125497 782.058874503 l 2
 344.697156565 772.814905571 332.348607046 768.193172252 320.000168722 768.193172252 c 0
 307.651283037 768.193172252 295.302508555 772.815240451 286.058874503 782.058874503 c 0
EndSplineSet
EndChar

StartChar: degree
Encoding: 176 176 106
Width: 1024
VWidth: 0
Flags: HW
LayerCount: 2
Back
SplineSet
368 1072 m 4
 368 1151 433 1216 512 1216 c 4
 591 1216 656 1151 656 1072 c 4
 656 993 591 928 512 928 c 4
 433 928 368 993 368 1072 c 4
EndSplineSet
Fore
SplineSet
320 1072 m 0
 320 1177.62819357 406.371609847 1264 512 1264 c 0
 617.628193571 1264 704 1177.62839015 704 1072 c 0
 704 966.371806429 617.628390153 880 512 880 c 0
 406.371806429 880 320 966.371609847 320 1072 c 0
416 1072 m 0
 416 1019.62839015 459.628193571 976 512 976 c 0
 564.371609847 976 608 1019.62819357 608 1072 c 0
 608 1124.37160985 564.371806429 1168 512 1168 c 0
 459.628390153 1168 416 1124.37180643 416 1072 c 0
EndSplineSet
EndChar

StartChar: plusminus
Encoding: 177 177 107
Width: 1024
VWidth: 0
Flags: HW
LayerCount: 2
Back
Refer: 16 8722 N 1 0 0 1 0 -464 2
Refer: 13 43 N 1 0 0 1 0 96 2
Fore
SplineSet
96 720 m 0
 96 746.14453125 117.853515625 768 144 768 c 2
 464 768 l 1
 464 1088 l 2
 464 1114.14453125 485.853515625 1136 512 1136 c 0
 538.146484375 1136 560 1114.14453125 560 1088 c 2
 560 768 l 1
 880 768 l 2
 906.14453125 768 928 746.146484375 928 720 c 0
 928 693.853515625 906.14453125 672 880 672 c 2
 560 672 l 1
 560 352 l 2
 560 325.853515625 538.14453125 304 512 304 c 0
 485.85546875 304 464 325.853515625 464 352 c 2
 464 672 l 1
 144 672 l 2
 117.853515625 672 96 693.85546875 96 720 c 0
96 160 m 0
 96 186.14453125 117.853515625 208 144 208 c 2
 880 208 l 2
 906.14453125 208 928 186.146484375 928 160 c 0
 928 133.853515625 906.14453125 112 880 112 c 2
 144 112 l 2
 117.853515625 112 96 133.85546875 96 160 c 0
EndSplineSet
Validated: 1
EndChar

StartChar: brokenbar
Encoding: 166 166 109
Width: 1024
VWidth: 0
Flags: HW
LayerCount: 2
Back
SplineSet
512 432 m 25
 512 -144 l 1049
512 1392 m 25
 512 816 l 1049
EndSplineSet
Fore
SplineSet
512 480 m 0
 538.144471708 480 560 458.146366075 560 432 c 2
 560 -144 l 2
 560 -170.144471708 538.146366075 -192 512 -192 c 0
 485.853633925 -192 464 -170.144471708 464 -144 c 2
 464 432 l 2
 464 458.146366075 485.855528292 480 512 480 c 0
512 1440 m 0
 538.144471708 1440 560 1418.14636608 560 1392 c 2
 560 816 l 2
 560 789.855528292 538.146366075 768 512 768 c 0
 485.853633925 768 464 789.855528292 464 816 c 2
 464 1392 l 2
 464 1418.14636608 485.855528292 1440 512 1440 c 0
EndSplineSet
EndChar

StartChar: dieresis
Encoding: 168 168 110
Width: 1024
VWidth: 0
Flags: HW
LayerCount: 2
Back
SplineSet
656 1168 m 4
 656 1194 678 1216 704 1216 c 4
 730 1216 752 1194 752 1168 c 4
 752 1142 730 1120 704 1120 c 4
 678 1120 656 1142 656 1168 c 4
272 1168 m 0
 272 1194 294 1216 320 1216 c 0
 346 1216 368 1194 368 1168 c 0
 368 1142 346 1120 320 1120 c 0
 294 1120 272 1142 272 1168 c 0
EndSplineSet
Fore
SplineSet
608 1168 m 0
 608 1220.86514673 651.134923953 1264 704 1264 c 0
 756.865146728 1264 800 1220.86507605 800 1168 c 0
 800 1115.13485327 756.865076047 1072 704 1072 c 0
 651.134853272 1072 608 1115.13492395 608 1168 c 0
224 1168 m 0
 224 1220.86514673 267.134923953 1264 320 1264 c 0
 372.865146728 1264 416 1220.86507605 416 1168 c 0
 416 1115.13485327 372.865076047 1072 320 1072 c 0
 267.134853272 1072 224 1115.13492395 224 1168 c 0
EndSplineSet
EndChar

StartChar: copyright
Encoding: 169 169 111
Width: 1024
VWidth: 0
Flags: HW
LayerCount: 2
Back
SplineSet
680 688 m 29
 680 816 l 1053
696 560 m 4
 696 486.333007812 613.5 426.666992188 512 426.666992188 c 1028
512 426.666992188 m 4
 410.5 426.666992188 328 515 328 624 c 4
 328 733 410.5 821.333007812 512 821.333007812 c 4
 586.774414062 821.333007812 651.237304688 773.393554688 680 704.567382812 c 1029
64 624 m 0
 64 871 265 1072 512 1072 c 0
 759 1072 960 871 960 624 c 0
 960 377 759 176 512 176 c 0
 265 176 64 377 64 624 c 0
EndSplineSet
Fore
SplineSet
680 640 m 0
 653.855528292 640 632 661.853633925 632 688 c 2
 632 694.272560526 l 1
 608.484655756 742.555911645 562.605971704 773.333007812 512 773.333007812 c 0
 439.856680166 773.333007812 376 709.343963009 376 624 c 0
 376 538.655944215 439.856444269 474.666992188 512 474.666992188 c 0
 600.211689284 474.666992188 648 525.792019495 648 560 c 0
 648 586.146366075 669.855528292 608 696 608 c 0
 722.144471708 608 744 586.146366075 744 560 c 0
 744 446.873996129 626.788310716 378.666992188 512 378.666992188 c 0
 381.143555731 378.666992188 280 491.344055785 280 624 c 0
 280 756.656036991 381.143319834 869.333007812 512 869.333007812 c 0
 557.443413628 869.333007812 599.455245985 855.570383751 634.86266872 832.111994198 c 1
 641.607236923 850.540920737 659.481842535 863.999999995 680 864 c 0
 706.146366075 864 728 842.144471708 728 816 c 2
 728 688 l 2
 728 661.853633925 706.144471708 640 680 640 c 0
16 624 m 0
 16 897.535007696 238.464968923 1120 512 1120 c 0
 785.535007696 1120 1008 897.535031077 1008 624 c 0
 1008 350.464992304 785.535031077 128 512 128 c 0
 238.464992304 128 16 350.464968923 16 624 c 0
112 624 m 0
 112 403.535031077 291.535007696 224 512 224 c 0
 732.464968923 224 912 403.535007696 912 624 c 0
 912 844.464968923 732.464992304 1024 512 1024 c 0
 291.535031077 1024 112 844.464992304 112 624 c 0
EndSplineSet
EndChar

StartChar: registered
Encoding: 174 174 112
Width: 1024
VWidth: 0
Flags: HW
LayerCount: 2
Back
SplineSet
64 624 m 4
 64 871 265 1072 512 1072 c 4
 759 1072 960 871 960 624 c 4
 960 377 759 176 512 176 c 4
 265 176 64 377 64 624 c 4
528 624 m 0
 598.5 624 656 562 656 485.333007812 c 1024
528 816 m 0
 607.5 816 672 773 672 720 c 0
 672 667 607.5 624 528 624 c 1024
392 624 m 25
 528 624 l 1049
728 432 m 25
 656 432 l 25
 656 485.333007812 l 1049
296 432 m 25
 480 432 l 1049
384 810.666015625 m 25
 384 437.333984375 l 1049
296 816 m 25
 528 816 l 1049
EndSplineSet
Fore
SplineSet
16 624 m 0
 16 897.535007696 238.464968923 1120 512 1120 c 0
 785.535007696 1120 1008 897.535031077 1008 624 c 0
 1008 350.464992304 785.535031077 128 512 128 c 0
 238.464992304 128 16 350.464968923 16 624 c 0
112 624 m 0
 112 403.535031077 291.535007696 224 512 224 c 0
 732.464968923 224 912 403.535007696 912 624 c 0
 912 844.464968923 732.464992304 1024 512 1024 c 0
 291.535031077 1024 112 844.464992304 112 624 c 0
776 432 m 0
 776 405.855528292 754.146366075 384 728 384 c 2
 656 384 l 2
 626.945527317 384 608 411.398583681 608 432 c 2
 608 485.333007812 l 2
 608 538.732783827 568.760909303 576 528 576 c 2
 432 576 l 1
 432 480 l 1
 480 480 l 2
 506.144471708 480 528 458.146366075 528 432 c 0
 528 405.853633925 506.144471708 384 480 384 c 2
 296 384 l 2
 269.853633925 384 248 405.855528292 248 432 c 0
 248 458.144471708 269.853633925 480 296 480 c 2
 336 480 l 1
 336 768 l 1
 296 768 l 2
 269.853633925 768 248 789.855528292 248 816 c 0
 248 842.144471708 269.853633925 864 296 864 c 2
 528 864 l 2
 617.46008629 864 720 815.633241924 720 720 c 0
 720 672.079538749 694.252804342 636.026890966 657.306120634 611.980768532 c 1
 686.544925966 578.227623272 704 533.301098784 704 485.333007812 c 2
 704 480 l 1
 728 480 l 2
 754.146366075 480 776 458.144471708 776 432 c 0
528 672 m 2
 597.541356595 672 624 709.632509515 624 720 c 0
 624 730.366758076 597.53991371 768 528 768 c 2
 432 768 l 1
 432 672 l 1
 528 672 l 2
EndSplineSet
EndChar

StartChar: multiply
Encoding: 215 215 113
Width: 1024
VWidth: 0
Flags: HW
LayerCount: 2
Back
SplineSet
772 884 m 25
 252 364 l 1049
252 884 m 25
 772 364 l 1049
EndSplineSet
Fore
SplineSet
217.84375 329.84375 m 0
 208.599975589 339.087036123 203.977905271 351.435628868 203.977905271 363.784424757 c 0
 203.977905271 376.132894505 208.599731449 388.481567386 217.84375 397.725585938 c 2
 444.118164062 624 l 1
 217.84375 850.274414062 l 2
 208.599975589 859.517700186 203.977905271 871.866292931 203.977905271 884.215088819 c 0
 203.977905271 896.563558568 208.599731449 908.912231449 217.84375 918.15625 c 0
 227.087768551 927.400268551 239.436441432 932.022094729 251.784911181 932.022094729 c 0
 264.133707069 932.022094729 276.482299814 927.400024411 285.725585938 918.15625 c 2
 512 691.881835938 l 1
 738.274414062 918.15625 l 2
 747.517700186 927.400024411 759.866292931 932.022094729 772.215088819 932.022094729 c 0
 784.563558568 932.022094729 796.912231449 927.400268551 806.15625 918.15625 c 0
 815.400268551 908.912231449 820.022094729 896.563558568 820.022094729 884.215088819 c 0
 820.022094729 871.866292931 815.400024411 859.517700186 806.15625 850.274414062 c 2
 579.881835938 624 l 1
 806.15625 397.725585938 l 2
 815.400268551 388.481567386 820.022094729 376.132894505 820.022094729 363.784424757 c 0
 820.022094729 351.435628868 815.400024411 339.087036123 806.15625 329.84375 c 0
 796.912963877 320.599975589 784.564371132 315.977905271 772.215575243 315.977905271 c 0
 759.867105495 315.977905271 747.518432614 320.599731449 738.274414062 329.84375 c 2
 512 556.118164062 l 1
 285.725585938 329.84375 l 2
 276.481567386 320.599731449 264.132894505 315.977905271 251.784424757 315.977905271 c 0
 239.435628868 315.977905271 227.087036123 320.599975589 217.84375 329.84375 c 0
EndSplineSet
Validated: 1
EndChar

StartChar: divide
Encoding: 247 247 114
Width: 1024
VWidth: 0
Flags: HW
LayerCount: 2
Back
SplineSet
464 336 m 4
 464 362 486 384 512 384 c 4
 538 384 560 362 560 336 c 4
 560 310 538 288 512 288 c 4
 486 288 464 310 464 336 c 4
464 912 m 0
 464 938 486 960 512 960 c 0
 538 960 560 938 560 912 c 0
 560 886 538 864 512 864 c 0
 486 864 464 886 464 912 c 0
144 624 m 25
 880 624 l 1049
EndSplineSet
Fore
SplineSet
416 336 m 4
 416 389 459 432 512 432 c 4
 565 432 608 389 608 336 c 4
 608 283 565 240 512 240 c 4
 459 240 416 283 416 336 c 4
416 912 m 0
 416 965 459 1008 512 1008 c 0
 565 1008 608 965 608 912 c 0
 608 859 565 816 512 816 c 0
 459 816 416 859 416 912 c 0
96 624 m 0
 96 650.14453125 117.853515625 672 144 672 c 2
 880 672 l 2
 906.14453125 672 928 650.146484375 928 624 c 0
 928 597.853515625 906.14453125 576 880 576 c 2
 144 576 l 2
 117.853515625 576 96 597.85546875 96 624 c 0
EndSplineSet
Validated: 1
EndChar

StartChar: dotlessi
Encoding: 305 305 115
Width: 1024
VWidth: 0
Flags: HW
AnchorPoint: "top" 464 912 basechar 0
LayerCount: 2
Back
SplineSet
208 48 m 25
 816 48 l 1049
208 816 m 25
 512 816 l 25
 512 64 l 1049
EndSplineSet
Fore
SplineSet
160 48 m 0
 160 74.1444717079 181.853633925 96 208 96 c 2
 464 96 l 1
 464 768 l 1
 208 768 l 2
 181.853633925 768 160 789.855528292 160 816 c 0
 160 842.144471708 181.853633925 864 208 864 c 2
 512 864 l 2
 541.054472683 864 560 836.601416319 560 816 c 2
 560 96 l 1
 816 96 l 2
 842.144471708 96 864 74.1463660754 864 48 c 0
 864 21.8536339246 842.144471708 0 816 0 c 2
 208 0 l 2
 181.853633925 0 160 21.8555282921 160 48 c 0
EndSplineSet
EndChar

StartChar: gravecomb
Encoding: 768 768 116
Width: 1024
VWidth: 0
Flags: HW
AnchorPoint: "top" 512 1272 mark 0
LayerCount: 2
Back
SplineSet
352 1584 m 25
 672 1392 l 1053
EndSplineSet
Fore
SplineSet
310.840339566 1608.69579626 m 0
 319.752520401 1623.54943099 335.92222148 1631.85289697 352.34107293 1631.85289697 c 0
 360.703314068 1631.85289697 369.130183303 1629.69902821 376.695796261 1625.15966043 c 2
 696.695796261 1433.15966043 l 2
 711.549430987 1424.2474796 719.852896967 1408.07777851 719.852896967 1391.65892706 c 0
 719.852896967 1383.29668593 717.699028208 1374.8698167 713.159660434 1367.30420374 c 0
 704.247029196 1352.44981834 688.077338463 1344.14716849 671.659064197 1344.14716849 c 0
 663.296573875 1344.14716849 654.869594114 1346.30110534 647.304203739 1350.84033957 c 2
 327.304203739 1542.84033957 l 2
 312.449818342 1551.7529708 304.14716849 1567.92266154 304.14716849 1584.3409358 c 0
 304.14716849 1592.70342612 306.301105341 1601.13040588 310.840339566 1608.69579626 c 0
EndSplineSet
Validated: 1
EndChar

StartChar: acutecomb
Encoding: 769 769 117
Width: 1024
VWidth: 0
Flags: HW
AnchorPoint: "top" 512 1272 mark 0
LayerCount: 2
Back
SplineSet
352 1392 m 25
 672 1584 l 1053
EndSplineSet
Fore
SplineSet
310.840339566 1367.30420374 m 0
 306.301105341 1374.86959412 304.14716849 1383.29657388 304.14716849 1391.6590642 c 0
 304.14716849 1408.07733846 312.449818342 1424.2470292 327.304203739 1433.15966043 c 2
 647.304203739 1625.15966043 l 2
 654.869594114 1629.69889466 663.296573875 1631.85283151 671.659064197 1631.85283151 c 0
 688.077338463 1631.85283151 704.247029196 1623.55018166 713.159660434 1608.69579626 c 0
 717.699028208 1601.1301833 719.852896967 1592.70331407 719.852896967 1584.34107294 c 0
 719.852896967 1567.92222149 711.549430987 1551.7525204 696.695796261 1542.84033957 c 2
 376.695796261 1350.84033957 l 2
 369.130183303 1346.30097179 360.703314068 1344.14710303 352.34107293 1344.14710303 c 0
 335.92222148 1344.14710303 319.752520401 1352.45056901 310.840339566 1367.30420374 c 0
EndSplineSet
EndChar

StartChar: uni0302
Encoding: 770 770 118
Width: 1024
VWidth: 0
Flags: HW
AnchorPoint: "top" 512 1272 mark 0
LayerCount: 2
Back
SplineSet
272 1392 m 25
 512 1584 l 25
 752 1392 l 1053
EndSplineSet
Fore
SplineSet
234.518297147 1362.01463772 m 0
 227.557470876 1370.71567056 224.183080943 1381.28815708 224.183080943 1391.82086245 c 0
 224.183080943 1406.00124845 230.299419264 1420.10952809 242.014637717 1429.48170285 c 2
 482.014637717 1621.48170285 l 2
 490.708718413 1628.43696741 501.350235482 1631.72892895 511.874397108 1631.72892895 c 0
 522.810366158 1631.72892895 533.619615908 1628.17429995 541.985362283 1621.48170285 c 2
 781.985362283 1429.48170285 l 2
 793.700085797 1420.10992404 799.816954715 1406.00146199 799.816954715 1391.82057017 c 0
 799.816954715 1381.28823561 796.442750384 1370.71594713 789.481702853 1362.01463772 c 0
 780.109528091 1350.29941927 766.001248454 1344.18308094 751.820862456 1344.18308094 c 0
 741.288157082 1344.18308094 730.715670556 1347.55747088 722.014637717 1354.51829715 c 2
 512 1522.53000732 l 1
 301.985362283 1354.51829715 l 2
 293.284052869 1347.55724962 282.711764397 1344.18304529 272.179429831 1344.18304529 c 0
 257.998538015 1344.18304529 243.890075958 1350.2999142 234.518297147 1362.01463772 c 0
EndSplineSet
Validated: 1
EndChar

StartChar: tildecomb
Encoding: 771 771 119
Width: 1024
VWidth: 0
Flags: HW
AnchorPoint: "top" 512 1272 mark 0
LayerCount: 2
Back
SplineSet
256 1392 m 4
 256 1488 288 1584 384 1584 c 4
 448 1584 480 1536 512 1488 c 1029
512 1488 m 5
 544 1440 576 1392 640 1392 c 4
 736 1392 768 1488 768 1584 c 1028
EndSplineSet
Fore
SplineSet
256 1344 m 0
 229.855528292 1344 208 1365.85363392 208 1392 c 0
 208 1485.15363982 247.75542832 1632 384 1632 c 0
 512 1632 569.853518558 1440 640 1440 c 0
 683.755634649 1440 720 1497.15348061 720 1584 c 0
 720 1610.14447171 741.853633925 1632 768 1632 c 0
 794.146366075 1632 816 1610.14447171 816 1584 c 0
 816 1490.84651939 776.244365351 1344 640 1344 c 0
 512 1344 454.196232238 1536 384 1536 c 0
 340.24457168 1536 304 1478.84636018 304 1392 c 0
 304 1365.85363392 282.144471708 1344 256 1344 c 0
EndSplineSet
Validated: 1
EndChar

StartChar: uni0306
Encoding: 774 774 120
Width: 1024
VWidth: 0
Flags: HW
AnchorPoint: "top" 512 1272 mark 0
LayerCount: 2
Back
SplineSet
704 1584 m 4
 704 1478 618 1392 512 1392 c 4
 406 1392 320 1478 320 1584 c 1028
EndSplineSet
Fore
SplineSet
704 1632 m 0
 730.144471708 1632 752 1610.14636608 752 1584 c 0
 752 1451.49038735 644.509840284 1344 512 1344 c 0
 379.490387345 1344 272 1451.49015972 272 1584 c 0
 272 1610.14447171 293.853633925 1632 320 1632 c 0
 346.146366075 1632 368 1610.14447171 368 1584 c 0
 368 1504.50984028 432.509612655 1440 512 1440 c 0
 591.490159716 1440 656 1504.50961265 656 1584 c 0
 656 1610.14636608 677.855528292 1632 704 1632 c 0
EndSplineSet
Validated: 1
EndChar

StartChar: uni0307
Encoding: 775 775 121
Width: 1024
VWidth: 0
Flags: HW
AnchorPoint: "top" 512 1272 mark 0
LayerCount: 2
Back
SplineSet
464 1464 m 4
 464 1490 486 1512 512 1512 c 4
 538 1512 560 1490 560 1464 c 4
 560 1438 538 1416 512 1416 c 4
 486 1416 464 1438 464 1464 c 4
EndSplineSet
Fore
SplineSet
416 1464 m 0
 416 1517 459 1560 512 1560 c 0
 565 1560 608 1517 608 1464 c 0
 608 1411 565 1368 512 1368 c 0
 459 1368 416 1411 416 1464 c 0
EndSplineSet
Validated: 1
EndChar

StartChar: uni0308
Encoding: 776 776 122
Width: 1024
VWidth: 0
Flags: HW
AnchorPoint: "top" 512 1272 mark 0
LayerCount: 2
Back
SplineSet
656 1464 m 4
 656 1490 678 1512 704 1512 c 4
 730 1512 752 1490 752 1464 c 4
 752 1438 730 1416 704 1416 c 4
 678 1416 656 1438 656 1464 c 4
272 1464 m 0
 272 1490 294 1512 320 1512 c 0
 346 1512 368 1490 368 1464 c 0
 368 1438 346 1416 320 1416 c 0
 294 1416 272 1438 272 1464 c 0
EndSplineSet
Fore
SplineSet
608 1464 m 0
 608 1517 651 1560 704 1560 c 0
 757 1560 800 1517 800 1464 c 0
 800 1411 757 1368 704 1368 c 0
 651 1368 608 1411 608 1464 c 0
224 1464 m 0
 224 1517 267 1560 320 1560 c 0
 373 1560 416 1517 416 1464 c 0
 416 1411 373 1368 320 1368 c 0
 267 1368 224 1411 224 1464 c 0
EndSplineSet
Validated: 1
EndChar

StartChar: uni0305
Encoding: 773 773 123
Width: 1024
VWidth: 0
Flags: HW
AnchorPoint: "top" 512 1272 mark 0
LayerCount: 2
Back
SplineSet
144 1488 m 25
 880 1488 l 1053
EndSplineSet
Fore
SplineSet
96 1488 m 4
 96 1514.14453125 117.853515625 1536 144 1536 c 6
 880 1536 l 6
 906.14453125 1536 928 1514.14648438 928 1488 c 4
 928 1461.85351562 906.14453125 1440 880 1440 c 6
 144 1440 l 6
 117.853515625 1440 96 1461.85546875 96 1488 c 4
EndSplineSet
Validated: 1
EndChar

StartChar: uni0304
Encoding: 772 772 124
Width: 1024
VWidth: 0
Flags: HW
AnchorPoint: "top" 512 1272 mark 0
LayerCount: 2
Back
SplineSet
352 1488 m 25
 672 1488 l 1053
EndSplineSet
Fore
SplineSet
304 1488 m 4
 304 1514.14453125 325.853515625 1536 352 1536 c 6
 672 1536 l 6
 698.14453125 1536 720 1514.14648438 720 1488 c 4
 720 1461.85351562 698.14453125 1440 672 1440 c 6
 352 1440 l 6
 325.853515625 1440 304 1461.85546875 304 1488 c 4
EndSplineSet
Validated: 1
EndChar

StartChar: uni030A
Encoding: 778 778 125
Width: 1024
VWidth: 0
Flags: HW
AnchorPoint: "top" 512 1272 mark 0
LayerCount: 2
Back
SplineSet
400 1488 m 4
 400 1550 450 1600 512 1600 c 4
 574 1600 624 1550 624 1488 c 4
 624 1426 574 1376 512 1376 c 4
 450 1376 400 1426 400 1488 c 4
EndSplineSet
Fore
SplineSet
448 1488 m 0
 448 1452.45827559 476.458443045 1424 512 1424 c 0
 547.541724413 1424 576 1452.45844304 576 1488 c 0
 576 1523.54172441 547.541556955 1552 512 1552 c 0
 476.458275587 1552 448 1523.54155696 448 1488 c 0
352 1488 m 0
 352 1576.45844304 423.541724413 1648 512 1648 c 0
 600.458443045 1648 672 1576.45827559 672 1488 c 0
 672 1399.54155696 600.458275587 1328 512 1328 c 0
 423.541556955 1328 352 1399.54172441 352 1488 c 0
EndSplineSet
Validated: 1
EndChar

StartChar: uni030B
Encoding: 779 779 126
Width: 1024
VWidth: 0
Flags: HW
AnchorPoint: "top" 512 1272 mark 0
LayerCount: 2
Back
SplineSet
544 1392 m 29
 736 1584 l 1053
288 1392 m 29
 480 1584 l 1053
EndSplineSet
Fore
SplineSet
510.058874503 1358.0588745 m 0
 500.815240452 1367.30250855 496.193172252 1379.65128304 496.193172252 1392.00016872 c 0
 496.193172252 1404.34860705 500.814905572 1416.69715657 510.058874503 1425.9411255 c 2
 702.058874503 1617.9411255 l 2
 711.302508554 1627.18475955 723.651283037 1631.80682775 736.000168722 1631.80682775 c 0
 748.348607046 1631.80682775 760.697156566 1627.18509443 769.941125497 1617.9411255 c 0
 779.185094428 1608.69715657 783.806827748 1596.34860705 783.806827748 1584.00016872 c 0
 783.806827748 1571.65128304 779.184759548 1559.30250855 769.941125497 1550.0588745 c 2
 577.941125497 1358.0588745 l 2
 568.697156566 1348.81490557 556.348607046 1344.19317225 544.000168722 1344.19317225 c 0
 531.651283037 1344.19317225 519.302508554 1348.81524045 510.058874503 1358.0588745 c 0
254.058874503 1358.0588745 m 0
 244.815240452 1367.30250855 240.193172252 1379.65128304 240.193172252 1392.00016872 c 0
 240.193172252 1404.34860705 244.814905572 1416.69715657 254.058874503 1425.9411255 c 2
 446.058874503 1617.9411255 l 2
 455.302508554 1627.18475955 467.651283037 1631.80682775 480.000168722 1631.80682775 c 0
 492.348607046 1631.80682775 504.697156566 1627.18509443 513.941125497 1617.9411255 c 0
 523.185094428 1608.69715657 527.806827748 1596.34860705 527.806827748 1584.00016872 c 0
 527.806827748 1571.65128304 523.184759548 1559.30250855 513.941125497 1550.0588745 c 2
 321.941125497 1358.0588745 l 2
 312.697156566 1348.81490557 300.348607046 1344.19317225 288.000168722 1344.19317225 c 0
 275.651283037 1344.19317225 263.302508554 1348.81524045 254.058874503 1358.0588745 c 0
EndSplineSet
Validated: 1
EndChar

StartChar: uni030C
Encoding: 780 780 127
Width: 1024
VWidth: 0
Flags: HW
AnchorPoint: "top" 512 1271.91 mark 0
LayerCount: 2
Back
SplineSet
272 1584 m 25
 512 1392 l 25
 752 1584 l 1053
EndSplineSet
Fore
SplineSet
234.518554688 1613.89746094 m 0
 227.557617188 1605.19628906 224.182617188 1594.62402344 224.182617188 1584.09082031 c 0
 224.182617188 1569.91113281 230.299804688 1555.80273438 242.014648438 1546.43066406 c 2
 482.014648438 1354.43066406 l 2
 490.708984375 1347.47460938 501.350585938 1344.18261719 511.874023438 1344.18261719 c 0
 522.810546875 1344.18261719 533.619140625 1347.73730469 541.985351562 1354.43066406 c 2
 781.985351562 1546.43066406 l 2
 793.700195312 1555.80175781 799.817382812 1569.91015625 799.817382812 1584.09179688 c 0
 799.817382812 1594.62402344 796.442382812 1605.19628906 789.481445312 1613.89746094 c 0
 780.109375 1625.61230469 766.000976562 1631.72851562 751.821289062 1631.72851562 c 0
 741.288085938 1631.72851562 730.715820312 1628.35449219 722.014648438 1621.39355469 c 2
 512 1453.38183594 l 1
 301.985351562 1621.39355469 l 2
 293.284179688 1628.35449219 282.711914062 1631.72851562 272.1796875 1631.72851562 c 0
 257.999023438 1631.72851562 243.889648438 1625.61230469 234.518554688 1613.89746094 c 0
EndSplineSet
EndChar

StartChar: uni030F
Encoding: 783 783 128
Width: 1024
VWidth: 0
Flags: HW
AnchorPoint: "top" 512 1272 mark 0
LayerCount: 2
Back
SplineSet
480 1392 m 29
 288 1584 l 1053
736 1392 m 29
 544 1584 l 1053
EndSplineSet
Fore
SplineSet
510.058874503 1617.9411255 m 0
 519.302508554 1627.18475955 531.651283037 1631.80682775 544.000168722 1631.80682775 c 0
 556.348607046 1631.80682775 568.697156566 1627.18509443 577.941125497 1617.9411255 c 2
 769.941125497 1425.9411255 l 2
 779.184759548 1416.69749145 783.806827748 1404.34871696 783.806827748 1391.99983128 c 0
 783.806827748 1379.65139295 779.185094428 1367.30284343 769.941125497 1358.0588745 c 0
 760.697156566 1348.81490557 748.348607046 1344.19317225 736.000168722 1344.19317225 c 0
 723.651283037 1344.19317225 711.302508554 1348.81524045 702.058874503 1358.0588745 c 2
 510.058874503 1550.0588745 l 2
 500.814905572 1559.30284343 496.193172252 1571.65139295 496.193172252 1583.99983128 c 0
 496.193172252 1596.34871696 500.815240452 1608.69749145 510.058874503 1617.9411255 c 0
254.058874503 1617.9411255 m 0
 263.302508554 1627.18475955 275.651283037 1631.80682775 288.000168722 1631.80682775 c 0
 300.348607046 1631.80682775 312.697156566 1627.18509443 321.941125497 1617.9411255 c 2
 513.941125497 1425.9411255 l 2
 523.184759548 1416.69749145 527.806827748 1404.34871696 527.806827748 1391.99983128 c 0
 527.806827748 1379.65139295 523.185094428 1367.30284343 513.941125497 1358.0588745 c 0
 504.697156566 1348.81490557 492.348607046 1344.19317225 480.000168722 1344.19317225 c 0
 467.651283037 1344.19317225 455.302508554 1348.81524045 446.058874503 1358.0588745 c 2
 254.058874503 1550.0588745 l 2
 244.814905572 1559.30284343 240.193172252 1571.65139295 240.193172252 1583.99983128 c 0
 240.193172252 1596.34871696 244.815240452 1608.69749145 254.058874503 1617.9411255 c 0
EndSplineSet
Validated: 1
EndChar

StartChar: uni0237
Encoding: 567 567 130
Width: 1024
VWidth: 0
Flags: HW
AnchorPoint: "top" 656 912 basechar 0
LayerCount: 2
Back
SplineSet
656 -96 m 25
 656 816 l 25
 384 816 l 1049
656 -96 m 0
 656 -237 541 -352 400 -352 c 0
 259 -352 144 -237 144 -96 c 1024
144 -48 m 0
 144 -22 166 0 192 0 c 0
 218 0 240 -22 240 -48 c 0
 240 -74 218 -96 192 -96 c 0
 166 -96 144 -74 144 -48 c 0
EndSplineSet
Fore
SplineSet
96 -49 m 1
 96 -48 l 1
 96.0051066378 -48 l 1
 96.5419248424 4.53982338131 139.333732582 47 192 47 c 0
 245 47 288 4 288 -49 c 0
 288 -100.099579652 248.028414829 -141.903441822 197.661167966 -144.835663032 c 1
 219.601086108 -235.91886767 302.702764192 -304 401 -304 c 0
 515.267578125 -304 608 -210.698242188 608 -96 c 2
 608 768 l 1
 384 768 l 2
 357.855528292 768 336 789.853633925 336 816 c 0
 336 842.146366075 357.855528292 864 384 864 c 2
 656 864 l 2
 676.601416319 864 704 845.054472683 704 816 c 2
 704 -96 l 2
 704 -263.301757812 568.732421875 -400 401 -400 c 0
 233.876953125 -400 96 -264.984375 96 -97 c 0
 96 -96.6659542687 96.0035675613 -96.332608722 96.010666056 -96 c 2
 96 -96 l 1
 96 -49 l 1
EndSplineSet
Validated: 1
EndChar

StartChar: breve
Encoding: 728 728 320
Width: 1024
VWidth: 0
Flags: HW
AnchorPoint: "top" 512 1272 mark 0
LayerCount: 2
Back
SplineSet
704 1584 m 4
 704 1478 618 1392 512 1392 c 4
 406 1392 320 1478 320 1584 c 1028
EndSplineSet
Fore
SplineSet
704 1632 m 0
 730.144471708 1632 752 1610.14636608 752 1584 c 0
 752 1451.49038735 644.509840284 1344 512 1344 c 0
 379.490387345 1344 272 1451.49015972 272 1584 c 0
 272 1610.14447171 293.853633925 1632 320 1632 c 0
 346.146366075 1632 368 1610.14447171 368 1584 c 0
 368 1504.50984028 432.509612655 1440 512 1440 c 0
 591.490159716 1440 656 1504.50961265 656 1584 c 0
 656 1610.14636608 677.855528292 1632 704 1632 c 0
EndSplineSet
Validated: 1
EndChar

StartChar: dotaccent
Encoding: 729 729 321
Width: 1024
VWidth: 0
Flags: HW
AnchorPoint: "top" 512 1272 mark 0
LayerCount: 2
Back
SplineSet
464 1464 m 4
 464 1490 486 1512 512 1512 c 4
 538 1512 560 1490 560 1464 c 4
 560 1438 538 1416 512 1416 c 4
 486 1416 464 1438 464 1464 c 4
EndSplineSet
Fore
SplineSet
416 1464 m 0
 416 1517 459 1560 512 1560 c 0
 565 1560 608 1517 608 1464 c 0
 608 1411 565 1368 512 1368 c 0
 459 1368 416 1411 416 1464 c 0
EndSplineSet
Validated: 1
EndChar

StartChar: ring
Encoding: 730 730 322
Width: 1024
VWidth: 0
Flags: HW
AnchorPoint: "top" 512 1272 mark 0
LayerCount: 2
Back
SplineSet
400 1488 m 4
 400 1550 450 1600 512 1600 c 4
 574 1600 624 1550 624 1488 c 4
 624 1426 574 1376 512 1376 c 4
 450 1376 400 1426 400 1488 c 4
EndSplineSet
Fore
SplineSet
448 1488 m 0
 448 1452.45827559 476.458443045 1424 512 1424 c 0
 547.541724413 1424 576 1452.45844304 576 1488 c 0
 576 1523.54172441 547.541556955 1552 512 1552 c 0
 476.458275587 1552 448 1523.54155696 448 1488 c 0
352 1488 m 0
 352 1576.45844304 423.541724413 1648 512 1648 c 0
 600.458443045 1648 672 1576.45827559 672 1488 c 0
 672 1399.54155696 600.458275587 1328 512 1328 c 0
 423.541556955 1328 352 1399.54172441 352 1488 c 0
EndSplineSet
Validated: 1
EndChar

StartChar: tilde
Encoding: 732 732 323
Width: 1024
VWidth: 0
Flags: HW
AnchorPoint: "top" 512 1272 mark 0
LayerCount: 2
Back
SplineSet
256 1392 m 4
 256 1488 288 1584 384 1584 c 4
 448 1584 480 1536 512 1488 c 1029
512 1488 m 5
 544 1440 576 1392 640 1392 c 4
 736 1392 768 1488 768 1584 c 1028
EndSplineSet
Fore
SplineSet
256 1344 m 0
 229.855528292 1344 208 1365.85363392 208 1392 c 0
 208 1489.78842722 242.925216943 1632 384 1632 c 0
 477.018776111 1632 522.051498791 1559.45598242 551.938414128 1514.62560942 c 0
 586.044864794 1463.46593342 605.032036167 1440 640 1440 c 0
 690.925180252 1440 720 1489.78845481 720 1584 c 0
 720 1610.14447171 741.853633925 1632 768 1632 c 0
 794.146366075 1632 816 1610.14447171 816 1584 c 0
 816 1486.21154519 781.074819748 1344 640 1344 c 0
 546.967963833 1344 501.955135206 1416.53406658 472.061585872 1461.37439058 c 0
 437.948501209 1512.54401758 418.981223889 1536 384 1536 c 0
 333.074783057 1536 304 1486.21157278 304 1392 c 0
 304 1365.85363392 282.144471708 1344 256 1344 c 0
EndSplineSet
EndChar

StartChar: hungarumlaut
Encoding: 733 733 324
Width: 1024
VWidth: 0
Flags: HW
AnchorPoint: "top" 512 1272 mark 0
LayerCount: 2
Back
SplineSet
544 1392 m 29
 736 1584 l 1053
288 1392 m 29
 480 1584 l 1053
EndSplineSet
Fore
SplineSet
510.058874503 1358.0588745 m 0
 500.815240452 1367.30250855 496.193172252 1379.65128304 496.193172252 1392.00016872 c 0
 496.193172252 1404.34860705 500.814905572 1416.69715657 510.058874503 1425.9411255 c 2
 702.058874503 1617.9411255 l 2
 711.302508554 1627.18475955 723.651283037 1631.80682775 736.000168722 1631.80682775 c 0
 748.348607046 1631.80682775 760.697156566 1627.18509443 769.941125497 1617.9411255 c 0
 779.185094428 1608.69715657 783.806827748 1596.34860705 783.806827748 1584.00016872 c 0
 783.806827748 1571.65128304 779.184759548 1559.30250855 769.941125497 1550.0588745 c 2
 577.941125497 1358.0588745 l 2
 568.697156566 1348.81490557 556.348607046 1344.19317225 544.000168722 1344.19317225 c 0
 531.651283037 1344.19317225 519.302508554 1348.81524045 510.058874503 1358.0588745 c 0
254.058874503 1358.0588745 m 0
 244.815240452 1367.30250855 240.193172252 1379.65128304 240.193172252 1392.00016872 c 0
 240.193172252 1404.34860705 244.814905572 1416.69715657 254.058874503 1425.9411255 c 2
 446.058874503 1617.9411255 l 2
 455.302508554 1627.18475955 467.651283037 1631.80682775 480.000168722 1631.80682775 c 0
 492.348607046 1631.80682775 504.697156566 1627.18509443 513.941125497 1617.9411255 c 0
 523.185094428 1608.69715657 527.806827748 1596.34860705 527.806827748 1584.00016872 c 0
 527.806827748 1571.65128304 523.184759548 1559.30250855 513.941125497 1550.0588745 c 2
 321.941125497 1358.0588745 l 2
 312.697156566 1348.81490557 300.348607046 1344.19317225 288.000168722 1344.19317225 c 0
 275.651283037 1344.19317225 263.302508554 1348.81524045 254.058874503 1358.0588745 c 0
EndSplineSet
Validated: 1
EndChar

StartChar: uni203E
Encoding: 8254 8254 428
Width: 1024
VWidth: 0
Flags: HW
LayerCount: 2
Fore
SplineSet
96 1200 m 4
 96 1226.14453125 117.853515625 1248 144 1248 c 6
 880 1248 l 6
 906.14453125 1248 928 1226.14648438 928 1200 c 4
 928 1173.85351562 906.14453125 1152 880 1152 c 6
 144 1152 l 6
 117.853515625 1152 96 1173.85546875 96 1200 c 4
EndSplineSet
Validated: 1
EndChar

StartChar: currency
Encoding: 164 164 429
Width: 1024
VWidth: 0
Flags: HW
LayerCount: 2
Back
SplineSet
368 480 m 25
 240 352 l 1049
784 352 m 25
 656 480 l 1049
656 768 m 25
 784 896 l 1049
240 896 m 25
 368 768 l 1049
320 624 m 0
 320 730 406 816 512 816 c 0
 618 816 704 730 704 624 c 0
 704 518 618 432 512 432 c 0
 406 432 320 518 320 624 c 0
EndSplineSet
Fore
SplineSet
817.941125497 318.058874503 m 0
 808.697491445 308.815240451 796.348716963 304.193172252 783.999831278 304.193172252 c 0
 771.651392954 304.193172252 759.302843435 308.814905571 750.058874503 318.058874503 c 2
 644.34194791 423.775801096 l 1
 606.399359883 398.640439873 560.903549181 384 512 384 c 0
 463.096493734 384 417.600669665 398.640433474 379.658056769 423.775805775 c 1
 273.941125497 318.058874503 l 2
 264.697491445 308.815240451 252.348716963 304.193172252 239.999831278 304.193172252 c 0
 227.651392954 304.193172252 215.302843435 308.814905571 206.058874503 318.058874503 c 0
 196.814905571 327.302843435 192.193172252 339.651392954 192.193172252 351.999831278 c 0
 192.193172252 364.348716963 196.815240451 376.697491445 206.058874503 385.941125497 c 2
 311.775801096 491.65805209 l 1
 286.640439873 529.600640117 272 575.096450819 272 624 c 0
 272 672.903506266 286.640433474 718.399330335 311.775805775 756.341943231 c 1
 206.058874503 862.058874503 l 2
 196.814905571 871.302843435 192.193172252 883.651392954 192.193172252 895.999831278 c 0
 192.193172252 908.348716963 196.815240451 920.697491445 206.058874503 929.941125497 c 0
 215.302508555 939.184759549 227.651283037 943.806827748 240.000168722 943.806827748 c 0
 252.348607046 943.806827748 264.697156565 939.185094429 273.941125497 929.941125497 c 2
 379.65805209 824.224198904 l 1
 417.600640117 849.359560127 463.096450819 864 512 864 c 0
 560.903506266 864 606.399330335 849.359566526 644.341943231 824.224194225 c 1
 750.058874503 929.941125497 l 2
 759.302508555 939.184759549 771.651283037 943.806827748 784.000168722 943.806827748 c 0
 796.348607046 943.806827748 808.697156565 939.185094429 817.941125497 929.941125497 c 0
 827.185094429 920.697156565 831.806827748 908.348607046 831.806827748 896.000168722 c 0
 831.806827748 883.651283037 827.184759549 871.302508555 817.941125497 862.058874503 c 2
 712.224198904 756.34194791 l 1
 737.359560127 718.399359883 752 672.903549181 752 624 c 0
 752 575.096493734 737.359566526 529.600669665 712.224194225 491.658056769 c 1
 817.941125497 385.941125497 l 2
 827.185094429 376.697156565 831.806827748 364.348607046 831.806827748 352.000168722 c 0
 831.806827748 339.651283037 827.184759549 327.302508555 817.941125497 318.058874503 c 0
368 624 m 0
 368 544.509840284 432.509612655 480 512 480 c 0
 591.490159716 480 656 544.509612655 656 624 c 0
 656 703.490159716 591.490387345 768 512 768 c 0
 432.509840284 768 368 703.490387345 368 624 c 0
EndSplineSet
EndChar

StartChar: yen
Encoding: 165 165 430
Width: 1024
VWidth: 0
Flags: HW
AnchorPoint: "top" 512 1272 basechar 0
LayerCount: 2
Back
Refer: 6 45 S 1 0 0 1 0 -192 2
Refer: 6 45 N 1 0 0 1 0 0 2
Refer: 30 89 N 1 0 0 1 0 0 2
Fore
SplineSet
14 1200 m 0
 14 1226.14453125 35.853515625 1248 62 1248 c 2
 382 1248 l 2
 408.14453125 1248 430 1226.14648438 430 1200 c 0
 430 1173.85351562 408.14453125 1152 382 1152 c 2
 265.569767416 1152 l 1
 510.92473586 722.628805225 l 1
 744.011955881 1152 l 1
 638 1152 l 2
 611.853515625 1152 590 1173.85546875 590 1200 c 0
 590 1226.14453125 611.853515625 1248 638 1248 c 2
 958 1248 l 2
 984.14453125 1248 1006 1226.14648438 1006 1200 c 0
 1006 1173.85351562 984.14453125 1152 958 1152 c 2
 853.245186977 1152 l 1
 592.673758405 672 l 1
 880 672 l 2
 906.14453125 672 928 650.146484375 928 624 c 0
 928 597.853515625 906.14453125 576 880 576 c 2
 560 576 l 1
 560 480 l 1
 880 480 l 2
 906.14453125 480 928 458.146484375 928 432 c 0
 928 405.853515625 906.14453125 384 880 384 c 2
 560 384 l 1
 560 96 l 1
 816 96 l 2
 842.14453125 96 864 74.146484375 864 48 c 0
 864 21.853515625 842.14453125 -3.20167590865e-15 816 0 c 2
 208 0 l 2
 181.853515625 0 160 21.85546875 160 48 c 0
 160 74.14453125 181.853515625 96 208 96 c 2
 464 96 l 1
 464 384 l 1
 144 384 l 2
 117.853515625 384 96 405.85546875 96 432 c 0
 96 458.14453125 117.853515625 480 144 480 c 2
 464 480 l 1
 464 576 l 1
 144 576 l 2
 117.853515625 576 96 597.85546875 96 624 c 0
 96 650.14453125 117.853515625 672 144 672 c 2
 429.28737544 672 l 1
 155.001661155 1152 l 1
 62 1152 l 2
 35.853515625 1152 14 1173.85546875 14 1200 c 0
EndSplineSet
EndChar

StartChar: section
Encoding: 167 167 431
Width: 1024
VWidth: 0
Flags: HW
LayerCount: 2
Back
SplineSet
848 976 m 25
 848 928 l 1049
176 -112 m 25
 176 -64 l 1049
176 -64 m 0
 176 -38 198 -16 224 -16 c 0
 250 -16 272 -38 272 -64 c 0
 272 -90 250 -112 224 -112 c 0
 198 -112 176 -90 176 -64 c 0
752 928 m 0
 752 954 774 976 800 976 c 0
 826 976 848 954 848 928 c 0
 848 902 826 880 800 880 c 0
 774 880 752 902 752 928 c 0
144 464 m 0
 144 608 272 688 496 688 c 1024
144 464 m 0
 144 288 304 208 512 176 c 0
 720 144 848 32 848 -112 c 0
 848 -244 697 -352 512 -352 c 0
 327 -352 176 -244 176 -112 c 1024
880 400 m 0
 880 256 752 176 528 176 c 1024
512 688 m 0
 720 656 880 576 880 400 c 1024
512 688 m 1048
176 976 m 0
 176 832 304 720 512 688 c 1024
176 976 m 0
 176 1108 327 1216 512 1216 c 0
 697 1216 848 1108 848 976 c 1024
EndSplineSet
Fore
SplineSet
128 -64 m 2
 128 -11.1348532724 171.134923953 32 224 32 c 0
 276.865146728 32 320 -11.1349239534 320 -64 c 0
 320 -113.515192918 282.158607984 -154.494197168 233.924133995 -159.48887694 c 1
 265.389594766 -235.324091139 369.331094411 -304 512 -304 c 0
 684.230521411 -304 800 -203.942600121 800 -112 c 0
 800 -1.9098119949 701.964987404 98.2098920131 504.701255156 128.558158513 c 0
 294.91896099 160.832357615 96 248.514731707 96 464 c 0
 96 589.94488223 175.049193775 670.67402262 298.458715051 709.241184941 c 1
 193.462646549 769.332394485 128 861.471138418 128 976 c 0
 128 1148.05739988 314.230521411 1264 512 1264 c 0
 709.785806848 1264 896 1148.06533153 896 976 c 2
 896 928 l 2
 896 875.134853272 852.865076047 832 800 832 c 0
 747.134853272 832 704 875.134923953 704 928 c 0
 704 977.515192918 741.841392016 1018.49419717 790.075866005 1023.48887694 c 1
 758.610405234 1099.32409114 654.668905589 1168 512 1168 c 0
 339.769478589 1168 224 1067.94260012 224 976 c 0
 224 865.909411666 322.034764804 765.790146109 519.298744844 735.441841487 c 0
 729.081200649 703.167617517 928 615.485504599 928 400 c 0
 928 274.055173151 848.950875744 193.326048377 725.541447747 154.758865935 c 1
 830.53747819 94.667742301 896 2.52910000429 896 -112 c 0
 896 -284.057399879 709.769478589 -400 512 -400 c 0
 314.214193152 -400 128 -284.065331528 128 -112 c 2
 128 -64 l 2
192 464 m 0
 192 327.485268293 313.08103901 255.167642385 519.298744844 223.441841487 c 0
 519.556250274 223.402225267 519.813671482 223.362484 520.071008783 223.322614986 c 0
 522.655606242 223.767795417 525.305016647 224.000002757 528 224 c 0
 745.705177604 224 832 296.535254651 832 400 c 0
 832 536.514495401 710.918799351 608.832382483 504.701255156 640.558158513 c 0
 504.443749726 640.597774733 504.186328519 640.637516001 503.928991219 640.677385015 c 0
 501.344393759 640.232204584 498.694983353 639.999997244 496 640 c 0
 278.294822396 640 192 567.464745349 192 464 c 0
EndSplineSet
EndChar

StartChar: ordfeminine
Encoding: 170 170 432
Width: 1024
VWidth: 0
Flags: HW
LayerCount: 2
Back
SplineSet
352 624 m 25
 672 624 l 1049
632 856 m 25
 632 959 632 1071.5 632 1120 c 0
 632 1168.5 567.5 1208 488 1208 c 1024
672 816 m 0
 650 816 632 834 632 856 c 1024
736 880 m 0
 736 844.5 707.5 816 672 816 c 1024
344 1120 m 0
 344 1168.5 408.5 1208 488 1208 c 1024
632 1120 m 0
 632 1067 564 1024 480 1024 c 1024
632 896 m 0
 632 847.5 556.5 808 464 808 c 1024
464 808 m 0
 376 808 320 848 320 912 c 1024
320 912 m 0
 320 974 391.5 1024 480 1024 c 1024
EndSplineSet
Fore
SplineSet
304 624 m 0
 304 650.144471708 325.853633925 672 352 672 c 2
 672 672 l 2
 698.144471708 672 720 650.146366075 720 624 c 0
 720 597.853633925 698.144471708 576 672 576 c 2
 352 576 l 2
 325.853633925 576 304 597.855528292 304 624 c 0
736 928 m 0
 762.144471708 928 784 906.146366075 784 880 c 0
 784 818.079676968 733.944307931 768 672 768 c 0
 648.318743992 768 626.674816925 777.541163327 610.975741984 792.663641073 c 1
 568.038690916 769.618584105 512.044676425 760 464 760 c 0
 364.358184663 760 272 810.917420365 272 912 c 0
 272 1014.72789964 379.625708986 1072 480 1072 c 0
 556.176581793 1072 584 1111.63239631 584 1120 c 0
 584 1122.62889245 560.943358436 1160 488 1160 c 0
 415.056641564 1160 392 1122.62889245 392 1120 c 0
 392 1093.85363392 370.144471708 1072 344 1072 c 0
 317.855528292 1072 296 1093.85363392 296 1120 c 0
 296 1214.37110755 401.943358436 1256 488 1256 c 0
 574.056641564 1256 680 1214.37110755 680 1120 c 2
 680 896 l 1
 680 866.032591027 l 1
 684.838461183 868.730295234 688 873.873602501 688 880 c 0
 688 906.146366075 709.855528292 928 736 928 c 0
584 995.970142281 m 1
 551.443967719 982.569654346 514.563474214 976 480 976 c 0
 403.374291014 976 368 933.272100363 368 912 c 0
 368 885.082579635 387.641815337 856 464 856 c 0
 542.918988414 856 582.709519677 891.617051995 583.976096447 896.055290248 c 0
 583.982840615 896.26130329 583.990810652 896.467059107 584 896.672548863 c 2
 584 995.970142281 l 1
EndSplineSet
EndChar

StartChar: ordmasculine
Encoding: 186 186 433
Width: 1024
VWidth: 0
Flags: HW
LayerCount: 2
Back
SplineSet
328 1008 m 4
 328 1118 410 1208 512 1208 c 4
 614 1208 696 1118 696 1008 c 4
 696 898 614 808 512 808 c 4
 410 808 328 898 328 1008 c 4
352 624 m 25
 672 624 l 1049
EndSplineSet
Fore
SplineSet
304 624 m 0
 304 650.14453125 325.853515625 672 352 672 c 2
 672 672 l 2
 698.14453125 672 720 650.146484375 720 624 c 0
 720 597.853515625 698.14453125 576 672 576 c 2
 352 576 l 2
 325.853515625 576 304 597.85546875 304 624 c 0
376 1008 m 4
 376 920.627929688 440.391601562 856 512 856 c 4
 583.608398438 856 648 920.627929688 648 1008 c 4
 648 1095.37207031 583.608398438 1160 512 1160 c 4
 440.391601562 1160 376 1095.37207031 376 1008 c 4
280 1008 m 4
 280 1141.58691406 380.595703125 1256 512 1256 c 4
 643.403320312 1256 744 1141.58691406 744 1008 c 4
 744 874.413085938 643.404296875 760 512 760 c 4
 380.596679688 760 280 874.413085938 280 1008 c 4
EndSplineSet
EndChar

StartChar: guillemotleft
Encoding: 171 171 434
Width: 1024
VWidth: 0
Flags: HW
LayerCount: 2
Back
SplineSet
848 768 m 29
 560 432 l 29
 848 96 l 1053
464 768 m 25
 176 432 l 25
 464 96 l 1049
EndSplineSet
Fore
SplineSet
879.237985926 804.444316914 m 0
 890.180565643 795.06496287 895.811753817 781.491663106 895.811753817 767.872996772 c 0
 895.811753817 756.786751282 892.080112753 745.670442554 884.444316914 736.762014074 c 2
 623.219733421 432 l 1
 884.444316914 127.237985926 l 2
 892.079861269 118.329850844 895.811728477 107.213329957 895.811728477 96.1266878056 c 0
 895.811728477 82.5085105445 890.181006452 68.9354149662 879.237985926 59.5556830865 c 0
 870.329557446 51.9198872468 859.213248718 48.1882461828 848.127003228 48.1882461828 c 0
 834.508336894 48.1882461828 820.93503713 53.819434357 811.555683086 64.7620140741 c 2
 523.555683086 400.762014074 l 2
 516.182654467 409.363880796 512.283182824 420.689722399 512.283182824 432.132435603 c 0
 512.283182824 443.172681316 515.91317107 454.321721906 523.555683086 463.237985926 c 2
 811.555683086 799.237985926 l 2
 820.935414966 810.181006452 834.508510544 815.811728477 848.126687806 815.811728477 c 0
 859.213329957 815.811728477 870.329850844 812.079861269 879.237985926 804.444316914 c 0
495.237985926 804.444316914 m 0
 506.180565643 795.06496287 511.811753817 781.491663106 511.811753817 767.872996772 c 0
 511.811753817 756.786751282 508.080112753 745.670442554 500.444316914 736.762014074 c 2
 239.219733421 432 l 1
 500.444316914 127.237985926 l 2
 508.079861269 118.329850844 511.811728477 107.213329957 511.811728477 96.1266878056 c 0
 511.811728477 82.5085105445 506.181006452 68.9354149662 495.237985926 59.5556830865 c 0
 486.329557446 51.9198872468 475.213248718 48.1882461828 464.127003228 48.1882461828 c 0
 450.508336894 48.1882461828 436.93503713 53.819434357 427.555683086 64.7620140741 c 2
 139.555683086 400.762014074 l 2
 132.182654467 409.363880796 128.283182824 420.689722399 128.283182824 432.132435603 c 0
 128.283182824 443.172681316 131.91317107 454.321721906 139.555683086 463.237985926 c 2
 427.555683086 799.237985926 l 2
 436.935414966 810.181006452 450.508510544 815.811728477 464.126687806 815.811728477 c 0
 475.213329957 815.811728477 486.329850844 812.079861269 495.237985926 804.444316914 c 0
EndSplineSet
EndChar

StartChar: guillemotright
Encoding: 187 187 435
Width: 1024
VWidth: 0
Flags: HW
LayerCount: 2
Back
SplineSet
176 768 m 29
 464 432 l 29
 176 96 l 1053
560 768 m 29
 848 432 l 29
 560 96 l 1053
EndSplineSet
Fore
SplineSet
144.76171875 59.5556640625 m 0
 133.819530079 68.9350674477 128.188444726 82.5082749391 128.188444726 96.1269713774 c 0
 128.188444726 107.213186601 131.919980782 118.329545862 139.555664062 127.23828125 c 2
 400.780273438 432 l 1
 139.555664062 736.76171875 l 2
 131.920070378 745.669984424 128.188193777 756.786665591 128.188193777 767.873423015 c 0
 128.188193777 781.491657458 133.818860171 795.06474287 144.76171875 804.444335938 c 0
 153.670454138 812.080019218 164.786813399 815.811555274 175.873028623 815.811555274 c 0
 189.491725061 815.811555274 203.064932553 810.180469921 212.444335938 799.23828125 c 2
 500.444335938 463.23828125 l 2
 507.817192337 454.636284101 511.716630141 443.310394197 511.716630141 431.867581308 c 0
 511.716630141 420.827338349 508.086738452 409.678254632 500.444335938 400.76171875 c 2
 212.444335938 64.76171875 l 2
 203.064742871 53.8188601713 189.491657459 48.1881937772 175.873423015 48.1881937772 c 0
 164.786665591 48.1881937772 153.669984424 51.9200703779 144.76171875 59.5556640625 c 0
528.76171875 59.5556640625 m 0
 517.819530079 68.9350674477 512.188444726 82.5082749391 512.188444726 96.1269713774 c 0
 512.188444726 107.213186601 515.919980782 118.329545862 523.555664062 127.23828125 c 2
 784.780273438 432 l 1
 523.555664062 736.76171875 l 2
 515.920070378 745.669984424 512.188193777 756.786665591 512.188193777 767.873423015 c 0
 512.188193777 781.491657458 517.818860171 795.06474287 528.76171875 804.444335938 c 0
 537.670454138 812.080019218 548.786813399 815.811555274 559.873028623 815.811555274 c 0
 573.491725061 815.811555274 587.064932553 810.180469921 596.444335938 799.23828125 c 2
 884.444335938 463.23828125 l 2
 891.817192337 454.636284101 895.716630141 443.310394197 895.716630141 431.867581308 c 0
 895.716630141 420.827338349 892.086738452 409.678254632 884.444335938 400.76171875 c 2
 596.444335938 64.76171875 l 2
 587.064742871 53.8188601713 573.491657459 48.1881937772 559.873423015 48.1881937772 c 0
 548.786665591 48.1881937772 537.669984424 51.9200703779 528.76171875 59.5556640625 c 0
EndSplineSet
Validated: 1
EndChar

StartChar: logicalnot
Encoding: 172 172 436
Width: 1024
VWidth: 0
Flags: HW
LayerCount: 2
Back
SplineSet
144 768 m 25
 880 768 l 25
 880 400 l 1053
EndSplineSet
Fore
SplineSet
96 768 m 0
 96 794.144471708 117.853633925 816 144 816 c 2
 880 816 l 2
 909.054472683 816 928 788.601416319 928 768 c 2
 928 400 l 2
 928 373.855528292 906.146366075 352 880 352 c 0
 853.853633925 352 832 373.855528292 832 400 c 2
 832 720 l 1
 144 720 l 2
 117.853633925 720 96 741.855528292 96 768 c 0
EndSplineSet
EndChar

StartChar: uni00AD
Encoding: 173 173 437
Width: 1024
VWidth: 0
Flags: HW
LayerCount: 2
Back
Refer: 6 45 S 1 0 0 1 0 0 2
Fore
SplineSet
96 624 m 4
 96 650.14453125 117.853515625 672 144 672 c 6
 880 672 l 6
 906.14453125 672 928 650.146484375 928 624 c 4
 928 597.853515625 906.14453125 576 880 576 c 6
 144 576 l 6
 117.853515625 576 96 597.85546875 96 624 c 4
EndSplineSet
Validated: 1
EndChar

StartChar: macron
Encoding: 175 175 438
Width: 1024
VWidth: 0
Flags: HW
LayerCount: 2
Back
SplineSet
352 1200 m 25
 672 1200 l 1053
EndSplineSet
Fore
SplineSet
304 1200 m 0
 304 1226.14447171 325.853633925 1248 352 1248 c 2
 672 1248 l 2
 698.144471708 1248 720 1226.14636608 720 1200 c 0
 720 1173.85363392 698.144471708 1152 672 1152 c 2
 352 1152 l 2
 325.853633925 1152 304 1173.85552829 304 1200 c 0
EndSplineSet
EndChar

StartChar: uni00B2
Encoding: 178 178 439
Width: 1024
VWidth: 0
Flags: HW
LayerCount: 2
Back
SplineSet
680 1296 m 0
 680 1216 612 1163.5 512 1136 c 0
 424.05078125 1111.81445312 328 1032 328 848 c 1024
696 992 m 0
 696 888 656 840 584 840 c 0
 512 840 512 912 440 912 c 0
 368 912 328 848 328 848 c 1024
344 1296 m 0
 344 1371 419.5 1432 512 1432 c 0
 604.5 1432 680 1371 680 1296 c 1024
344 1296 m 1049
EndSplineSet
Fore
SplineSet
696 1040 m 0
 722.144471708 1040 744 1018.14636608 744 992 c 0
 744 875.536227427 688.857495126 792 584 792 c 0
 467.669194586 792 467.671081331 864 440 864 c 0
 399.888722993 864 373.125692918 829.161149048 366.635565974 819.444501852 c 0
 363.014081713 814.084642345 357.794285392 809.646075283 351.679017872 806.408616724 c 0
 344.656476334 802.341548779 336.558194191 800.000001238 328 800 c 0
 321.879174464 800 315.993599732 801.197729194 310.568566262 803.367824202 c 0
 307.764519388 804.407980568 305.040329597 805.735705987 302.442765534 807.369620154 c 0
 292.702496589 813.496423254 285.832119457 822.663676496 282.464882311 833.018985769 c 0
 280.867960307 837.749617381 279.999999881 842.789636722 280 848 c 0
 280 1051.72777394 391.972558965 1152.77497386 499.2727277 1182.28192455 c 0
 593.432937019 1208.17598211 632 1249.43936198 632 1296 c 0
 632 1335.84469399 586.669480009 1384 512 1384 c 0
 437.31230489 1384 392 1335.85849661 392 1296 c 0
 392 1269.85363392 370.144471708 1248 344 1248 c 0
 317.855528292 1248 296 1269.85363392 296 1296 c 0
 296 1406.14150339 401.68769511 1480 512 1480 c 0
 622.330519991 1480 728 1406.15530601 728 1296 c 0
 728 1182.56063802 630.567062981 1118.82401789 524.7272723 1089.71807545 c 0
 473.327997429 1075.58356022 415.455140521 1039.15082123 389.666313066 952.667655902 c 1
 404.730030762 957.226039543 421.497487476 960 440 960 c 0
 556.328918669 960 556.330805414 888 584 888 c 0
 623.142504874 888 648 900.463772573 648 992 c 0
 648 1018.14636608 669.855528292 1040 696 1040 c 0
EndSplineSet
EndChar

StartChar: uni00B3
Encoding: 179 179 440
Width: 1024
VWidth: 0
Flags: HW
LayerCount: 2
Back
SplineSet
512 1160 m 29
 464 1160 l 1053
512 840 m 4
 410.5 840 328 886.5 328 944 c 1028
512 1160 m 4
 613.5 1160 696 1088.5 696 1000 c 4
 696 911.5 613.5 840 512 840 c 1028
328 944 m 1053
356 1344 m 1053
356 1344 m 4
 356 1392.5 426 1432 512 1432 c 1028
512 1432 m 4
 598 1432 668 1371 668 1296 c 4
 668 1221 598 1160 512 1160 c 1028
EndSplineSet
Fore
SplineSet
356 1296 m 0
 329.855528292 1296 308 1317.85363392 308 1344 c 0
 308 1441.28954815 422.569201317 1480 512 1480 c 0
 618.883604953 1480 716 1403.13434477 716 1296 c 0
 716 1242.64563469 691.913264353 1196.79834856 654.528977217 1164.21375086 c 1
 708.110787047 1127.12080606 744 1069.03149973 744 1000 c 0
 744 879.268090551 634.211379311 792 512 792 c 0
 407.03062757 792 280 837.797419003 280 944 c 0
 280 970.144471708 301.853633925 992 328 992 c 0
 354.146366075 992 376 970.144471708 376 944 c 0
 376 935.202580997 413.96937243 888 512 888 c 0
 592.788620689 888 648 943.731909449 648 1000 c 0
 648 1056.26391079 592.785131392 1112 512 1112 c 2
 464 1112 l 2
 437.855528292 1112 416 1133.85363392 416 1160 c 0
 416 1186.14636608 437.855528292 1208 464 1208 c 2
 512 1208 l 2
 577.116597081 1208 620 1253.13409693 620 1296 c 0
 620 1338.86565523 577.116395047 1384 512 1384 c 0
 429.430798682 1384 404 1344 404 1344 c 1
 404 1317.85363392 382.144471708 1296 356 1296 c 0
EndSplineSet
EndChar

StartChar: uni00B9
Encoding: 185 185 441
Width: 1024
VWidth: 0
Flags: HW
LayerCount: 2
Back
SplineSet
512 856 m 29
 512 1424 l 29
 512 1424 448 1320 360 1320 c 1037
360 848 m 29
 664 848 l 1053
EndSplineSet
Fore
SplineSet
312 848 m 0
 312 874.452324695 333.546578914 896 360 896 c 2
 464 896 l 1
 464 1305.91610525 l 1
 430.70786802 1283.74161264 395.468694649 1272 360 1272 c 0
 333.545671721 1272 312 1293.54858576 312 1320 c 0
 312 1346.4523247 333.546578914 1368 360 1368 c 0
 385.957205324 1368 429.427699628 1386.67424888 472.061154512 1450.62397198 c 0
 476.582673711 1457.40723158 482.940776147 1462.88043641 489.379549127 1466.26208293 c 0
 495.763397531 1469.74334437 503.845076406 1472 512 1472 c 0
 516.783462991 1472 521.810964859 1471.18595049 525.899095859 1469.91553528 c 0
 530.002993514 1468.70606059 534.651672925 1466.58833603 538.623971978 1463.93884549 c 0
 545.407231582 1459.41732629 550.880436406 1453.05922385 554.262082925 1446.62045087 c 0
 557.743344367 1440.23660247 560 1432.15492359 560 1424 c 2
 560 896 l 1
 664 896 l 2
 690.452324695 896 712 874.453421086 712 848 c 0
 712 821.545671721 690.451414237 800 664 800 c 2
 360 800 l 2
 333.545671721 800 312 821.548585763 312 848 c 0
EndSplineSet
Validated: 1
EndChar

StartChar: onequarter
Encoding: 188 188 442
Width: 1024
VWidth: 0
Flags: HW
LayerCount: 2
Back
SplineSet
456 -176 m 29
 728 -176 l 1053
736 40 m 29
 320 40 l 29
 592 400 l 29
 592 -168 l 1053
192 624 m 25
 832 624 l 1049
512 856 m 25
 512 1424 l 25
 512 1424 448 1320 360 1320 c 1033
360 848 m 25
 664 848 l 1049
EndSplineSet
Fore
SplineSet
144 624 m 0
 144 650.144471708 165.853633925 672 192 672 c 2
 832 672 l 2
 858.144471708 672 880 650.146366075 880 624 c 0
 880 597.853633925 858.144471708 576 832 576 c 2
 192 576 l 2
 165.853633925 576 144 597.855528292 144 624 c 0
312 848 m 0
 312 874.452324695 333.546578914 896 360 896 c 2
 464 896 l 1
 464 1305.91610525 l 1
 430.70786802 1283.74161264 395.468694649 1272 360 1272 c 0
 333.545671721 1272 312 1293.54858576 312 1320 c 0
 312 1346.4523247 333.546578914 1368 360 1368 c 0
 385.957205324 1368 429.427699628 1386.67424888 472.061154512 1450.62397198 c 0
 476.582673711 1457.40723158 482.940776147 1462.88043641 489.379549127 1466.26208293 c 0
 495.763397531 1469.74334437 503.845076406 1472 512 1472 c 0
 516.783462991 1472 521.810964859 1471.18595049 525.899095859 1469.91553528 c 0
 530.002993514 1468.70606059 534.651672925 1466.58833603 538.623971978 1463.93884549 c 0
 545.407231582 1459.41732629 550.880436406 1453.05922385 554.262082925 1446.62045087 c 0
 557.743344367 1440.23660247 560 1432.15492359 560 1424 c 2
 560 896 l 1
 664 896 l 2
 690.452324695 896 712 874.453421086 712 848 c 0
 712 821.545671721 690.451414237 800 664 800 c 2
 360 800 l 2
 333.545671721 800 312 821.548585763 312 848 c 0
594.42578125 -152.037109375 m 1
 594.42578125 -162.337817534 584.953017591 -176.037109375 570.42578125 -176.037109375 c 2
 618.42578125 -176.037109375 l 2
 608.125073091 -176.037109375 594.42578125 -166.564345716 594.42578125 -152.037109375 c 1
410.42578125 -176.037109375 m 0
 410.42578125 -149.604183323 431.994339944 -128.037109375 458.42578125 -128.037109375 c 2
 546.42578125 -128.037109375 l 1
 546.42578125 -8.037109375 l 1
 458 -8.037109375 l 5
 322.42578125 -8.037109375 l 2
 313.894790323 -8.037109375 305.781983475 -6.36462792214 296.584713126 -0.487178331328 c 0
 286.605612099 5.88754349269 279.867821086 15.4539694642 276.694846336 25.7250897857 c 0
 272.377860754 39.699445659 274.324307974 55.9239803249 284.127551413 68.898658203 c 2
 556.128291396 428.899637539 l 2
 563.77532469 439.01963488 575.532830613 446.625555049 590.658863315 447.8146023 c 0
 601.207678441 448.645294338 611.269877109 445.873013238 619.493687496 440.786020375 c 0
 632.921311195 432.480110743 642.42578125 417.484484143 642.42578125 399.962890625 c 2
 642.42578125 87.962890625 l 1
 738.42578125 87.962890625 l 2
 764.878105945 87.962890625 786.42578125 66.4163117113 786.42578125 39.962890625 c 0
 786.42578125 13.5085623465 764.877195487 -8.037109375 738.42578125 -8.037109375 c 2
 642.42578125 -8.037109375 l 1
 642.42578125 -128.037109375 l 1
 730.42578125 -128.037109375 l 2
 756.858707302 -128.037109375 778.42578125 -149.605668069 778.42578125 -176.037109375 c 0
 778.42578125 -202.470035427 756.857222556 -224.037109375 730.42578125 -224.037109375 c 2
 458.42578125 -224.037109375 l 2
 431.992855198 -224.037109375 410.42578125 -202.468550681 410.42578125 -176.037109375 c 0
546.42578125 87.962890625 m 1
 546.42578125 256.810059883 l 1
 418.852225904 87.962890625 l 1
 546.42578125 87.962890625 l 1
EndSplineSet
EndChar

